<svg xmlns="http://www.w3.org/2000/svg" xmlns:se="http://svg-edit.googlecode.com" xmlns:xlink="http://www.w3.org/1999/xlink" xmlns:dc="http://purl.org/dc/elements/1.1/" xmlns:cc="http://creativecommons.org/ns#" xmlns:rdf="http://www.w3.org/1999/02/22-rdf-syntax-ns#" xmlns:inkscape="http://www.inkscape.org/namespaces/inkscape" width="737" height="180" style="">
                                    <title>my vector image</title>
                                    <!-- Created with Vector Paint - http://www.vectorpaint.yaks.com/ https://chrome.google.com/webstore/detail/hnbpdiengicdefcjecjbnjnoifekhgdo -->
                                    <rect id="backgroundrect" width="100%" height="100%" x="0" y="0" fill="#04112c" stroke="#04112c" style="" class="" fill-opacity="1" stroke-opacity="1"/>
                                <g style="" class="currentLayer"><title>Layer 1</title><rect fill="#919191" stroke="#919191" stroke-width="2" stroke-linejoin="round" stroke-dashoffset="" fill-rule="nonzero" x="586.8236694335938" y="40.56163787841797" width="34.217010498046875" height="4.740472793579102" style="color: rgb(0, 0, 0);" class="" stroke-opacity="1" transform="rotate(-8.34790325164795 603.9321899414062,42.93186950683624) " rx="5" ry="5" id="svg_9" fill-opacity="1"/><rect fill="#919191" stroke="#919191" stroke-width="2" stroke-linejoin="round" stroke-dashoffset="" fill-rule="nonzero" x="417.03594970703125" y="91.96514129638672" width="111.15692138671875" height="10.546554565429688" style="color: rgb(0, 0, 0);" class="" stroke-opacity="1" transform="rotate(-12.115954399108887 472.6144104003906,97.23827362060554) " rx="10" ry="10" id="svg_11" fill-opacity="1"/><rect fill="#dadada" stroke="#dadada" stroke-width="2" stroke-linejoin="round" stroke-dashoffset="" fill-rule="nonzero" id="svg_2" x="485.5172424316406" y="64.6827621459961" width="155.3103485107422" height="37" style="color: rgb(0, 0, 0);" class="" rx="20" ry="20" transform="rotate(-28.283288955688477 563.1723632812501,83.18272399902337) " fill-opacity="1" stroke-opacity="1"/><path fill="#ffffff" stroke="#ffffff" stroke-width="2" stroke-linejoin="round" stroke-dashoffset="" fill-rule="nonzero" marker-start="" marker-mid="" marker-end="" id="svg_1" d="M104.65636464113538,44.589278776740684 C76.51514539938145,44.589278776740684 52.360363424650444,59.183020915439556 40.537016819032885,80.25115355380109 C35.814834550814965,77.61484151540105 30.606276966733617,76.01855830014381 25.047516150806473,76.01855830014381 C8.237642800168729,76.01855830014381 -5.7505660602739255,89.5413664046186 -10.074024801913907,107.89812586233307 C-17.453621742301976,104.98127292793515 -26.034049181085237,103.21525242172595 -35.199439263525555,103.21525242172595 C-62.6956292145196,103.21525242172595 -84.99998999979879,118.25939096941204 -84.99998999979879,136.80586724248863 C-84.99998999979879,153.54721121847564 -66.70745466418711,167.31013813381412 -42.944184671720535,169.85613838707525 C-44.009227307721495,171.6631720886083 -44.835353056910755,173.45263996567294 -44.835353056910755,175.34951256419322 C-44.835353056910755,193.10676806758602 3.8143356956638144,207.5892731204333 63.77128259912726,207.5892731204333 C123.7282196507542,207.5892731204333 172.37797736618433,193.10675821574932 172.3779182551653,175.34951256419322 C172.3779182551653,174.15474094524137 171.63635081860224,173.0885062370249 171.20720482093162,171.92740819520918 C173.8333300603975,172.58048643638443 176.43356467355744,173.27824275605923 179.31218263052318,173.27824275605923 C195.35157340448876,173.27829201524213 208.40002543362243,162.37991463435654 208.40002543362243,148.96331917912119 C208.40002543362243,135.54671387204985 195.35157340448876,124.64840545402024 179.31218263052318,124.64840545402024 C177.34659347245855,124.64840545402024 175.67522941128198,125.32734476599126 173.81880845340555,125.63901746530979 C175.44206599698288,120.274387087494 176.52045787143294,114.80048999112398 176.52045787143294,108.97879351101398 C176.52045787143294,73.46431205973698 144.37305828232243,44.58929848041379 104.6563843448084,44.58929848041379 L104.65636464113538,44.589278776740684 z" style="color: rgb(0, 0, 0);" class=""/><path fill="#ffffff" stroke="#ffffff" stroke-width="2" stroke-linejoin="round" stroke-dashoffset="" fill-rule="nonzero" marker-start="" marker-mid="" marker-end="" d="M104.65636464113538,44.589278776740684 C76.51514539938145,44.589278776740684 52.360363424650444,59.183020915439556 40.537016819032885,80.25115355380109 C35.814834550814965,77.61484151540105 30.606276966733617,76.01855830014381 25.047516150806473,76.01855830014381 C8.237642800168729,76.01855830014381 -5.7505660602739255,89.5413664046186 -10.074024801913907,107.89812586233307 C-17.453621742301976,104.98127292793515 -26.034049181085237,103.21525242172595 -35.199439263525555,103.21525242172595 C-62.6956292145196,103.21525242172595 -84.99998999979879,118.25939096941204 -84.99998999979879,136.80586724248863 C-84.99998999979879,153.54721121847564 -66.70745466418711,167.31013813381412 -42.944184671720535,169.85613838707525 C-44.009227307721495,171.6631720886083 -44.835353056910755,173.45263996567294 -44.835353056910755,175.34951256419322 C-44.835353056910755,193.10676806758602 3.8143356956638144,207.5892731204333 63.77128259912726,207.5892731204333 C123.7282196507542,207.5892731204333 172.37797736618433,193.10675821574932 172.3779182551653,175.34951256419322 C172.3779182551653,174.15474094524137 171.63635081860224,173.0885062370249 171.20720482093162,171.92740819520918 C173.8333300603975,172.58048643638443 176.43356467355744,173.27824275605923 179.31218263052318,173.27824275605923 C195.35157340448876,173.27829201524213 208.40002543362243,162.37991463435654 208.40002543362243,148.96331917912119 C208.40002543362243,135.54671387204985 195.35157340448876,124.64840545402024 179.31218263052318,124.64840545402024 C177.34659347245855,124.64840545402024 175.67522941128198,125.32734476599126 173.81880845340555,125.63901746530979 C175.44206599698288,120.274387087494 176.52045787143294,114.80048999112398 176.52045787143294,108.97879351101398 C176.52045787143294,73.46431205973698 144.37305828232243,44.58929848041379 104.6563843448084,44.58929848041379 L104.65636464113538,44.589278776740684 z" style="color: rgb(0, 0, 0);" class="" id="svg_8"/><path fill="#ffffff" stroke="#ffffff" stroke-width="2" stroke-linejoin="round" stroke-dashoffset="" fill-rule="nonzero" marker-start="" marker-mid="" marker-end="" d="M275.6563646411354,38.589278776740684 C247.51514539938148,38.589278776740684 223.36036342465047,53.183020915439556 211.53701681903289,74.25115355380109 C206.81483455081496,71.61484151540105 201.60627696673362,70.01855830014381 196.04751615080647,70.01855830014381 C179.23764280016871,70.01855830014381 165.2494339397261,83.5413664046186 160.9259751980861,101.89812586233307 C153.54637825769802,98.98127292793515 144.96595081891476,97.21525242172595 135.80056073647444,97.21525242172595 C108.30437078548039,97.21525242172595 86.0000100002012,112.25939096941204 86.0000100002012,130.80586724248863 C86.0000100002012,147.54721121847564 104.29254533581289,161.31013813381412 128.05581532827946,163.85613838707525 C126.99077269227851,165.66317208860823 126.16464694308925,167.45263996567294 126.16464694308925,169.34951256419322 C126.16464694308925,187.10676806758602 174.81433569566383,201.5892731204333 234.7712825991273,201.5892731204333 C294.7282196507542,201.5892731204333 343.3779773661843,187.10675821574932 343.3779182551653,169.34951256419322 C343.3779182551653,168.15474094524137 342.63635081860224,167.0885062370249 342.2072048209316,165.92740819520918 C344.8333300603975,166.58048643638443 347.43356467355744,167.27824275605923 350.3121826305232,167.27824275605923 C366.35157340448876,167.27829201524213 379.40002543362243,156.37991463435654 379.40002543362243,142.96331917912119 C379.40002543362243,129.54671387204985 366.35157340448876,118.64840545402024 350.3121826305232,118.64840545402024 C348.34659347245855,118.64840545402024 346.675229411282,119.32734476599126 344.81880845340555,119.63901746530979 C346.4420659969829,114.274387087494 347.52045787143294,108.80048999112398 347.52045787143294,102.97879351101398 C347.52045787143294,67.46431205973698 315.3730582823224,38.58929848041379 275.65638434480843,38.58929848041379 L275.6563646411354,38.589278776740684 z" style="color: rgb(0, 0, 0);" class="" id="svg_4"/><path fill="#ffffff" stroke="#ffffff" stroke-width="2" stroke-linejoin="round" stroke-dashoffset="" fill-rule="nonzero" marker-start="" marker-mid="" marker-end="" d="M345.6563646411354,69.58927877674068 C317.5151453993815,69.58927877674068 293.3603634246505,84.18302091543956 281.5370168190329,105.25115355380109 C276.81483455081496,102.61484151540105 271.6062769667336,101.01855830014381 266.0475161508065,101.01855830014381 C249.23764280016871,101.01855830014381 235.2494339397261,114.54136640461863 230.92597519808612,132.89812586233307 C223.54637825769805,129.98127292793515 214.96595081891473,128.21525242172595 205.80056073647444,128.21525242172595 C178.3043707854804,128.21525242172595 156.0000100002012,143.25939096941204 156.0000100002012,161.80586724248863 C156.0000100002012,178.54721121847564 174.2925453358129,192.31013813381412 198.05581532827944,194.85613838707525 C196.99077269227848,196.66317208860838 196.16464694308922,198.45263996567292 196.16464694308922,200.34951256419322 C196.16464694308922,218.10676806758602 244.81433569566383,232.5892731204333 304.7712825991273,232.5892731204333 C364.7282196507542,232.5892731204333 413.3779773661843,218.10675821574932 413.3779182551653,200.34951256419322 C413.3779182551653,199.15474094524137 412.63635081860224,198.0885062370249 412.2072048209316,196.92740819520918 C414.8333300603975,197.58048643638443 417.43356467355744,198.27824275605923 420.3121826305232,198.27824275605923 C436.3515734044888,198.27829201524213 449.40002543362243,187.37991463435654 449.40002543362243,173.96331917912119 C449.40002543362243,160.54671387204985 436.3515734044888,149.64840545402024 420.3121826305232,149.64840545402024 C418.34659347245855,149.64840545402024 416.675229411282,150.32734476599126 414.81880845340555,150.6390174653098 C416.4420659969829,145.274387087494 417.52045787143294,139.80048999112398 417.52045787143294,133.97879351101398 C417.52045787143294,98.46431205973698 385.3730582823224,69.58929848041379 345.65638434480843,69.58929848041379 L345.6563646411354,69.58927877674068 z" style="color: rgb(0, 0, 0);" class="" id="svg_5"/><path fill="#ffffff" stroke="#ffffff" stroke-width="2" stroke-linejoin="round" stroke-dashoffset="" fill-rule="nonzero" marker-start="" marker-mid="" marker-end="" d="M466.6563646411354,60.34789951572384 C438.5151453993815,60.34789951572384 414.3603634246505,74.94164165442271 402.5370168190329,96.00977429278424 C397.81483455081496,93.37346225438421 392.6062769667336,91.77717903912696 387.0475161508065,91.77717903912696 C370.2376428001687,91.77717903912696 356.2494339397261,105.29998714360181 351.9259751980861,123.65674660131623 C344.54637825769805,120.7398936669183 335.96595081891473,118.9738731607091 326.80056073647444,118.9738731607091 C299.3043707854804,118.9738731607091 277.0000100002012,134.0180117083952 277.0000100002012,152.56448798147179 C277.0000100002012,169.3058319574588 295.29254533581286,183.06875887279728 319.05581532827944,185.6147591260584 C317.9907726922785,187.42179282759153 317.1646469430892,189.21126070465607 317.1646469430892,191.10813330317637 C317.1646469430892,208.86538880656917 365.81433569566383,223.34789385941644 425.7712825991273,223.34789385941644 C485.7282196507542,223.34789385941644 534.3779773661843,208.86537895473248 534.3779182551652,191.10813330317637 C534.3779182551652,189.91336168422453 533.6363508186023,188.84712697600804 533.2072048209316,187.68602893419234 C535.8333300603974,188.3391071753676 538.4335646735574,189.03686349504238 541.3121826305232,189.03686349504238 C557.3515734044888,189.03691275422528 570.4000254336224,178.1385353733397 570.4000254336224,164.72193991810437 C570.4000254336224,151.305334611033 557.3515734044888,140.4070261930034 541.3121826305232,140.4070261930034 C539.3465934724586,140.4070261930034 537.675229411282,141.0859655049744 535.8188084534056,141.39763820429295 C537.4420659969828,136.03300782647716 538.5204578714329,130.55911073010714 538.5204578714329,124.73741424999713 C538.5204578714329,89.22293279872014 506.3730582823224,60.34791921939694 466.65638434480843,60.34791921939694 L466.6563646411354,60.34789951572384 z" style="color: rgb(0, 0, 0);" class="" id="svg_6"/><path fill="#ffffff" stroke="#ffffff" stroke-width="2" stroke-linejoin="round" stroke-dashoffset="" fill-rule="nonzero" marker-start="" marker-mid="" marker-end="" d="M709.6563646411354,39.6927269292828 C681.5151453993815,39.6927269292828 657.3603634246505,54.28646906798167 645.5370168190329,75.3546017063432 C640.814834550815,72.71828966794317 635.6062769667336,71.12200645268592 630.0475161508065,71.12200645268592 C613.2376428001687,71.12200645268592 599.249433939726,84.64481455716071 594.9259751980861,103.00157401487527 C587.546378257698,100.08472108047727 578.9659508189147,98.31870057426806 569.8005607364744,98.31870057426806 C542.3043707854804,98.31870057426806 520.0000100002012,113.36283912195418 520.0000100002012,131.90931539503072 C520.0000100002012,148.65065937101775 538.2925453358129,162.41358628635624 562.0558153282794,164.95958653961736 C560.9907726922785,166.76662024115035 560.1646469430892,168.55608811821503 560.1646469430892,170.45296071673533 C560.1646469430892,188.21021622012813 608.8143356956639,202.6927212729754 668.7712825991273,202.6927212729754 C728.7282196507542,202.6927212729754 777.3779773661843,188.21020636829144 777.3779182551652,170.45296071673533 C777.3779182551652,169.2581890977835 776.6363508186023,168.191954389567 776.2072048209316,167.0308563477513 C778.8333300603974,167.68393458892655 781.4335646735574,168.38169090860134 784.3121826305232,168.38169090860134 C800.3515734044888,168.38174016778424 813.4000254336224,157.48336278689862 813.4000254336224,144.0667673316633 C813.4000254336224,130.650162024592 800.3515734044888,119.75185360656235 784.3121826305232,119.75185360656235 C782.3465934724586,119.75185360656235 780.675229411282,120.43079291853337 778.8188084534056,120.7424656178519 C780.4420659969828,115.37783524003612 781.5204578714329,109.9039381436661 781.5204578714329,104.08224166355609 C781.5204578714329,68.5677602122791 749.3730582823224,39.6927466329559 709.6563843448084,39.6927466329559 L709.6563646411354,39.6927269292828 z" style="color: rgb(0, 0, 0);" class="" id="svg_7"/><path fill="#dadada" fill-opacity="1" stroke="#dadada" stroke-opacity="1" stroke-width="2" stroke-dasharray="none" stroke-linejoin="round" stroke-linecap="butt" stroke-dashoffset="" fill-rule="nonzero" opacity="1" marker-start="" marker-mid="" marker-end="" d="M580.717084992738,47.2624293302902 C580.717084992738,40.19722922613285 596.9502827055563,34.474417141765386 616.9912675361962,34.474417141765386 C637.0322523668362,34.474417141765386 653.2654500796544,40.19722922613285 653.2654500796544,47.2624293302902 C653.2654500796544,54.32762943444756 637.0322523668362,60.05044151881503 616.9912675361962,60.05044151881503 C596.9502827055563,60.05044151881503 580.717084992738,54.32762943444756 580.717084992738,47.2624293302902 z" id="svg_10" class="" transform="rotate(-27.83917808532715 616.9912719726562,47.262428283691186) "/><rect fill="#919191" stroke="#919191" stroke-width="2" stroke-linejoin="round" stroke-dashoffset="" fill-rule="nonzero" id="svg_3" x="565.311767578125" y="72.65479278564453" width="111.15692138671875" height="10.546554565429688" style="color: rgb(0, 0, 0);" class="" stroke-opacity="1" transform="rotate(-10.73597240447998 620.8902587890624,77.92803955078142) " rx="10" ry="10" fill-opacity="1"/><rect fill="#919191" stroke="#919191" stroke-width="2" stroke-linejoin="round" stroke-dashoffset="" fill-rule="nonzero" x="607.76025390625" y="15.283766746520996" width="30.94816780090332" height="6.938180446624756" style="color: rgb(0, 0, 0);" class="" stroke-opacity="1" transform="rotate(-81.52184295654297 623.234375,18.752880096435554) " rx="2" ry="2" id="svg_12" fill-opacity="1"/><rect fill="#919191" stroke="#919191" stroke-width="2" stroke-linejoin="round" stroke-dashoffset="" fill-rule="nonzero" x="616.0092163085938" y="11.250378608703613" width="26.742441177368164" height="6.938180446624756" style="color: rgb(0, 0, 0);" class="" stroke-opacity="1" transform="rotate(-110.90972137451172 629.3804931640625,14.719492912292516) " rx="2" ry="2" id="svg_13" fill-opacity="1"/><rect fill="#919191" stroke="#919191" stroke-width="2" stroke-linejoin="round" stroke-dashoffset="" fill-rule="nonzero" x="628.9223022460938" y="36.73926544189453" width="30.829092025756836" height="4.740472793579102" style="color: rgb(0, 0, 0);" class="" stroke-opacity="1" transform="rotate(-10.73597240447998 644.3368530273439,39.10950088500974) " rx="5" ry="5" id="svg_16" fill-opacity="1"/><path fill="#b6b6b6" fill-opacity="1" stroke="#919191" stroke-opacity="1" stroke-width="2" stroke-dasharray="none" stroke-linejoin="round" stroke-linecap="butt" stroke-dashoffset="" fill-rule="nonzero" opacity="1" marker-start="" marker-mid="" marker-end="" d="M621.7517095844759,28.88965472540025 L632.0965368304898,21.993103228057635 " id="svg_14" class=""/><path fill="#b6b6b6" fill-opacity="1" stroke="#919191" stroke-opacity="1" stroke-width="5" stroke-dasharray="none" stroke-linejoin="round" stroke-linecap="butt" stroke-dashoffset="" fill-rule="nonzero" opacity="1" marker-start="" marker-mid="" marker-end="" d="M623.1999918619791,32.76321856180826 L636.5333251953125,23.76321856180826 " id="svg_15" class=""/><path fill="#919191" fill-opacity="1" stroke="#919191" stroke-opacity="1" stroke-width="5" stroke-dasharray="none" stroke-linejoin="round" stroke-linecap="butt" stroke-dashoffset="" fill-rule="nonzero" opacity="1" marker-start="" marker-mid="" marker-end="" d="M627.5333251953125,26.76321856180826 L627.5333251953125,16.42988522847493 " id="svg_18" class=""/><path fill="#b6b6b6" fill-opacity="1" stroke="#919191" stroke-opacity="1" stroke-width="5" stroke-dasharray="none" stroke-linejoin="round" stroke-linecap="butt" stroke-dashoffset="" fill-rule="nonzero" opacity="1" marker-start="" marker-mid="" marker-end="" d="M626.8666585286458,28.42988522847493 L627.8666585286458,24.42988522847493 " id="svg_20" class=""/><path fill="#484848" fill-opacity="1" stroke="#484848" stroke-opacity="1" stroke-width="2" stroke-dasharray="none" stroke-linejoin="round" stroke-linecap="butt" stroke-dashoffset="" fill-rule="nonzero" opacity="1" marker-start="" marker-mid="" marker-end="" d="M538.4672200421186,92.78099728447398 C538.4672200421186,91.18840714739272 539.1384907603506,89.89840913635692 539.9672200421186,89.89840913635692 C540.7959493238866,89.89840913635692 541.4672200421186,91.18840714739272 541.4672200421186,92.78099728447398 C541.4672200421186,94.37358742155524 540.7959493238866,95.66358543259105 539.9672200421186,95.66358543259105 C539.1384907603506,95.66358543259105 538.4672200421186,94.37358742155524 538.4672200421186,92.78099728447398 z" id="svg_23" class="" transform="rotate(-28.476511001586914 539.9672241210938,92.78098297119132) "/><path fill="#484848" fill-opacity="1" stroke="#484848" stroke-opacity="1" stroke-width="2" stroke-dasharray="none" stroke-linejoin="round" stroke-linecap="butt" stroke-dashoffset="" fill-rule="nonzero" opacity="1" marker-start="" marker-mid="" marker-end="" d="M592.133887980351,63.11432934624156 C592.133887980351,61.5217392091603 592.805158698583,60.231741198124496 593.633887980351,60.231741198124496 C594.462617262119,60.231741198124496 595.133887980351,61.5217392091603 595.133887980351,63.11432934624156 C595.133887980351,64.70691948332282 594.462617262119,65.99691749435863 593.633887980351,65.99691749435863 C592.805158698583,65.99691749435863 592.133887980351,64.70691948332282 592.133887980351,63.11432934624156 z" class="" transform="rotate(-28.476511001586914 593.6339111328125,63.11434173583989) " id="svg_30"/><path fill="#484848" fill-opacity="1" stroke="#484848" stroke-opacity="1" stroke-width="2" stroke-dasharray="none" stroke-linejoin="round" stroke-linecap="butt" stroke-dashoffset="" fill-rule="nonzero" opacity="1" marker-start="" marker-mid="" marker-end="" d="M600.4672400692792,58.78099537712535 C600.4672400692792,57.1884052400441 601.1385107875112,55.898407229008285 601.9672400692792,55.898407229008285 C602.7959693510472,55.898407229008285 603.4672400692792,57.1884052400441 603.4672400692792,58.78099537712535 C603.4672400692792,60.37358551420661 602.7959693510472,61.663583525242416 601.9672400692792,61.663583525242416 C601.1385107875112,61.663583525242416 600.4672400692792,60.37358551420661 600.4672400692792,58.78099537712535 z" class="" transform="rotate(-28.476511001586914 601.9672241210938,58.78100585937502) " id="svg_31"/><path fill="#484848" fill-opacity="1" stroke="#484848" stroke-opacity="1" stroke-width="2" stroke-dasharray="none" stroke-linejoin="round" stroke-linecap="butt" stroke-dashoffset="" fill-rule="nonzero" opacity="1" marker-start="" marker-mid="" marker-end="" d="M576.1338860730024,72.11432934624156 C576.1338860730024,70.5217392091603 576.8051567912344,69.2317411981245 577.6338860730024,69.2317411981245 C578.4626153547704,69.2317411981245 579.1338860730024,70.5217392091603 579.1338860730024,72.11432934624156 C579.1338860730024,73.70691948332282 578.4626153547704,74.99691749435863 577.6338860730024,74.99691749435863 C576.8051567912344,74.99691749435863 576.1338860730024,73.70691948332282 576.1338860730024,72.11432934624156 z" class="" transform="rotate(-28.476511001586914 577.6339111328124,72.11430358886713) " id="svg_28"/><path fill="#484848" fill-opacity="1" stroke="#484848" stroke-opacity="1" stroke-width="2" stroke-dasharray="none" stroke-linejoin="round" stroke-linecap="butt" stroke-dashoffset="" fill-rule="nonzero" opacity="1" marker-start="" marker-mid="" marker-end="" d="M583.8005740383954,67.44766331535777 C583.8005740383954,65.85507317827651 584.4718447566274,64.5650751672407 585.3005740383954,64.5650751672407 C586.1293033201634,64.5650751672407 586.8005740383954,65.85507317827651 586.8005740383954,67.44766331535777 C586.8005740383954,69.04025345243903 586.1293033201634,70.33025146347484 585.3005740383954,70.33025146347484 C584.4718447566274,70.33025146347484 583.8005740383954,69.04025345243903 583.8005740383954,67.44766331535777 z" class="" transform="rotate(-28.476511001586914 585.3005981445314,67.44765472412118) " id="svg_29"/><path fill="#484848" fill-opacity="1" stroke="#484848" stroke-opacity="1" stroke-width="2" stroke-dasharray="none" stroke-linejoin="round" stroke-linecap="butt" stroke-dashoffset="" fill-rule="nonzero" opacity="1" marker-start="" marker-mid="" marker-end="" d="M546.1338864008279,88.1143312535902 C546.1338864008279,86.52174111650893 546.8051571190599,85.23174310547313 547.6338864008279,85.23174310547313 C548.4626156825959,85.23174310547313 549.1338864008279,86.52174111650893 549.1338864008279,88.1143312535902 C549.1338864008279,89.70692139067145 548.4626156825959,90.99691940170726 547.6338864008279,90.99691940170726 C546.8051571190599,90.99691940170726 546.1338864008279,89.70692139067145 546.1338864008279,88.1143312535902 z" class="" transform="rotate(-28.476511001586914 547.6338500976562,88.11431884765628) " id="svg_27"/><rect fill="#484848" stroke="#484848" stroke-width="2" stroke-linejoin="round" stroke-dashoffset="" fill-rule="nonzero" id="svg_32" x="554.2081298828125" y="80.67532348632812" width="3.343406915664673" height="8" style="color: rgb(0, 0, 0);" class="" transform="rotate(-30.56719398498535 555.8799438476562,84.67530822753902) "/><path fill="#6d6d6d" fill-opacity="1" stroke="#a2facf" stroke-opacity="1" stroke-width="2" stroke-dasharray="none" stroke-linejoin="round" stroke-linecap="butt" stroke-dashoffset="" fill-rule="nonzero" opacity="1" marker-start="" marker-mid="" marker-end="" d="M656.8666759296704,24.72222287713747L692.4222324271263,5.8333334878638965" id="svg_17" class=""/><path fill="#6d6d6d" fill-opacity="1" stroke="#a2fa6f" stroke-opacity="1" stroke-width="2" stroke-dasharray="none" stroke-linejoin="round" stroke-linecap="butt" stroke-dashoffset="" fill-rule="nonzero" opacity="1" marker-start="" marker-mid="" marker-end="" d="M662.9777866169262,41.944444966904925 L698.5333431143822,23.055555577631353 " class="" id="svg_22"/><path fill="#6d6d6d" fill-opacity="1" stroke="#a2fa8f" stroke-opacity="1" stroke-width="2" stroke-dasharray="none" stroke-linejoin="round" stroke-linecap="butt" stroke-dashoffset="" fill-rule="nonzero" opacity="1" marker-start="" marker-mid="" marker-end="" d="M670.2000089451122,23.055554938905047 L705.7555654425682,4.166665549631475 " class="" id="svg_21"/></g></svg>