<svg xmlns="http://www.w3.org/2000/svg" xmlns:se="http://svg-edit.googlecode.com" xmlns:xlink="http://www.w3.org/1999/xlink" xmlns:dc="http://purl.org/dc/elements/1.1/" xmlns:cc="http://creativecommons.org/ns#" xmlns:rdf="http://www.w3.org/1999/02/22-rdf-syntax-ns#" xmlns:inkscape="http://www.inkscape.org/namespaces/inkscape" width="570.4285888671875" height="422.4761962890625" style="">
                                    <title>my vector image</title>
                                    <!-- Created with Vector Paint - http://www.vectorpaint.yaks.com/ https://chrome.google.com/webstore/detail/hnbpdiengicdefcjecjbnjnoifekhgdo -->
                                    <rect id="backgroundrect" width="100%" height="100%" x="0" y="0" fill="#FFFFFF" stroke="none" style="" class="" opacity="0"/>
                                <g style="" class="currentLayer"><title>Layer 1</title><rect fill="#f0b27a" stroke="#f0b27a" stroke-linejoin="round" stroke-dashoffset="" fill-rule="nonzero" id="svg_40" x="424.3478088378906" y="108.21739196777344" width="71" height="280.0869445800781" style="color: rgb(0, 0, 0);" class="" fill-opacity="1" stroke-opacity="1"/><rect fill="#99a3a4" stroke="#99a3a4" stroke-width="15" stroke-linejoin="round" stroke-dashoffset="" fill-rule="nonzero" id="svg_1" x="103.86956787109375" y="89.30435180664062" width="1" height="260" style="color: rgb(153, 163, 164);" class=""/><path fill="#8ae98a" fill-opacity="1" stroke="#8ae98a" stroke-opacity="1" stroke-width="15" stroke-dasharray="none" stroke-linejoin="round" stroke-linecap="butt" stroke-dashoffset="" fill-rule="nonzero" opacity="1" marker-start="" marker-mid="" marker-end="" d="M326.74783992767334,375.0478540956974 C326.74783992767334,345.10550483764865 350.89412765278996,320.85220193862915 380.7043594121933,320.85220193862915 C410.5145911715965,320.85220193862915 434.66087889671326,345.10550483764865 434.66087889671326,375.0478540956974 C434.66087889671326,404.99020335374615 410.5145911715965,429.24350625276566 380.7043594121933,429.24350625276566 C350.89412765278996,429.24350625276566 326.74783992767334,404.99020335374615 326.74783992767334,375.0478540956974 z" class="" id="svg_25"/><path fill="#8ae98a" fill-opacity="1" stroke="#8ae98a" stroke-opacity="1" stroke-width="15" stroke-dasharray="none" stroke-linejoin="round" stroke-linecap="butt" stroke-dashoffset="" fill-rule="nonzero" opacity="1" marker-start="" marker-mid="" marker-end="" d="M205.14783382415771,395.84785410761833 C205.14783382415771,365.9055048495696 229.29412154927434,341.6522019505501 259.1043533086777,341.6522019505501 C288.9145850680809,341.6522019505501 313.06087279319763,365.9055048495696 313.06087279319763,395.84785410761833 C313.06087279319763,425.7902033656671 288.9145850680809,450.0435062646866 259.1043533086777,450.0435062646866 C229.29412154927434,450.0435062646866 205.14783382415771,425.7902033656671 205.14783382415771,395.84785410761833 z" class="" id="svg_54"/><path fill="#8ae98a" fill-opacity="1" stroke="#8ae98a" stroke-opacity="1" stroke-width="15" stroke-dasharray="none" stroke-linejoin="round" stroke-linecap="butt" stroke-dashoffset="" fill-rule="nonzero" opacity="1" marker-start="" marker-mid="" marker-end="" d="M252.34783458709717,394.2478415071964 C252.34783458709717,364.3054922491477 276.4941223122138,340.0521893501282 306.3043540716171,340.0521893501282 C336.11458583102035,340.0521893501282 360.2608735561371,364.3054922491477 360.2608735561371,394.2478415071964 C360.2608735561371,424.1901907652452 336.11458583102035,448.4434936642647 306.3043540716171,448.4434936642647 C276.4941223122138,448.4434936642647 252.34783458709717,424.1901907652452 252.34783458709717,394.2478415071964 z" class="" id="svg_55"/><rect fill="#f7dc6f" stroke="#f7dc6f" stroke-width="10" stroke-linejoin="round" stroke-dashoffset="" fill-rule="nonzero" x="382.9550476074219" y="212.45310974121094" width="53.41120910644531" height="1.8757575750350952" style="color: rgb(249, 231, 159);" class="" id="svg_37" transform="rotate(-90.02947998046875 409.6606445312499,213.3909912109374) "/><path fill="#ffffff" fill-opacity="1" stroke="#ffffff" stroke-opacity="1" stroke-width="15" stroke-dasharray="none" stroke-linejoin="round" stroke-linecap="butt" stroke-dashoffset="" fill-rule="nonzero" opacity="1" marker-start="" marker-mid="" marker-end="" d="M385.72568488003066,247.8809446777996 C385.72568488003066,232.80287056167285 396.36612431642885,220.58963052761024 409.5024692996366,220.58963052761024 C422.63881428284435,220.58963052761024 433.27925371924255,232.80287056167285 433.27925371924255,247.8809446777996 C433.27925371924255,262.95901879392625 422.63881428284435,275.1722588279889 409.5024692996366,275.1722588279889 C396.36612431642885,275.1722588279889 385.72568488003066,262.95901879392625 385.72568488003066,247.8809446777996 z" id="svg_27" class=""/><rect fill="#f1c40f" stroke="#f1c40f" stroke-linejoin="round" stroke-dashoffset="" fill-rule="nonzero" x="340.3298034667969" y="228.6356658935547" width="12.597494125366211" height="59.74250793457031" style="color: rgb(247, 220, 111);" class="" rx="5" ry="5" fill-opacity="1" stroke-opacity="1" id="svg_20" transform="rotate(17.72900390625 346.62857055664034,258.5069274902344) "/><rect fill="#f1c40f" stroke="#f1c40f" stroke-linejoin="round" stroke-dashoffset="" fill-rule="nonzero" x="313.84332275390625" y="224.85186767578125" width="12.597494125366211" height="59.74250793457031" style="color: rgb(247, 220, 111);" class="" rx="5" ry="5" fill-opacity="1" stroke-opacity="1" transform="rotate(-4.466734409332275 320.1420593261729,254.72314453125006) " id="svg_7"/><rect fill="#f1c40f" stroke="#f1c40f" stroke-linejoin="round" stroke-dashoffset="" fill-rule="nonzero" x="276.5460205078125" y="228.6356658935547" width="12.597494125366211" height="59.74250793457031" style="color: rgb(247, 220, 111);" class="" rx="5" ry="5" fill-opacity="1" stroke-opacity="1" transform="rotate(-5.413915634155273 282.8447570800783,258.5069274902344) " id="svg_2"/><rect fill="#f4d03f" stroke="#f4d03f" stroke-linejoin="round" stroke-dashoffset="" fill-rule="nonzero" x="281.14697265625" y="234.48826599121094" width="11.823075294494629" height="56.97167205810547" style="color: rgb(247, 220, 111);" class="" rx="5" ry="5" fill-opacity="1" stroke-opacity="1" transform="rotate(-2.9605023860931396 287.0585327148426,262.9740905761727) " id="svg_6"/><rect fill="#f4d03f" stroke="#f4d03f" stroke-linejoin="round" stroke-dashoffset="" fill-rule="nonzero" x="344.3902282714844" y="239.8936767578125" width="11.823075294494629" height="56.97167205810547" style="color: rgb(247, 220, 111);" class="" rx="5" ry="5" fill-opacity="1" stroke-opacity="1" transform="rotate(8.773818969726562 350.3017578124995,268.3795166015624) " id="svg_4"/><rect fill="#f4d03f" stroke="#f4d03f" stroke-linejoin="round" stroke-dashoffset="" fill-rule="nonzero" x="297.3631896972656" y="229.08285522460938" width="11.823075294494629" height="56.97167205810547" style="color: rgb(247, 220, 111);" class="" rx="5" ry="5" fill-opacity="1" stroke-opacity="1" transform="rotate(-2.9605023860931396 303.27474975585966,257.5686950683587) " id="svg_50"/><rect fill="#f4d03f" stroke="#f4d03f" stroke-linejoin="round" stroke-dashoffset="" fill-rule="nonzero" x="323.30914306640625" y="228.00177001953125" width="11.823075294494629" height="56.97167205810547" style="color: rgb(247, 220, 111);" class="" rx="5" ry="5" fill-opacity="1" stroke-opacity="1" transform="rotate(-5.925477981567383 329.22067260742256,256.4876098632812) " id="svg_48"/><rect fill="#f4d03f" stroke="#f4d03f" stroke-linejoin="round" stroke-dashoffset="" fill-rule="nonzero" x="334.6605224609375" y="223.67745971679688" width="11.823075294494629" height="56.97167205810547" style="color: rgb(247, 220, 111);" class="" rx="5" ry="5" fill-opacity="1" stroke-opacity="1" transform="rotate(-2.9605023860931396 340.572052001954,252.16329956054702) " id="svg_43"/><rect fill="#f7dc6f" stroke="#f7dc6f" stroke-linejoin="round" stroke-dashoffset="" fill-rule="nonzero" x="308.8647766113281" y="230.9068145751953" width="11.833333015441895" height="57" style="color: rgb(247, 220, 111);" class="" rx="5" ry="5" id="svg_45"/><rect fill="#f7dc6f" stroke="#f7dc6f" stroke-linejoin="round" stroke-dashoffset="" fill-rule="nonzero" x="292.6485595703125" y="232.5284423828125" width="11.833333015441895" height="57" style="color: rgb(247, 220, 111);" class="" rx="5" ry="5" id="svg_44" transform="rotate(-6.392671585083008 298.56509399414125,261.0284423828126) "/><rect fill="#f7dc6f" stroke="#f7dc6f" stroke-linejoin="round" stroke-dashoffset="" fill-rule="nonzero" x="332.76116943359375" y="229.89329528808594" width="11.833333015441895" height="57" style="color: rgb(247, 220, 111);" class="" rx="5" ry="5" id="svg_41" transform="rotate(-8.017696380615234 338.677825927735,258.393310546875) "/><rect fill="#ec7063" stroke="#ec7063" stroke-width="15" stroke-linejoin="round" stroke-dashoffset="" fill-rule="nonzero" x="328.514404296875" y="273.6898193359375" width="26.357139587402344" height="46.833335876464844" style="color: rgb(241, 196, 15);" class="" id="svg_22" fill-opacity="1" stroke-opacity="1"/><rect fill="#ec7063" stroke="#ec7063" stroke-width="15" stroke-linejoin="round" stroke-dashoffset="" fill-rule="nonzero" x="278.514404296875" y="273.6898193359375" width="26.357139587402344" height="46.833335876464844" style="color: rgb(241, 196, 15);" class="" fill-opacity="1" stroke-opacity="1" id="svg_38"/><path fill="#ec7063" fill-opacity="1" stroke="#ec7063" stroke-opacity="1" stroke-width="15" stroke-dasharray="none" stroke-linejoin="round" stroke-linecap="butt" stroke-dashoffset="" fill-rule="nonzero" opacity="1" marker-start="" marker-mid="" marker-end="" d="M293.22719573513865,309.594594632225 C293.22719573513865,296.979491427619 304.9263327505406,286.76125783188814 319.3697117819011,286.76125783188814 C333.8130908132616,286.76125783188814 345.5122278286636,296.979491427619 345.5122278286636,309.594594632225 C345.5122278286636,322.20969783683097 333.8130908132616,332.4279314325618 319.3697117819011,332.4279314325618 C304.9263327505406,332.4279314325618 293.22719573513865,322.20969783683097 293.22719573513865,309.594594632225 z" id="svg_19" class=""/><path fill="#8ae98a" fill-opacity="1" stroke="#8ae98a" stroke-opacity="1" stroke-width="15" stroke-dasharray="none" stroke-linejoin="round" stroke-linecap="butt" stroke-dashoffset="" fill-rule="nonzero" opacity="1" marker-start="" marker-mid="" marker-end="" d="M-12.452162325382231,374.24781623482704 C-12.452162325382231,344.3054669767783 11.694125399734421,320.0521640777588 41.504357159137726,320.0521640777588 C71.314588918541,320.0521640777588 95.46087664365768,344.3054669767783 95.46087664365768,374.24781623482704 C95.46087664365768,404.1901654928758 71.314588918541,428.4434683918953 41.504357159137726,428.4434683918953 C11.694125399734421,428.4434683918953 -12.452162325382231,404.1901654928758 -12.452162325382231,374.24781623482704 z" class="" id="svg_5"/><path fill="#8ae98a" fill-opacity="1" stroke="#8ae98a" stroke-opacity="1" stroke-width="15" stroke-dasharray="none" stroke-linejoin="round" stroke-linecap="butt" stroke-dashoffset="" fill-rule="nonzero" opacity="1" marker-start="" marker-mid="" marker-end="" d="M56.347838401794434,339.8478170931339 C56.347838401794434,309.9054678350852 80.49412612691108,285.6521649360657 110.30435788631439,285.6521649360657 C140.11458964571767,285.6521649360657 164.26087737083435,309.9054678350852 164.26087737083435,339.8478170931339 C164.26087737083435,369.7901663511827 140.11458964571767,394.0434692502022 110.30435788631439,394.0434692502022 C80.49412612691108,394.0434692502022 56.347838401794434,369.7901663511827 56.347838401794434,339.8478170931339 z" class="" id="svg_10"/><path fill="#8ae98a" fill-opacity="1" stroke="#8ae98a" stroke-opacity="1" stroke-width="15" stroke-dasharray="none" stroke-linejoin="round" stroke-linecap="butt" stroke-dashoffset="" fill-rule="nonzero" opacity="1" marker-start="" marker-mid="" marker-end="" d="M497.947829246521,359.8478170931339 C497.947829246521,329.9054678350852 522.0941169716376,305.6521649360657 551.904348731041,305.6521649360657 C581.7145804904442,305.6521649360657 605.8608682155609,329.9054678350852 605.8608682155609,359.8478170931339 C605.8608682155609,389.7901663511827 581.7145804904442,414.0434692502022 551.904348731041,414.0434692502022 C522.0941169716376,414.0434692502022 497.947829246521,389.7901663511827 497.947829246521,359.8478170931339 z" class="" id="svg_21"/><path fill="#8ae98a" fill-opacity="1" stroke="#8ae98a" stroke-opacity="1" stroke-width="15" stroke-dasharray="none" stroke-linejoin="round" stroke-linecap="butt" stroke-dashoffset="" fill-rule="nonzero" opacity="1" marker-start="" marker-mid="" marker-end="" d="M479.5478277206421,400.6478163301945 C479.5478277206421,370.7054670721457 503.6941154457587,346.4521641731262 533.504347205162,346.4521641731262 C563.3145789645653,346.4521641731262 587.460866689682,370.7054670721457 587.460866689682,400.6478163301945 C587.460866689682,430.5901655882432 563.3145789645653,454.8434684872627 533.504347205162,454.8434684872627 C503.6941154457587,454.8434684872627 479.5478277206421,430.5901655882432 479.5478277206421,400.6478163301945 z" class="" id="svg_23"/><path fill="#8ae98a" fill-opacity="1" stroke="#8ae98a" stroke-opacity="1" stroke-width="15" stroke-dasharray="none" stroke-linejoin="round" stroke-linecap="butt" stroke-dashoffset="" fill-rule="nonzero" opacity="1" marker-start="" marker-mid="" marker-end="" d="M421.1478338241577,381.4478345811367 C421.1478338241577,351.50548532308795 445.29412154927434,327.25218242406845 475.1043533086777,327.25218242406845 C504.9145850680809,327.25218242406845 529.0608727931976,351.50548532308795 529.0608727931976,381.4478345811367 C529.0608727931976,411.39018383918545 504.9145850680809,435.64348673820496 475.1043533086777,435.64348673820496 C445.29412154927434,435.64348673820496 421.1478338241577,411.39018383918545 421.1478338241577,381.4478345811367 z" class="" id="svg_24"/><path fill="#8ae98a" fill-opacity="1" stroke="#8ae98a" stroke-opacity="1" stroke-width="15" stroke-dasharray="none" stroke-linejoin="round" stroke-linecap="butt" stroke-dashoffset="" fill-rule="nonzero" opacity="1" marker-start="" marker-mid="" marker-end="" d="M376.3478307723999,408.64783439040184 C376.3478307723999,378.7054851323531 400.4941184975165,354.4521822333336 430.30435025691986,354.4521822333336 C460.1145820163231,354.4521822333336 484.2608697414398,378.7054851323531 484.2608697414398,408.64783439040184 C484.2608697414398,438.5901836484506 460.1145820163231,462.8434865474701 430.30435025691986,462.8434865474701 C400.4941184975165,462.8434865474701 376.3478307723999,438.5901836484506 376.3478307723999,408.64783439040184 z" class="" id="svg_52"/><path fill="#8ae98a" fill-opacity="1" stroke="#8ae98a" stroke-opacity="1" stroke-width="15" stroke-dasharray="none" stroke-linejoin="round" stroke-linecap="butt" stroke-dashoffset="" fill-rule="nonzero" opacity="1" marker-start="" marker-mid="" marker-end="" d="M44.347838401794434,375.04781690239906 C44.347838401794434,345.1054676443503 68.49412612691108,320.8521647453308 98.30435788631439,320.8521647453308 C128.11458964571767,320.8521647453308 152.26087737083435,345.1054676443503 152.26087737083435,375.04781690239906 C152.26087737083435,404.9901661604478 128.11458964571767,429.2434690594673 98.30435788631439,429.2434690594673 C68.49412612691108,429.2434690594673 44.347838401794434,404.9901661604478 44.347838401794434,375.04781690239906 z" class="" id="svg_12"/><path fill="#8ae98a" fill-opacity="1" stroke="#8ae98a" stroke-opacity="1" stroke-width="15" stroke-dasharray="none" stroke-linejoin="round" stroke-linecap="butt" stroke-dashoffset="" fill-rule="nonzero" opacity="1" marker-start="" marker-mid="" marker-end="" d="M124.34783840179443,371.8478285372257 C124.34783840179443,341.905479279177 148.49412612691108,317.65217638015747 178.3043578863144,317.65217638015747 C208.11458964571767,317.65217638015747 232.26087737083435,341.905479279177 232.26087737083435,371.8478285372257 C232.26087737083435,401.7901777952745 208.11458964571767,426.043480694294 178.3043578863144,426.043480694294 C148.49412612691108,426.043480694294 124.34783840179443,401.7901777952745 124.34783840179443,371.8478285372257 z" class="" id="svg_13"/><rect fill="#6d6d6d" stroke="#6d6d6d" stroke-width="15" stroke-linejoin="round" stroke-dashoffset="" fill-rule="nonzero" id="svg_42" x="145.11111450195312" y="363.6666564941406" width="60" height="64.84445190429688" style="color: rgb(240, 178, 122);" class="" fill-opacity="1" stroke-opacity="1"/><rect fill="#6d6d6d" stroke="#6d6d6d" stroke-width="15" stroke-linejoin="round" stroke-dashoffset="" fill-rule="nonzero" x="383.5111083984375" y="364.4666442871094" width="60" height="64.84445190429688" style="color: rgb(240, 178, 122);" class="" id="svg_53" fill-opacity="1" stroke-opacity="1"/><rect fill="#919191" stroke="#919191" stroke-width="15" stroke-linejoin="round" stroke-dashoffset="" fill-rule="nonzero" id="svg_36" x="123.33333587646484" y="335.33331298828125" width="344" height="19" style="color: rgb(240, 178, 122);" class=""/><rect fill="#ffffff" stroke="#ffffff" stroke-width="15" stroke-linejoin="round" stroke-dashoffset="" fill-rule="nonzero" id="svg_29" x="387.0728759765625" y="256.512939453125" width="45.375728607177734" height="64.05669403076172" style="color: rgb(249, 231, 159);" class="" fill-opacity="1" stroke-opacity="1"/><rect fill="#f7dc6f" stroke="#f7dc6f" stroke-width="5" stroke-linejoin="round" stroke-dashoffset="" fill-rule="nonzero" id="svg_9" x="373.60992431640625" y="257.3625793457031" width="73.46418762207031" height="5.397877216339111" style="color: rgb(249, 231, 159);" class=""/><rect fill="#f7dc6f" stroke="#f7dc6f" stroke-linejoin="round" stroke-dashoffset="" fill-rule="nonzero" x="268.3242492675781" y="307.123046875" width="11.833333015441895" height="27.810810089111328" style="color: rgb(247, 220, 111);" class="" rx="5" ry="5" id="svg_8" transform="rotate(86.15062713623047 274.24090576171875,321.02841186523443) "/><rect fill="#f7dc6f" stroke="#f7dc6f" stroke-linejoin="round" stroke-dashoffset="" fill-rule="nonzero" x="294.9931640625" y="312.7113037109375" width="9.806671142578125" height="17.009626388549805" style="color: rgb(247, 220, 111);" class="" rx="5" ry="5" transform="rotate(97.7286148071289 299.89648437500006,321.21612548828125) " id="svg_11"/><path fill="#8a8ae9" fill-opacity="1" stroke="#8a8ae9" stroke-opacity="1" stroke-width="" stroke-dasharray="none" stroke-linejoin="round" stroke-linecap="butt" stroke-dashoffset="" fill-rule="nonzero" opacity="1" marker-start="" marker-mid="" marker-end="" d="M34,362 C34,358.1325966850829 37.13259668508287,355 41,355 C44.86740331491713,355 48,358.1325966850829 48,362 C48,365.8674033149171 44.86740331491713,369 41,369 C37.13259668508287,369 34,365.8674033149171 34,362 Z" id="svg_14" class=""/><path fill="#8a8ae9" fill-opacity="1" stroke="#8a8ae9" stroke-opacity="1" stroke-width="" stroke-dasharray="none" stroke-linejoin="round" stroke-linecap="butt" stroke-dashoffset="" fill-rule="nonzero" opacity="1" marker-start="" marker-mid="" marker-end="" d="M51.59999990463257,314 C51.59999990463257,310.1325966850829 54.73259658971544,307 58.59999990463257,307 C62.467403219549695,307 65.59999990463257,310.1325966850829 65.59999990463257,314 C65.59999990463257,317.8674033149171 62.467403219549695,321 58.59999990463257,321 C54.73259658971544,321 51.59999990463257,317.8674033149171 51.59999990463257,314 z" class="" id="svg_17"/><path fill="#8a8ae9" fill-opacity="1" stroke="#8a8ae9" stroke-opacity="1" stroke-width="" stroke-dasharray="none" stroke-linejoin="round" stroke-linecap="butt" stroke-dashoffset="" fill-rule="nonzero" opacity="1" marker-start="" marker-mid="" marker-end="" d="M109.19999694824219,378.79999923706055 C109.19999694824219,374.93259592214343 112.33259363332506,371.79999923706055 116.19999694824219,371.79999923706055 C120.06740026315931,371.79999923706055 123.19999694824219,374.93259592214343 123.19999694824219,378.79999923706055 C123.19999694824219,382.66740255197766 120.06740026315931,385.79999923706055 116.19999694824219,385.79999923706055 C112.33259363332506,385.79999923706055 109.19999694824219,382.66740255197766 109.19999694824219,378.79999923706055 z" class="" id="svg_18"/><path fill="#8a8ae9" fill-opacity="1" stroke="#8a8ae9" stroke-opacity="1" stroke-width="" stroke-dasharray="none" stroke-linejoin="round" stroke-linecap="butt" stroke-dashoffset="" fill-rule="nonzero" opacity="1" marker-start="" marker-mid="" marker-end="" d="M338.7999995946884,374.799996137619 C338.7999995946884,370.9325928227019 341.93259627977136,367.799996137619 345.7999995946884,367.799996137619 C349.66740290960547,367.799996137619 352.7999995946884,370.9325928227019 352.7999995946884,374.799996137619 C352.7999995946884,378.66739945253613 349.66740290960547,381.799996137619 345.7999995946884,381.799996137619 C341.93259627977136,381.799996137619 338.7999995946884,378.66739945253613 338.7999995946884,374.799996137619 z" class="" id="svg_56"/><path fill="#8a8ae9" fill-opacity="1" stroke="#8a8ae9" stroke-opacity="1" stroke-width="" stroke-dasharray="none" stroke-linejoin="round" stroke-linecap="butt" stroke-dashoffset="" fill-rule="nonzero" opacity="1" marker-start="" marker-mid="" marker-end="" d="M545.1999969482422,321.99999618530273 C545.1999969482422,318.1325928703856 548.3325936333251,314.99999618530273 552.1999969482422,314.99999618530273 C556.0674002631592,314.99999618530273 559.1999969482422,318.1325928703856 559.1999969482422,321.99999618530273 C559.1999969482422,325.86739950021985 556.0674002631592,328.99999618530273 552.1999969482422,328.99999618530273 C548.3325936333251,328.99999618530273 545.1999969482422,325.86739950021985 545.1999969482422,321.99999618530273 z" class="" id="svg_39"/><path fill="#8a8ae9" fill-opacity="1" stroke="#8a8ae9" stroke-opacity="1" stroke-width="" stroke-dasharray="none" stroke-linejoin="round" stroke-linecap="butt" stroke-dashoffset="" fill-rule="nonzero" opacity="1" marker-start="" marker-mid="" marker-end="" d="M538.7999954223633,390.79999446868896 C538.7999954223633,386.93259115377185 541.9325921074462,383.79999446868896 545.7999954223633,383.79999446868896 C549.6673987372803,383.79999446868896 552.7999954223633,386.93259115377185 552.7999954223633,390.79999446868896 C552.7999954223633,394.6673977836061 549.6673987372803,397.79999446868896 545.7999954223633,397.79999446868896 C541.9325921074462,397.79999446868896 538.7999954223633,394.6673977836061 538.7999954223633,390.79999446868896 z" class="" id="svg_16"/><path fill="#8a8ae9" fill-opacity="1" stroke="#8a8ae9" stroke-opacity="1" stroke-width="" stroke-dasharray="none" stroke-linejoin="round" stroke-linecap="butt" stroke-dashoffset="" fill-rule="nonzero" opacity="1" marker-start="" marker-mid="" marker-end="" d="M490.79999828338623,330.80001068115234 C490.79999828338623,326.93260736623523 493.93259496846906,323.80001068115234 497.79999828338623,323.80001068115234 C501.6674015983034,323.80001068115234 504.79999828338623,326.93260736623523 504.79999828338623,330.80001068115234 C504.79999828338623,334.66741399606946 501.6674015983034,337.80001068115234 497.79999828338623,337.80001068115234 C493.93259496846906,337.80001068115234 490.79999828338623,334.66741399606946 490.79999828338623,330.80001068115234 z" class="" id="svg_51"/><path fill="#ffffff" fill-opacity="1" stroke="#ffffff" stroke-opacity="1" stroke-width="15" stroke-dasharray="none" stroke-linejoin="round" stroke-linecap="butt" stroke-dashoffset="" fill-rule="nonzero" opacity="1" marker-start="" marker-mid="" marker-end="" d="M62.69565510307507,62.480980179164035 C62.69565510307507,39.15795731473144 81.29666287680101,20.266308794541047 104.26087000485771,20.266308794541047 C127.22507713291438,20.266308794541047 145.82608490664035,39.15795731473144 145.82608490664035,62.480980179164035 C145.82608490664035,85.80400304359662 127.22507713291438,104.69565156378701 104.26087000485771,104.69565156378701 C81.29666287680101,104.69565156378701 62.69565510307507,85.80400304359662 62.69565510307507,62.480980179164035 z" id="svg_3" class=""/><path fill="#8ae98a" fill-opacity="1" stroke="#8ae98a" stroke-opacity="1" stroke-width="15" stroke-dasharray="none" stroke-linejoin="round" stroke-linecap="butt" stroke-dashoffset="" fill-rule="nonzero" opacity="1" marker-start="" marker-mid="" marker-end="" d="M371.0869548889746,104.53136332288561 C371.0869548889746,75.13480524927456 395.7053266121094,51.32359320964964 426.0983781221525,51.32359320964964 C456.49142963219543,51.32359320964964 481.10980135533026,75.13480524927456 481.10980135533026,104.53136332288561 C481.10980135533026,133.92792139649669 456.49142963219543,157.7391334361216 426.0983781221525,157.7391334361216 C395.7053266121094,157.7391334361216 371.0869548889746,133.92792139649669 371.0869548889746,104.53136332288561 z" id="svg_15" class=""/><path fill="#8ae98a" fill-opacity="1" stroke="#8ae98a" stroke-opacity="1" stroke-width="15" stroke-dasharray="none" stroke-linejoin="round" stroke-linecap="butt" stroke-dashoffset="" fill-rule="nonzero" opacity="1" marker-start="" marker-mid="" marker-end="" d="M438.91304295984406,109.74875421777544 C438.91304295984406,80.3521961441644 463.53141468297883,56.54098410453946 493.92446619302194,56.54098410453946 C524.3175177030648,56.54098410453946 548.9358894261998,80.3521961441644 548.9358894261998,109.74875421777544 C548.9358894261998,139.14531229138652 524.3175177030648,162.95652433101142 493.92446619302194,162.95652433101142 C463.53141468297883,162.95652433101142 438.91304295984406,139.14531229138652 438.91304295984406,109.74875421777544 z" class="" id="svg_30"/><path fill="#8ae98a" fill-opacity="1" stroke="#8ae98a" stroke-opacity="1" stroke-width="15" stroke-dasharray="none" stroke-linejoin="round" stroke-linecap="butt" stroke-dashoffset="" fill-rule="nonzero" opacity="1" marker-start="" marker-mid="" marker-end="" d="M405.86957847801347,67.14006139293491 C405.86957847801347,37.74350331932385 430.48795020114824,13.932291279698916 460.8810017111914,13.932291279698916 C491.2740532212342,13.932291279698916 515.8924249443692,37.74350331932385 515.8924249443692,67.14006139293491 C515.8924249443692,96.53661946654597 491.2740532212342,120.34783150617088 460.8810017111914,120.34783150617088 C430.48795020114824,120.34783150617088 405.86957847801347,96.53661946654597 405.86957847801347,67.14006139293491 z" class="selected" id="svg_31"/></g></svg>