<svg xmlns="http://www.w3.org/2000/svg" xmlns:se="http://svg-edit.googlecode.com" xmlns:xlink="http://www.w3.org/1999/xlink" xmlns:dc="http://purl.org/dc/elements/1.1/" xmlns:cc="http://creativecommons.org/ns#" xmlns:rdf="http://www.w3.org/1999/02/22-rdf-syntax-ns#" xmlns:inkscape="http://www.inkscape.org/namespaces/inkscape" width="776" height="290" style="">                                    <title>my vector image</title>                                    <!-- Created with Vector Paint - http://www.vectorpaint.yaks.com/ https://chrome.google.com/webstore/detail/hnbpdiengicdefcjecjbnjnoifekhgdo -->                                    <rect id="backgroundrect" width="100%" height="100%" x="0" y="0" fill="#242424" stroke="#242424" style="" class="" opacity="1" fill-opacity="1" stroke-opacity="1"/>                                <g class="currentLayer" style=""><title>Layer 1</title><rect fill="#935116" stroke="#935116" stroke-linejoin="round" stroke-dashoffset="" fill-rule="nonzero" x="467.0048522949219" y="200.47027587890625" width="316.4703674316406" height="15.2666597366333" style="color: rgb(53, 165, 100);" class="" rx="6" ry="6" id="svg_22" stroke-opacity="1" fill-opacity="1" transform="rotate(-10.423064231872559 625.240051269531,208.10360717773452) "/><rect fill="#935116" stroke="#935116" stroke-linejoin="round" stroke-dashoffset="" fill-rule="nonzero" x="653.6192016601562" y="221.50502014160156" width="181.5727081298828" height="13.919038772583008" style="color: rgb(53, 165, 100);" class="" rx="6" ry="6" transform="rotate(18.04457664489746 744.4055175781253,228.4645538330076) " stroke-opacity="1" fill-opacity="1" id="svg_44"/><rect fill="#af601a" stroke="#af601a" stroke-linejoin="round" stroke-dashoffset="" fill-rule="nonzero" id="svg_10" x="138.26876831054688" y="212.80435180664062" width="382.2782897949219" height="23.68027114868164" style="color: rgb(53, 165, 100);" class="" rx="6" ry="6" transform="rotate(3.8941917419433594 329.40789794921875,224.64448547363284) " fill-opacity="1" stroke-opacity="1"/><path fill="#35a564" fill-opacity="1" stroke="#35a564" stroke-opacity="1" stroke-width="1" stroke-dasharray="none" stroke-linejoin="round" stroke-linecap="butt" stroke-dashoffset="" fill-rule="nonzero" opacity="1" marker-start="" marker-mid="" marker-end="" d="M355.52276832425855,196.29654017721634 C355.52276832425855,180.74427901122635 357.30945889515533,152.5082787681593 364.0470109581298,152.5082787681593 C370.7845630211044,152.5082787681593 372.97911176143,181.3457655170065 372.97911176143,196.8980266829965 C372.97911176143,212.45028784898648 370.7845630211044,208.8074720083755 364.0470109581298,208.8074720083755 C357.30945889515533,208.8074720083755 355.52276832425855,211.84880134320633 355.52276832425855,196.29654017721634 z" class="" id="svg_29" transform="rotate(47.027008056640625 364.2509460449219,180.8432464599609) "/><path fill="#35a564" fill-opacity="1" stroke="#35a564" stroke-opacity="1" stroke-width="1" stroke-dasharray="none" stroke-linejoin="round" stroke-linecap="butt" stroke-dashoffset="" fill-rule="nonzero" opacity="1" marker-start="" marker-mid="" marker-end="" d="M324.76674620845915,208.9785455781217 C324.76674620845915,199.7127339046882 327.6693192844873,182.89013442086406 338.6148280003655,182.89013442086406 C349.5603367162436,182.89013442086406 353.1254969020409,200.07109084244706 353.1254969020409,209.33690251588058 C353.1254969020409,218.60271418931407 349.5603367162436,216.43237733733818 338.6148280003655,216.43237733733818 C327.6693192844873,216.43237733733818 324.76674620845915,218.2443572515552 324.76674620845915,208.9785455781217 z" class="" id="svg_20"/><path fill="#58d68d" fill-opacity="1" stroke="#58d68d" stroke-opacity="1" stroke-width="1" stroke-dasharray="none" stroke-linejoin="round" stroke-linecap="butt" stroke-dashoffset="" fill-rule="nonzero" opacity="1" marker-start="" marker-mid="" marker-end="" d="M338,146.5C338,117.49448 395.38832,76.57143 456.71429,76.57143C518.04026,76.57143 600,140.49448 600,169.5C600,198.50552 461.32597,194 400,194C338.67403,194 338,175.50552 338,146.5z" id="svg_7" class=""/><path fill="#35a564" fill-opacity="1" stroke="#35a564" stroke-opacity="1" stroke-width="1" stroke-dasharray="none" stroke-linejoin="round" stroke-linecap="butt" stroke-dashoffset="" fill-rule="nonzero" opacity="1" marker-start="" marker-mid="" marker-end="" d="M263,129.5 C263,118.72651933701655 272.3977900552486,110 284,110 C295.6022099447514,110 305,118.72651933701655 305,129.5 C305,140.27348066298342 295.6022099447514,149 284,149 C272.3977900552486,149 263,140.27348066298342 263,129.5 z" class="" id="svg_18"/><path fill="#58d68d" fill-opacity="1" stroke="#58d68d" stroke-opacity="1" stroke-width="1" stroke-dasharray="none" stroke-linejoin="round" stroke-linecap="butt" stroke-dashoffset="" fill-rule="nonzero" opacity="1" marker-start="" marker-mid="" marker-end="" d="M298.33416,140.57765C298.33416,105.97193 352.31025,53.48047 370.26067,53.48047C388.21109,53.48047 384.26706,94.54336 384.26706,129.14908C384.26706,163.7548 369.72722,191.78544 351.7768,191.78544C333.82638,191.78544 298.33416,175.18337 298.33416,140.57765z" id="svg_16" class=""/><path fill="#6d6d6d" fill-opacity="1" stroke="#6d6d6d" stroke-opacity="1" stroke-width="1" stroke-dasharray="none" stroke-linejoin="round" stroke-linecap="butt" stroke-dashoffset="" fill-rule="nonzero" opacity="1" marker-start="" marker-mid="" marker-end="" id="svg_8" d="M1102.4622804217884,20.268112268712997 " style="color: rgb(109, 109, 109);" class=""/><path fill="#58d68d" fill-opacity="1" stroke="#58d68d" stroke-opacity="1" stroke-width="1" stroke-dasharray="none" stroke-linejoin="round" stroke-linecap="butt" stroke-dashoffset="" fill-rule="nonzero" opacity="1" marker-start="" marker-mid="" marker-end="" d="M256,170C256,141.8232 295.61326,99 326,99C356.38674,99 381,121.8232 381,150C381,178.1768 356.38674,201 326,201C295.61326,201 256,198.1768 256,170z" id="svg_5" class=""/><path fill="#35a564" fill-opacity="1" stroke="#35a564" stroke-opacity="1" stroke-width="1" stroke-dasharray="none" stroke-linejoin="round" stroke-linecap="butt" stroke-dashoffset="" fill-rule="nonzero" opacity="1" marker-start="" marker-mid="" marker-end="" d="M307.59999990463257,137.15714411905827 C307.59999990463257,124.53678116678901 318.608839587612,114.31428717545094 332.19999969005585,114.31428717545094 C345.7911597924997,114.31428717545094 356.7999994754791,124.53678116678901 356.7999994754791,137.15714411905827 C356.7999994754791,149.7775070713275 345.7911597924997,160.0000010626656 332.19999969005585,160.0000010626656 C318.608839587612,160.0000010626656 307.59999990463257,149.7775070713275 307.59999990463257,137.15714411905827 z" id="svg_11" class=""/><path fill="#58d68d" fill-opacity="1" stroke="#58d68d" stroke-opacity="1" stroke-width="1" stroke-dasharray="none" stroke-linejoin="round" stroke-linecap="butt" stroke-dashoffset="" fill-rule="nonzero" opacity="1" marker-start="" marker-mid="" marker-end="" d="M555,213.18664C504,148.68079 543.24309,138 567,138C590.75691,138 610,171.33978 610,212.5C610,253.66022 583.31505,288.39535 559.55814,288.39535C535.80123,288.39535 606,277.69248 555,213.18664z" id="svg_14" class=""/><path fill="#35a564" fill-opacity="1" stroke="#35a564" stroke-opacity="1" stroke-width="1" stroke-dasharray="none" stroke-linejoin="round" stroke-linecap="butt" stroke-dashoffset="" fill-rule="nonzero" opacity="1" marker-start="" marker-mid="" marker-end="" d="M511.1710736401011,180.65720432549898 C511.1710736401011,164.74827321509605 519.5977478537254,169.17478502629285 528.2511433568145,169.17478502629285 C536.9045388599036,169.17478502629285 545.3312130735278,165.2574710138888 545.3312130735278,181.16640212429172 C545.3312130735278,197.07533323469465 536.9045388599036,226.7651136600781 528.2511433568145,226.7651136600781 C519.5977478537254,226.7651136600781 511.1710736401011,196.56613543590194 511.1710736401011,180.65720432549898 z" id="svg_21" class=""/><path fill="#35a564" fill-opacity="1" stroke="#35a564" stroke-opacity="1" stroke-width="1" stroke-dasharray="none" stroke-linejoin="round" stroke-linecap="butt" stroke-dashoffset="" fill-rule="nonzero" opacity="1" marker-start="" marker-mid="" marker-end="" d="M505.310138702473,214.00989301962142 C505.310138702473,202.51993517330882 511.90312874945994,205.71690885833522 518.6735044609436,205.71690885833522 C525.4438801724273,205.71690885833522 532.0368702194143,202.88769471686092 532.0368702194143,214.3776525631735 C532.0368702194143,225.8676104094861 525.4438801724273,247.3105548277232 518.6735044609436,247.3105548277232 C511.90312874945994,247.3105548277232 505.310138702473,225.49985086593404 505.310138702473,214.00989301962142 z" class="" id="svg_24" transform="rotate(26.166053771972656 518.6734619140625,226.30941772460935) "/><rect fill="#35a564" stroke="#35a564" stroke-linejoin="round" stroke-dashoffset="" fill-rule="nonzero" id="svg_30" x="383.118896484375" y="167.2797088623047" width="53.84614944458008" height="27.307693481445312" style="color: rgb(53, 165, 100);" class="" stroke-width="1" rx="10" ry="10" transform="rotate(14.899332046508789 410.041961669922,180.93356323242176) "/><path fill="#35a564" fill-opacity="1" stroke="#35a564" stroke-opacity="1" stroke-width="1" stroke-dasharray="none" stroke-linejoin="round" stroke-linecap="butt" stroke-dashoffset="" fill-rule="nonzero" opacity="1" marker-start="" marker-mid="" marker-end="" d="M415.0629416251474,215.90247856320008 C415.0629416251474,200.3502173972101 417.954455828391,172.11421715414303 428.8582618944891,172.11421715414303 C439.7620679605871,172.11421715414303 443.3136448008772,200.95170390299023 443.3136448008772,216.50396506898022 C443.3136448008772,232.0562262349702 439.7620679605871,228.41341039435923 428.8582618944891,228.41341039435923 C417.954455828391,228.41341039435923 415.0629416251474,231.45473972919007 415.0629416251474,215.90247856320008 z" id="svg_34" class=""/><path fill="#35a564" fill-opacity="1" stroke="#35a564" stroke-opacity="1" stroke-width="1" stroke-dasharray="none" stroke-linejoin="round" stroke-linecap="butt" stroke-dashoffset="" fill-rule="nonzero" opacity="1" marker-start="" marker-mid="" marker-end="" d="M407.76923,237.38461C407.76923,227.43986 413.1394,219.38461 419.76923,219.38461C426.39906,219.38461 414.84615,225.51678 414.84615,235.46153C414.84615,245.40628 428.70675,240.76923 422.07692,243.46153C415.44709,246.15384 407.76923,247.32936 407.76923,237.38461z" id="svg_13" class=""/><path fill="#35a564" fill-opacity="1" stroke="#35a564" stroke-opacity="1" stroke-width="1" stroke-dasharray="none" stroke-linejoin="round" stroke-linecap="butt" stroke-dashoffset="" fill-rule="nonzero" opacity="1" marker-start="" marker-mid="" marker-end="" d="M418.61539,231.61539C418.61539,221.67064 426.26541,219 430.96154,219C435.65768,219 423.94118,236.30865 426,240.07693C428.05882,243.84521 427.92011,243.64253 423.22398,243.64253C418.52785,243.64253 418.61539,241.56014 418.61539,231.61539z" id="svg_23" class=""/><path fill="#35a564" fill-opacity="1" stroke="#35a564" stroke-opacity="1" stroke-width="1" stroke-dasharray="none" stroke-linejoin="round" stroke-linecap="butt" stroke-dashoffset="" fill-rule="nonzero" opacity="1" marker-start="" marker-mid="" marker-end="" d="M429.88235,231.20589C428.70588,223.92608 435.08644,222.11765 440.05882,222.11765C445.0312,222.11765 441.41176,223.33783 441.41176,233.55883C441.41176,243.77982 440.0312,243.52941 435.94117,244.41177C431.85115,245.29412 431.05882,238.4857 429.88235,231.20589z" id="svg_27" class=""/><path fill="#35a564" fill-opacity="1" stroke="#35a564" stroke-opacity="1" stroke-width="1" stroke-dasharray="none" stroke-linejoin="round" stroke-linecap="butt" stroke-dashoffset="" fill-rule="nonzero" opacity="1" marker-start="" marker-mid="" marker-end="" d="M319.80033452936823,225.40946450689012 C319.80033452936823,215.62124226949152 322.2170015662997,207.69279071548158 325.20054070779497,207.69279071548158 C328.1840798492902,207.69279071548158 326.44674213358576,210.57855112329895 326.44674213358576,220.36677336069758 C326.44674213358576,230.15498416798408 328.9171370679878,235.73018137778575 325.9335979264926,235.73018137778575 C322.9500587849974,235.73018137778575 319.80033452936823,235.19768674428872 319.80033452936823,225.40946450689012 z" id="svg_28" class="" transform="rotate(33.70183181762695 323.6037292480468,221.71148681640625) "/><path fill="#35a564" fill-opacity="1" stroke="#35a564" stroke-opacity="1" stroke-width="1" stroke-dasharray="none" stroke-linejoin="round" stroke-linecap="butt" stroke-dashoffset="" fill-rule="nonzero" opacity="1" marker-start="" marker-mid="" marker-end="" d="M329.1043639940899,226.36184570052797 C329.1043639940899,216.57362346312937 331.5210310310214,208.64517190911943 334.50457017251665,208.64517190911943 C337.48810931401187,208.64517190911943 335.75077159830744,211.5309323169368 335.75077159830744,221.31915455433543 C335.75077159830744,231.10736536162193 338.2211665327095,236.6825625714236 335.2376273912143,236.6825625714236 C332.2540882497191,236.6825625714236 329.1043639940899,236.15006793792656 329.1043639940899,226.36184570052797 z" class="" transform="rotate(8.438295364379883 332.90774536132767,222.66387939453125) " id="svg_33"/><path fill="#35a564" fill-opacity="1" stroke="#35a564" stroke-opacity="1" stroke-width="1" stroke-dasharray="none" stroke-linejoin="round" stroke-linecap="butt" stroke-dashoffset="" fill-rule="nonzero" opacity="1" marker-start="" marker-mid="" marker-end="" d="M345.7628675737749,225.63313811426536 C345.7628675737749,216.62651036197752 348.17953461070636,209.3311496655092 351.1630737522016,209.3311496655092 C354.14661289369684,209.3311496655092 352.4092751779924,211.98648064851403 352.4092751779924,220.99310840080187 C352.4092751779924,229.99972563567775 354.8796701123945,235.12974053485135 351.89613097089926,235.12974053485135 C348.91259182940405,235.12974053485135 345.7628675737749,234.63976586655315 345.7628675737749,225.63313811426536 z" class="" transform="rotate(173.00120544433594 349.2782897949219,219.88485717773435) " id="svg_35"/><rect fill="#af601a" stroke="#af601a" stroke-linejoin="round" stroke-dashoffset="" fill-rule="nonzero" id="svg_25" x="287.1064147949219" y="222.95347595214844" width="9.734513282775879" height="32" style="color: rgb(147, 81, 22);" class="" rx="5" ry="5" transform="rotate(18.95041275024414 291.9736633300781,238.95347595214844) "/><rect fill="#af601a" stroke="#af601a" stroke-linejoin="round" stroke-dashoffset="" fill-rule="nonzero" x="184.478515625" y="149.70350646972656" width="14" height="65.1244888305664" style="color: rgb(147, 81, 22);" class="" rx="5" ry="5" id="svg_6"/><rect fill="#935116" stroke="#935116" stroke-linejoin="round" stroke-dashoffset="" fill-rule="nonzero" id="svg_26" x="616.5652465820312" y="167.0869598388672" width="13" height="40.65217208862305" style="color: rgb(147, 81, 22);" class="" rx="5" ry="5" transform="rotate(14.067569732666016 623.0652465820312,187.41302490234395) "/><path fill="#35a564" fill-opacity="1" stroke="#35a564" stroke-opacity="1" stroke-width="1" stroke-dasharray="none" stroke-linejoin="round" stroke-linecap="butt" stroke-dashoffset="" fill-rule="nonzero" opacity="1" marker-start="" marker-mid="" marker-end="" d="M610.2086851268763,154.20124550542147 C610.2086851268763,137.647705795984 611.272246238804,113.98923041844519 621.2852199522805,113.98923041844519 C631.2981936657571,113.98923041844519 639.4087026683641,127.39759441516372 639.4087026683641,143.9511341246012 C639.4087026683641,160.50467383403873 631.2981936657571,173.91303783075722 621.2852199522805,173.91303783075722 C611.272246238804,173.91303783075722 610.2086851268763,170.754785214859 610.2086851268763,154.20124550542147 z" class="" id="svg_36" transform="rotate(-25.084558486938477 624.8087158203125,143.95114135742196) "/><path fill="#35a564" fill-opacity="1" stroke="#35a564" stroke-opacity="1" stroke-width="1" stroke-dasharray="none" stroke-linejoin="round" stroke-linecap="butt" stroke-dashoffset="" fill-rule="nonzero" opacity="1" marker-start="" marker-mid="" marker-end="" d="M262.952050106658,270.6537979562004 C262.952050106658,258.66357143151276 263.72241939798187,241.52702637923562 270.97511731744123,241.52702637923562 C278.22781523690077,241.52702637923562 284.1025007651164,251.23910756960868 284.1025007651164,263.22933409429623 C284.1025007651164,275.219560618984 278.22781523690077,284.9316418093569 270.97511731744123,284.9316418093569 C263.72241939798187,284.9316418093569 262.952050106658,282.644024480888 262.952050106658,270.6537979562004 z" class="" transform="rotate(-142.81210327148438 273.52728271484375,263.2293395996094) " id="svg_41"/><path fill="#58d68d" fill-opacity="1" stroke="#58d68d" stroke-opacity="1" stroke-width="1" stroke-dasharray="none" stroke-linejoin="round" stroke-linecap="butt" stroke-dashoffset="" fill-rule="nonzero" opacity="1" marker-start="" marker-mid="" marker-end="" d="M613.1266008561719,119.84542024223414L633.9961665062322,165.4975951017408" id="svg_37" class=""/><path fill="#35a564" fill-opacity="1" stroke="#35a564" stroke-opacity="1" stroke-width="1" stroke-dasharray="none" stroke-linejoin="round" stroke-linecap="butt" stroke-dashoffset="" fill-rule="nonzero" opacity="1" marker-start="" marker-mid="" marker-end="" d="M507.95349,234.43024 C502.37209,216.75325 506.12315,224.94186 512.4767400000001,224.94186 C518.83033,224.94186 523.9767400000001,232.10208 523.9767400000001,240.94186 C523.9767400000001,249.78164 509.99312,249.5 503.63953,249.5 C497.28594,249.5 513.53489,252.10723 507.95349,234.43024 z" id="svg_40" class=""/><path fill="#484848" fill-opacity="1" stroke="#484848" stroke-opacity="1" stroke-width="1" stroke-dasharray="none" stroke-linejoin="round" stroke-linecap="butt" stroke-dashoffset="" fill-rule="nonzero" opacity="1" marker-start="" marker-mid="" marker-end="" d="M327.90697622299194,136.89534878730774 C327.90697622299194,134.40916094200387 329.9207883776881,132.39534878730774 332.40697622299194,132.39534878730774 C334.8931640682958,132.39534878730774 336.90697622299194,134.40916094200387 336.90697622299194,136.89534878730774 C336.90697622299194,139.3815366326116 334.8931640682958,141.39534878730774 332.40697622299194,141.39534878730774 C329.9207883776881,141.39534878730774 327.90697622299194,139.3815366326116 327.90697622299194,136.89534878730774 z" id="svg_38" class=""/><path fill="#35a564" fill-opacity="1" stroke="#35a564" stroke-opacity="1" stroke-width="1" stroke-dasharray="none" stroke-linejoin="round" stroke-linecap="butt" stroke-dashoffset="" fill-rule="nonzero" opacity="1" marker-start="" marker-mid="" marker-end="" d="M495.38372,233.70160339957485 C495.38372,223.7924754609955 503.89157,220.93023099470145 506.93024,220.93023099470145 C509.96891,220.93023099470145 504.88372,223.3058420595277 504.88372,233.21496999810702 C504.88372,243.12409793668633 505.78286,247.26745108036764 502.74419,247.26745108036764 C499.70552,247.26745108036764 495.38372,243.61073133815415 495.38372,233.70160339957485 z" id="svg_49" class="" transform="rotate(10.181733131408691 501.6410522460937,234.0988464355467) "/><path fill="#58d68d" fill-opacity="1" stroke="#58d68d" stroke-opacity="1" stroke-width="1" stroke-dasharray="none" stroke-linejoin="round" stroke-linecap="butt" stroke-dashoffset="" fill-rule="nonzero" opacity="1" marker-start="" marker-mid="" marker-end="" d="M528.66767,262.52309C528.66767,248.19235 540.88877,236.58444 555.97655,236.58444C571.06433,236.58444 534.35339,245.27973 534.54756,262.71727C534.74174,280.15481 571.06433,288.46175 555.97655,288.46175C540.88877,288.46175 528.66767,276.85384 528.66767,262.52309z" id="svg_32" class=""/><path fill="#35a564" fill-opacity="1" stroke="#35a564" stroke-opacity="1" stroke-width="1" stroke-dasharray="none" stroke-linejoin="round" stroke-linecap="butt" stroke-dashoffset="" fill-rule="nonzero" opacity="1" marker-start="" marker-mid="" marker-end="" d="M253.07317,177.09756C253.07317,168.81027 265.20496,171.36585 292.82927,171.36585C320.45358,171.36585 337.95122,171.7371 337.95122,180.02439C337.95122,188.31168 320.45358,179.41464 292.82927,179.41464C265.20496,179.41464 253.07317,185.38485 253.07317,177.09756z" id="svg_47" class=""/><rect fill="#935116" stroke="#935116" stroke-linejoin="round" stroke-dashoffset="" fill-rule="nonzero" x="69.92680358886719" y="91.60042572021484" width="13.62623405456543" height="98.56532287597656" style="color: rgb(3, 5, 24);" class="" rx="5" ry="5" id="svg_45" transform="rotate(27.73069190979004 76.73985290527344,140.88308715820312) "/><path fill="#35a564" fill-opacity="1" stroke="#35a564" stroke-opacity="1" stroke-width="1" stroke-dasharray="none" stroke-linejoin="round" stroke-linecap="butt" stroke-dashoffset="" fill-rule="nonzero" opacity="1" marker-start="" marker-mid="" marker-end="" d="M105.20901465300514,89.70618960059532 C105.20901465300514,66.85967043331526 106.67689824501866,34.20720934830588 120.49639545720655,34.20720934830588 C134.3158926693947,34.20720934830588 145.50968581798728,52.71288550156096 145.50968581798728,75.55940466884103 C145.50968581798728,98.40592383612137 134.3158926693947,116.91159998937621 120.49639545720655,116.91159998937621 C106.67689824501866,116.91159998937621 105.20901465300514,112.55270876787539 105.20901465300514,89.70618960059532 z" class="" transform="rotate(-127.0919189453125 125.35925292968749,75.55941009521484) " id="svg_46"/><path fill="#58d68d" fill-opacity="1" stroke="#58d68d" stroke-opacity="1" stroke-width="1" stroke-dasharray="none" stroke-linejoin="round" stroke-linecap="butt" stroke-dashoffset="" fill-rule="nonzero" opacity="1" marker-start="" marker-mid="" marker-end="" d="M99.33179366031203,94.65134111514135L150.36627474064744,56.720307879756945" id="svg_50"/><rect fill="#935116" stroke="#935116" stroke-linejoin="round" stroke-dashoffset="" fill-rule="nonzero" id="svg_3" x="42.482757568359375" y="61.06896209716797" width="18.86206817626953" height="252" style="color: rgb(3, 5, 24);" class="" rx="5" ry="5" transform="rotate(55.853904724121094 51.91379165649417,187.0689697265625) "/><path fill="#58d68d" fill-opacity="1" stroke="#58d68d" stroke-opacity="1" stroke-width="1" stroke-dasharray="none" stroke-linejoin="round" stroke-linecap="butt" stroke-dashoffset="" fill-rule="nonzero" opacity="1" marker-start="" marker-mid="" marker-end="" d="M568.77939,261.72193C570.96518,230.49069 535.9819,238.25641 553.86406,236.97436C571.74622,235.69231 572.3077,247.26718 572.3077,259.97436C572.3077,272.68154 567.38724,295.79487 553.86406,282.97436C540.34088,270.15385 566.5936,292.95317 568.77939,261.72193z" id="svg_4" class=""/><path fill="#58d68d" fill-opacity="1" stroke="#58d68d" stroke-opacity="1" stroke-width="1" stroke-dasharray="none" stroke-linejoin="round" stroke-linecap="butt" stroke-dashoffset="" fill-rule="nonzero" opacity="1" marker-start="" marker-mid="" marker-end="" d="M538.91257,261.86612C538.91257,250.54015 547.054,244.02377 556.99875,244.02377C566.9435,244.02377 543.63101,250.548 543.63101,261.87397C543.63101,273.19994 569.04731,282.79487 559.10256,282.79487C549.15781,282.79487 538.91257,273.19209 538.91257,261.86612z" id="svg_39" class=""/><path fill="#58d68d" fill-opacity="1" stroke="#58d68d" stroke-opacity="1" stroke-width="1" stroke-dasharray="none" stroke-linejoin="round" stroke-linecap="butt" stroke-dashoffset="" fill-rule="nonzero" opacity="1" marker-start="" marker-mid="" marker-end="" d="M561.94609,258.23046C561.94609,250.77189 547.86346,243.65229 554.76954,243.65229C561.67562,243.65229 567,251.04144 567,258.5C567,265.95856 563.29287,272.53908 556.38679,272.53908C549.48071,272.53908 561.94609,265.68902 561.94609,258.23046z" id="svg_54" class=""/><path fill="#58d68d" fill-opacity="1" stroke="#58d68d" stroke-opacity="1" stroke-width="1" stroke-dasharray="none" stroke-linejoin="round" stroke-linecap="butt" stroke-dashoffset="" fill-rule="nonzero" opacity="1" marker-start="" marker-mid="" marker-end="" d="M547,263.5C547,258.25138 550.35635,254 554.5,254C558.64365,254 557.08197,259.89073 557.08197,265.13934C557.08197,270.38796 558.64365,273 554.5,273C550.35635,273 547,268.74862 547,263.5z" id="svg_57" class=""/><path fill="#35a564" fill-opacity="1" stroke="#35a564" stroke-opacity="1" stroke-width="1" stroke-dasharray="none" stroke-linejoin="round" stroke-linecap="butt" stroke-dashoffset="" fill-rule="nonzero" opacity="1" marker-start="" marker-mid="" marker-end="" d="M403.13711961073903,98.87926113962975 C403.13711961073903,80.08114716290083 412.4053492728827,81.84493475821462 423.0661739393112,81.84493475821462 C433.72699860573977,81.84493475821462 443.09364589203625,81.48588269268957 443.09364589203625,100.28398893656042 C443.09364589203625,119.08209518043128 433.72699860573977,149.8940857019707 423.0661739393112,149.8940857019707 C412.4053492728827,149.8940857019707 403.13711961073903,117.67736738350061 403.13711961073903,98.87926113962975 z" id="svg_43" class="" transform="rotate(-15.469877243041992 423.11538696289045,115.84749603271487) "/><path fill="#35a564" fill-opacity="1" stroke="#35a564" stroke-opacity="1" stroke-width="1" stroke-dasharray="none" stroke-linejoin="round" stroke-linecap="butt" stroke-dashoffset="" fill-rule="nonzero" opacity="1" marker-start="" marker-mid="" marker-end="" d="M453.04914553923635,95.00829327463951 C453.04914553923635,76.2101792979106 462.31737520138,77.97396689322439 472.97819986780854,77.97396689322439 C483.6390245342371,77.97396689322439 493.00567182053356,77.61491482769934 493.00567182053356,96.41302107157018 C493.00567182053356,115.21112731544105 483.6390245342371,146.02311783698048 472.97819986780854,146.02311783698048 C462.31737520138,146.02311783698048 453.04914553923635,113.80639951851037 453.04914553923635,95.00829327463951 z" class="" transform="rotate(11.85013484954834 473.0274047851563,111.97652435302717) " id="svg_53"/><path fill="#35a564" fill-opacity="1" stroke="#35a564" stroke-opacity="1" stroke-width="1" stroke-dasharray="none" stroke-linejoin="round" stroke-linecap="butt" stroke-dashoffset="" fill-rule="nonzero" opacity="1" marker-start="" marker-mid="" marker-end="" d="M503.75450235409863,110.39880908603281 C503.75450235409863,96.44016618033949 513.0227320162423,97.74987635844327 523.6835566826709,97.74987635844327 C534.3443813490993,97.74987635844327 543.7110286353958,97.48326027273275 543.7110286353958,111.44189743634978 C543.7110286353958,125.40053459996683 534.3443813490993,148.2801475992395 523.6835566826709,148.2801475992395 C513.0227320162423,148.2801475992395 503.75450235409863,124.35744624964987 503.75450235409863,110.39880908603281 z" class="" transform="rotate(29.692325592041016 523.7327880859375,122.99865722656244) " id="svg_55"/><path fill="#58d68d" fill-opacity="1" stroke="#58d68d" stroke-opacity="1" stroke-width="1" stroke-dasharray="none" stroke-linejoin="round" stroke-linecap="butt" stroke-dashoffset="" fill-rule="nonzero" opacity="1" marker-start="" marker-mid="" marker-end="" d="M265.21561886903254,276.4324257098995L285.21561861128276,251.56756116548036" id="svg_1"/></g><defs><filter id="f034" inkscape:label="Organic" x="0" y="0" width="1" height="1" inkscape:menu="Textures" inkscape:menu-tooltip="Bulging, knotty, slick 3D surface" color-interpolation-filters="sRGB">
            <feTurbulence numOctaves="3" baseFrequency=".037" result="result0"/>
            <feSpecularLighting specularExponent="24.3" surfaceScale="2" specularConstant="1" result="result1">
                <feDistantLight elevation="45" azimuth="225"/>
            </feSpecularLighting>
            <feDiffuseLighting in="result0" surfaceScale="3" diffuseConstant="1.21">
                <feDistantLight azimuth="225" elevation="42"/>
            </feDiffuseLighting>
            <feBlend in2="SourceGraphic" mode="multiply" result="result91"/>
            <feComposite operator="arithmetic" in="result1" k2="1" k3="1" in2="result91"/>
            <feComposite in2="SourceAlpha" operator="in" result="result2"/>
        </filter><linearGradient id="svg_15" spreadMethod="pad"><stop stop-color="#ffffff" stop-opacity="1" offset="0"/><stop stop-color="#000000" stop-opacity="1" offset="1"/></linearGradient><linearGradient id="svg_17" spreadMethod="pad" x1="0.0" y1="0.0" x2="1" y2="0.0"><stop stop-color="#ffffff" stop-opacity="1" offset="0"/><stop stop-color="#000000" stop-opacity="1" offset="1"/></linearGradient><linearGradient id="svg_19" spreadMethod="reflect"><stop stop-color="#dadada" stop-opacity="1" offset="0"/><stop stop-color="#252525" stop-opacity="1" offset="1"/></linearGradient><linearGradient id="svg_2" spreadMethod="pad" x1="0.0" y1="0.0" x2="1" y2="0.0"><stop stop-color="#dadada" stop-opacity="1" offset="0"/><stop stop-color="#252525" stop-opacity="1" offset="1"/></linearGradient></defs></svg>