<svg xmlns="http://www.w3.org/2000/svg" xmlns:se="http://svg-edit.googlecode.com" xmlns:xlink="http://www.w3.org/1999/xlink" xmlns:dc="http://purl.org/dc/elements/1.1/" xmlns:cc="http://creativecommons.org/ns#" xmlns:rdf="http://www.w3.org/1999/02/22-rdf-syntax-ns#" xmlns:inkscape="http://www.inkscape.org/namespaces/inkscape" width="225" height="151" style="">
                                    <title>my vector image</title>
                                    <!-- Created with Vector Paint - http://www.vectorpaint.yaks.com/ https://chrome.google.com/webstore/detail/hnbpdiengicdefcjecjbnjnoifekhgdo -->
                                    <rect id="backgroundrect" width="100%" height="100%" x="0" y="0" fill="#FFFFFF" stroke="none" style="" class="" opacity="0"/>
                                <g style="" class="currentLayer"><title>Layer 1</title><rect fill="#ffffff" stroke="#ffffff" stroke-width="2" stroke-linejoin="round" stroke-dashoffset="" fill-rule="nonzero" id="svg_1" x="1.000000238418579" y="1.000000238418579" width="223.47825622558594" height="149.04347229003906" style="color: rgb(236, 112, 99);" class="" rx="0" ry="0" fill-opacity="1" stroke-opacity="1"/><rect fill="#ec7063" stroke="#ec7063" stroke-width="2" stroke-linejoin="round" stroke-dashoffset="" fill-rule="nonzero" x="-5.874998569488525" y="0.8195486068725586" width="230.66575622558594" height="14.84892463684082" style="color: rgb(236, 112, 99);" class="" rx="0" ry="0" id="svg_3"/><rect fill="#ec7063" stroke="#ec7063" stroke-width="2" stroke-linejoin="round" stroke-dashoffset="" fill-rule="nonzero" x="14.125001907348633" y="32.382049560546875" width="230.66575622558594" height="14.84892463684082" style="color: rgb(236, 112, 99);" class="" rx="0" ry="0" id="svg_4"/><rect fill="#ec7063" stroke="#ec7063" stroke-width="2" stroke-linejoin="round" stroke-dashoffset="" fill-rule="nonzero" x="0.3750014305114746" y="64.25704956054688" width="230.66575622558594" height="14.84892463684082" style="color: rgb(236, 112, 99);" class="" rx="0" ry="0" id="svg_5"/><rect fill="#ec7063" stroke="#ec7063" stroke-width="2" stroke-linejoin="round" stroke-dashoffset="" fill-rule="nonzero" x="0.0625009536743164" y="99.56954956054688" width="230.66575622558594" height="15.786423683166504" style="color: rgb(236, 112, 99);" class="" rx="0" ry="0" id="svg_6"/><rect fill="#ec7063" stroke="#ec7063" stroke-width="2" stroke-linejoin="round" stroke-dashoffset="" fill-rule="nonzero" x="-0.2499990463256836" y="134.56954956054688" width="230.66575622558594" height="15.786423683166504" style="color: rgb(236, 112, 99);" class="" rx="0" ry="0" id="svg_8"/><rect fill="#5dade2" stroke="#5dade2" stroke-width="2" stroke-linejoin="round" stroke-dashoffset="" fill-rule="nonzero" id="svg_2" x="0.9472997784614563" y="0.8750000596046448" width="102.36520385742188" height="61.625003814697266" style="color: rgb(244, 208, 63);" class=""/><path fill="#ffffff" stroke="#ffffff" stroke-width="2" stroke-linejoin="round" stroke-dashoffset="" fill-rule="nonzero" marker-start="" marker-mid="" marker-end="" id="svg_9" d="M7.3633056527648755,16.531589596089653 L13.463497099339396,16.531589596089653 L15.348503196430439,10.736433231602451 L17.233510365360047,16.531589596089653 L23.33370074009595,16.531589596089653 L18.398551222900135,20.11315220007985 L20.28365485730343,25.908308564566973 L15.348503196430439,22.326648423264572 L10.413352607396014,25.908308564566973 L12.298456777718593,20.11315220007985 L7.3633056527648755,16.531589596089653 z" style="color: rgb(244, 208, 63);" class=""/><path fill="#ffffff" stroke="#ffffff" stroke-width="2" stroke-linejoin="round" stroke-dashoffset="" fill-rule="nonzero" marker-start="" marker-mid="" marker-end="" d="M7.0508056527648755,43.40658959608965 L13.150997099339392,43.40658959608965 L15.036003196430443,37.61143323160245 L16.921010365360047,43.40658959608965 L23.02120074009595,43.40658959608965 L18.08605122290014,46.98815220007985 L19.971154857303432,52.78330856456697 L15.036003196430443,49.20164842326457 L10.100852607396014,52.78330856456697 L11.985956777718592,46.98815220007985 L7.0508056527648755,43.40658959608965 z" style="color: rgb(244, 208, 63);" class="" id="svg_7"/><path fill="#ffffff" stroke="#ffffff" stroke-width="2" stroke-linejoin="round" stroke-dashoffset="" fill-rule="nonzero" marker-start="" marker-mid="" marker-end="" d="M77.98830565276488,44.03158959608965 L84.08849709933939,44.03158959608965 L85.97350319643044,38.23643323160245 L87.85851036536005,44.03158959608965 L93.95870074009595,44.03158959608965 L89.02355122290014,47.61315220007985 L90.90865485730343,53.408308564566966 L85.97350319643044,49.82664842326457 L81.038352607396,53.408308564566966 L82.9234567777186,47.61315220007985 L77.98830565276488,44.03158959608965 z" style="color: rgb(244, 208, 63);" class="" id="svg_10"/><path fill="#ffffff" stroke="#ffffff" stroke-width="2" stroke-linejoin="round" stroke-dashoffset="" fill-rule="nonzero" marker-start="" marker-mid="" marker-end="" d="M30.80080565276488,43.406589596089646 L36.90099709933939,43.406589596089646 L38.78600319643044,37.61143323160245 L40.67101036536005,43.406589596089646 L46.77120074009595,43.406589596089646 L41.83605122290014,46.98815220007985 L43.72115485730343,52.783308564566966 L38.78600319643044,49.20164842326457 L33.85085260739601,52.783308564566966 L35.7359567777186,46.98815220007985 L30.80080565276488,43.406589596089646 z" style="color: rgb(244, 208, 63);" class="" id="svg_11"/><path fill="#ffffff" stroke="#ffffff" stroke-width="2" stroke-linejoin="round" stroke-dashoffset="" fill-rule="nonzero" marker-start="" marker-mid="" marker-end="" d="M53.61330565276488,43.71908959608965 L59.71349709933939,43.71908959608965 L61.59850319643044,37.92393323160245 L63.48351036536005,43.71908959608965 L69.58370074009595,43.71908959608965 L64.64855122290014,47.30065220007985 L66.53365485730343,53.095808564566966 L61.59850319643044,49.51414842326457 L56.663352607396014,53.095808564566966 L58.54845677771859,47.30065220007985 L53.61330565276488,43.71908959608965 z" style="color: rgb(244, 208, 63);" class="" id="svg_12"/><path fill="#ffffff" stroke="#ffffff" stroke-width="2" stroke-linejoin="round" stroke-dashoffset="" fill-rule="nonzero" marker-start="" marker-mid="" marker-end="" d="M31.11330565276488,15.906589596089653 L37.21349709933939,15.906589596089653 L39.09850319643044,10.111433231602447 L40.98351036536005,15.906589596089653 L47.08370074009595,15.906589596089653 L42.14855122290014,19.488152200079853 L44.03365485730343,25.283308564566966 L39.09850319643044,21.701648423264572 L34.16335260739601,25.283308564566966 L36.0484567777186,19.488152200079853 L31.11330565276488,15.906589596089653 z" style="color: rgb(244, 208, 63);" class="" id="svg_13"/><path fill="#ffffff" stroke="#ffffff" stroke-width="2" stroke-linejoin="round" stroke-dashoffset="" fill-rule="nonzero" marker-start="" marker-mid="" marker-end="" d="M53.92580565276488,16.21908768874102 L60.02599709933939,16.21908768874102 L61.91100319643044,10.423931324253815 L63.79601036536005,16.21908768874102 L69.89620074009595,16.21908768874102 L64.96105122290014,19.80065029273122 L66.84615485730343,25.59580665721834 L61.91100319643044,22.01414651591594 L56.975852607396014,25.59580665721834 L58.86095677771859,19.80065029273122 L53.92580565276488,16.21908768874102 z" style="color: rgb(244, 208, 63);" class="" id="svg_14"/><path fill="#ffffff" stroke="#ffffff" stroke-width="2" stroke-linejoin="round" stroke-dashoffset="" fill-rule="nonzero" marker-start="" marker-mid="" marker-end="" d="M77.98830565276488,16.219085781392387 L84.08849709933939,16.219085781392387 L85.97350319643044,10.423929416905182 L87.85851036536005,16.219085781392387 L93.95870074009595,16.219085781392387 L89.02355122290014,19.800648385382587 L90.90865485730343,25.595804749869707 L85.97350319643044,22.014144608567307 L81.038352607396,25.595804749869707 L82.9234567777186,19.800648385382587 L77.98830565276488,16.219085781392387 z" style="color: rgb(244, 208, 63);" class="" id="svg_15"/></g></svg>