<svg xmlns="http://www.w3.org/2000/svg" xmlns:se="http://svg-edit.googlecode.com" xmlns:xlink="http://www.w3.org/1999/xlink" xmlns:dc="http://purl.org/dc/elements/1.1/" xmlns:cc="http://creativecommons.org/ns#" xmlns:rdf="http://www.w3.org/1999/02/22-rdf-syntax-ns#" xmlns:inkscape="http://www.inkscape.org/namespaces/inkscape" width="737" height="150" style="">
                                    <title>my vector image</title>
                                    <!-- Created with Vector Paint - http://www.vectorpaint.yaks.com/ https://chrome.google.com/webstore/detail/hnbpdiengicdefcjecjbnjnoifekhgdo -->
                                    <rect id="backgroundrect" width="100%" height="100%" x="0" y="0" fill="#04112c" stroke="#04112c" style="" class="" fill-opacity="1" stroke-opacity="1"/>
                                <g style="" class="currentLayer"><title>Layer 1</title><path fill="#ffffff" stroke="#ffffff" stroke-width="2" stroke-linejoin="round" stroke-dashoffset="" fill-rule="nonzero" marker-start="" marker-mid="" marker-end="" id="svg_1" d="M104.65636464113538,35.273439962958946 C76.51514539938145,35.273439962958946 52.360363424650444,49.86718210165782 40.537016819032885,70.93531474001935 C35.814834550814965,68.29900270161932 30.606276966733617,66.70271948636207 25.047516150806473,66.70271948636207 C8.237642800168729,66.70271948636207 -5.7505660602739255,80.22552759083686 -10.074024801913907,98.58228704855134 C-17.453621742301976,95.66543411415341 -26.034049181085237,93.89941360794421 -35.199439263525555,93.89941360794421 C-62.6956292145196,93.89941360794421 -84.99998999979879,108.9435521556303 -84.99998999979879,127.49002842870686 C-84.99998999979879,144.2313724046939 -66.70745466418711,157.99429932003238 -42.944184671720535,160.5402995732935 C-44.009227307721495,162.3473332748265 -44.835353056910755,164.13680115189118 -44.835353056910755,166.03367375041148 C-44.835353056910755,183.79092925380428 3.8143356956638144,198.27343430665155 63.77128259912726,198.27343430665155 C123.7282196507542,198.27343430665155 172.37797736618433,183.79091940196759 172.3779182551653,166.03367375041148 C172.3779182551653,164.83890213145963 171.63635081860224,163.77266742324315 171.20720482093162,162.61156938142744 C173.8333300603975,163.2646476226027 176.43356467355744,163.9624039422775 179.31218263052318,163.9624039422775 C195.35157340448876,163.9624532014604 208.40002543362243,153.06407582057477 208.40002543362243,139.64748036533945 C208.40002543362243,126.23087505826811 195.35157340448876,115.3325666402385 179.31218263052318,115.3325666402385 C177.34659347245855,115.3325666402385 175.67522941128198,116.01150595220952 173.81880845340555,116.32317865152805 C175.44206599698288,110.95854827371227 176.52045787143294,105.4846511773423 176.52045787143294,99.66295469723224 C176.52045787143294,64.14847324595524 144.37305828232243,35.27345966663205 104.6563843448084,35.27345966663205 L104.65636464113538,35.273439962958946 z" style="color: rgb(0, 0, 0);" class=""/><path fill="#ffffff" stroke="#ffffff" stroke-width="2" stroke-linejoin="round" stroke-dashoffset="" fill-rule="nonzero" marker-start="" marker-mid="" marker-end="" d="M104.65636464113538,35.273439962958946 C76.51514539938145,35.273439962958946 52.360363424650444,49.86718210165782 40.537016819032885,70.93531474001935 C35.814834550814965,68.29900270161932 30.606276966733617,66.70271948636207 25.047516150806473,66.70271948636207 C8.237642800168729,66.70271948636207 -5.7505660602739255,80.22552759083686 -10.074024801913907,98.58228704855134 C-17.453621742301976,95.66543411415341 -26.034049181085237,93.89941360794421 -35.199439263525555,93.89941360794421 C-62.6956292145196,93.89941360794421 -84.99998999979879,108.9435521556303 -84.99998999979879,127.49002842870686 C-84.99998999979879,144.2313724046939 -66.70745466418711,157.99429932003238 -42.944184671720535,160.5402995732935 C-44.009227307721495,162.3473332748265 -44.835353056910755,164.13680115189118 -44.835353056910755,166.03367375041148 C-44.835353056910755,183.79092925380428 3.8143356956638144,198.27343430665155 63.77128259912726,198.27343430665155 C123.7282196507542,198.27343430665155 172.37797736618433,183.79091940196759 172.3779182551653,166.03367375041148 C172.3779182551653,164.83890213145963 171.63635081860224,163.77266742324315 171.20720482093162,162.61156938142744 C173.8333300603975,163.2646476226027 176.43356467355744,163.9624039422775 179.31218263052318,163.9624039422775 C195.35157340448876,163.9624532014604 208.40002543362243,153.06407582057477 208.40002543362243,139.64748036533945 C208.40002543362243,126.23087505826811 195.35157340448876,115.3325666402385 179.31218263052318,115.3325666402385 C177.34659347245855,115.3325666402385 175.67522941128198,116.01150595220952 173.81880845340555,116.32317865152805 C175.44206599698288,110.95854827371227 176.52045787143294,105.4846511773423 176.52045787143294,99.66295469723224 C176.52045787143294,64.14847324595524 144.37305828232243,35.27345966663205 104.6563843448084,35.27345966663205 L104.65636464113538,35.273439962958946 z" style="color: rgb(0, 0, 0);" class="" id="svg_8"/><path fill="#ffffff" stroke="#ffffff" stroke-width="2" stroke-linejoin="round" stroke-dashoffset="" fill-rule="nonzero" marker-start="" marker-mid="" marker-end="" d="M275.6563646411354,29.273439962958946 C247.51514539938148,29.273439962958946 223.36036342465047,43.86718210165782 211.53701681903289,64.93531474001935 C206.81483455081496,62.299002701619315 201.60627696673362,60.70271948636207 196.04751615080647,60.70271948636207 C179.23764280016871,60.70271948636207 165.2494339397261,74.22552759083686 160.9259751980861,92.58228704855134 C153.54637825769802,89.66543411415341 144.96595081891476,87.89941360794421 135.80056073647444,87.89941360794421 C108.30437078548039,87.89941360794421 86.0000100002012,102.9435521556303 86.0000100002012,121.49002842870686 C86.0000100002012,138.2313724046939 104.29254533581289,151.99429932003238 128.05581532827946,154.5402995732935 C126.99077269227851,156.3473332748265 126.16464694308925,158.13680115189118 126.16464694308925,160.03367375041148 C126.16464694308925,177.79092925380428 174.81433569566383,192.27343430665155 234.7712825991273,192.27343430665155 C294.7282196507542,192.27343430665155 343.3779773661843,177.79091940196759 343.3779182551653,160.03367375041148 C343.3779182551653,158.83890213145963 342.63635081860224,157.77266742324315 342.2072048209316,156.61156938142744 C344.8333300603975,157.2646476226027 347.43356467355744,157.9624039422775 350.3121826305232,157.9624039422775 C366.35157340448876,157.9624532014604 379.40002543362243,147.06407582057477 379.40002543362243,133.64748036533945 C379.40002543362243,120.23087505826811 366.35157340448876,109.3325666402385 350.3121826305232,109.3325666402385 C348.34659347245855,109.3325666402385 346.675229411282,110.01150595220952 344.81880845340555,110.32317865152805 C346.4420659969829,104.95854827371227 347.52045787143294,99.4846511773423 347.52045787143294,93.66295469723224 C347.52045787143294,58.148473245955245 315.3730582823224,29.27345966663205 275.65638434480843,29.27345966663205 L275.6563646411354,29.273439962958946 z" style="color: rgb(0, 0, 0);" class="" id="svg_4"/><path fill="#ffffff" stroke="#ffffff" stroke-width="2" stroke-linejoin="round" stroke-dashoffset="" fill-rule="nonzero" marker-start="" marker-mid="" marker-end="" d="M345.6563646411354,60.273439962958946 C317.5151453993815,60.273439962958946 293.3603634246505,74.86718210165782 281.5370168190329,95.93531474001935 C276.81483455081496,93.29900270161932 271.6062769667336,91.70271948636207 266.0475161508065,91.70271948636207 C249.23764280016871,91.70271948636207 235.2494339397261,105.22552759083686 230.92597519808612,123.58228704855134 C223.54637825769805,120.66543411415341 214.96595081891473,118.89941360794421 205.80056073647444,118.89941360794421 C178.3043707854804,118.89941360794421 156.0000100002012,133.9435521556303 156.0000100002012,152.49002842870686 C156.0000100002012,169.2313724046939 174.2925453358129,182.99429932003238 198.05581532827944,185.5402995732935 C196.99077269227848,187.3473332748265 196.16464694308922,189.13680115189118 196.16464694308922,191.03367375041148 C196.16464694308922,208.79092925380428 244.81433569566383,223.27343430665155 304.7712825991273,223.27343430665155 C364.7282196507542,223.27343430665155 413.3779773661843,208.79091940196759 413.3779182551653,191.03367375041148 C413.3779182551653,189.83890213145963 412.63635081860224,188.77266742324315 412.2072048209316,187.61156938142744 C414.8333300603975,188.2646476226027 417.43356467355744,188.9624039422775 420.3121826305232,188.9624039422775 C436.3515734044888,188.9624532014604 449.40002543362243,178.06407582057477 449.40002543362243,164.64748036533945 C449.40002543362243,151.2308750582681 436.3515734044888,140.3325666402385 420.3121826305232,140.3325666402385 C418.34659347245855,140.3325666402385 416.675229411282,141.01150595220952 414.81880845340555,141.32317865152805 C416.4420659969829,135.95854827371227 417.52045787143294,130.4846511773423 417.52045787143294,124.66295469723224 C417.52045787143294,89.14847324595524 385.3730582823224,60.27345966663205 345.65638434480843,60.27345966663205 L345.6563646411354,60.273439962958946 z" style="color: rgb(0, 0, 0);" class="" id="svg_5"/><path fill="#ffffff" stroke="#ffffff" stroke-width="2" stroke-linejoin="round" stroke-dashoffset="" fill-rule="nonzero" marker-start="" marker-mid="" marker-end="" d="M466.6563646411354,48.273439962958946 C438.5151453993815,48.273439962958946 414.3603634246505,62.86718210165782 402.5370168190329,83.93531474001935 C397.81483455081496,81.29900270161932 392.6062769667336,79.70271948636207 387.0475161508065,79.70271948636207 C370.2376428001687,79.70271948636207 356.2494339397261,93.22552759083686 351.9259751980861,111.58228704855134 C344.54637825769805,108.66543411415341 335.96595081891473,106.89941360794421 326.80056073647444,106.89941360794421 C299.3043707854804,106.89941360794421 277.0000100002012,121.9435521556303 277.0000100002012,140.49002842870686 C277.0000100002012,157.2313724046939 295.29254533581286,170.99429932003238 319.05581532827944,173.5402995732935 C317.9907726922785,175.3473332748265 317.1646469430892,177.13680115189118 317.1646469430892,179.03367375041148 C317.1646469430892,196.79092925380428 365.81433569566383,211.27343430665155 425.7712825991273,211.27343430665155 C485.7282196507542,211.27343430665155 534.3779773661843,196.79091940196759 534.3779182551652,179.03367375041148 C534.3779182551652,177.83890213145963 533.6363508186023,176.77266742324315 533.2072048209316,175.61156938142744 C535.8333300603974,176.2646476226027 538.4335646735574,176.9624039422775 541.3121826305232,176.9624039422775 C557.3515734044888,176.9624532014604 570.4000254336224,166.06407582057477 570.4000254336224,152.64748036533945 C570.4000254336224,139.2308750582681 557.3515734044888,128.3325666402385 541.3121826305232,128.3325666402385 C539.3465934724586,128.3325666402385 537.675229411282,129.01150595220952 535.8188084534056,129.32317865152805 C537.4420659969828,123.95854827371227 538.5204578714329,118.4846511773423 538.5204578714329,112.66295469723224 C538.5204578714329,77.14847324595524 506.3730582823224,48.27345966663205 466.65638434480843,48.27345966663205 L466.6563646411354,48.273439962958946 z" style="color: rgb(0, 0, 0);" class="" id="svg_6"/><path fill="#ffffff" stroke="#ffffff" stroke-width="2" stroke-linejoin="round" stroke-dashoffset="" fill-rule="nonzero" marker-start="" marker-mid="" marker-end="" d="M709.6563646411354,37.273439962958946 C681.5151453993815,37.273439962958946 657.3603634246505,51.86718210165782 645.5370168190329,72.93531474001935 C640.814834550815,70.29900270161932 635.6062769667336,68.70271948636207 630.0475161508065,68.70271948636207 C613.2376428001687,68.70271948636207 599.249433939726,82.22552759083686 594.9259751980861,100.58228704855134 C587.546378257698,97.66543411415341 578.9659508189147,95.89941360794421 569.8005607364744,95.89941360794421 C542.3043707854804,95.89941360794421 520.0000100002012,110.9435521556303 520.0000100002012,129.49002842870686 C520.0000100002012,146.2313724046939 538.2925453358129,159.99429932003238 562.0558153282794,162.5402995732935 C560.9907726922785,164.3473332748265 560.1646469430892,166.13680115189118 560.1646469430892,168.03367375041148 C560.1646469430892,185.79092925380428 608.8143356956639,200.27343430665155 668.7712825991273,200.27343430665155 C728.7282196507542,200.27343430665155 777.3779773661843,185.79091940196759 777.3779182551652,168.03367375041148 C777.3779182551652,166.83890213145963 776.6363508186023,165.77266742324315 776.2072048209316,164.61156938142744 C778.8333300603974,165.2646476226027 781.4335646735574,165.9624039422775 784.3121826305232,165.9624039422775 C800.3515734044888,165.9624532014604 813.4000254336224,155.06407582057477 813.4000254336224,141.64748036533945 C813.4000254336224,128.2308750582681 800.3515734044888,117.3325666402385 784.3121826305232,117.3325666402385 C782.3465934724586,117.3325666402385 780.675229411282,118.01150595220952 778.8188084534056,118.32317865152805 C780.4420659969828,112.95854827371227 781.5204578714329,107.4846511773423 781.5204578714329,101.66295469723224 C781.5204578714329,66.14847324595524 749.3730582823224,37.27345966663205 709.6563843448084,37.27345966663205 L709.6563646411354,37.273439962958946 z" style="color: rgb(0, 0, 0);" class="" id="svg_7"/></g></svg>