<svg xmlns="http://www.w3.org/2000/svg" xmlns:se="http://svg-edit.googlecode.com" xmlns:xlink="http://www.w3.org/1999/xlink" xmlns:dc="http://purl.org/dc/elements/1.1/" xmlns:cc="http://creativecommons.org/ns#" xmlns:rdf="http://www.w3.org/1999/02/22-rdf-syntax-ns#" xmlns:inkscape="http://www.inkscape.org/namespaces/inkscape" width="784" height="300" style="">
                                    <title>my vector image</title>
                                    <!-- Created with Vector Paint - http://www.vectorpaint.yaks.com/ https://chrome.google.com/webstore/detail/hnbpdiengicdefcjecjbnjnoifekhgdo -->
                                    <rect id="backgroundrect" width="100%" height="100%" x="0" y="0" fill="#04112c" stroke="#04112c" style="" class="" fill-opacity="1" stroke-opacity="1"/>
                                <g style="" class="currentLayer"><title>Layer 1</title><path fill="#ffffff" stroke="#ffffff" stroke-width="2" stroke-linejoin="round" stroke-dashoffset="" fill-rule="nonzero" marker-start="" marker-mid="" marker-end="" d="M248.13465806001966,-50.08309475650822 C219.99343881826576,-50.08309475650822 195.83865684353475,-35.489352617809345 184.01531023791722,-14.421219979447812 C179.2931279696993,-17.057532017847848 174.0845703856179,-18.653815233105092 168.52580956969075,-18.653815233105092 C151.715936219053,-18.653815233105092 137.7277273586103,-5.131007128630301 133.4042686169704,13.225752329084173 C126.02467167658233,10.30889939468625 117.44424423779901,8.542878888477048 108.27885415535866,8.542878888477048 C80.78266420436466,8.542878888477048 58.47830341908548,23.587017436163137 58.47830341908548,42.1334937092397 C58.47830341908548,58.87483768522674 76.77083875469714,72.63776460056522 100.53410874716371,75.18376485382635 C99.46906611116276,76.99079855535933 98.6429403619735,78.78026643242401 98.6429403619735,80.67713903094432 C98.6429403619735,98.43439453433712 147.29262911454816,112.91689958718439 207.24957601801157,112.91689958718439 C267.2065130696385,112.91689958718439 315.85627078506855,98.43438468250042 315.8562116740495,80.67713903094432 C315.8562116740495,79.48236741199247 315.1146442374866,78.41613270377599 314.68549823981584,77.25503466196028 C317.3116234792817,77.90811290313553 319.91185809244166,78.60586922281033 322.7904760494075,78.60586922281033 C338.8298668233731,78.60591848199323 351.8783188525067,67.70754110110761 351.8783188525067,54.290945645872284 C351.8783188525067,40.87434033880095 338.8298668233731,29.976031920771334 322.7904760494075,29.976031920771334 C320.8248868913429,29.976031920771334 319.15352283016625,30.654971232742355 317.2971018722899,30.96664393206089 C318.9203594158671,25.602013554245104 319.99875129031716,20.128116457875137 319.99875129031716,14.306419977765074 C319.99875129031716,-21.20806147351192 287.8513517012067,-50.08307505283511 248.1346777636927,-50.08307505283511 L248.13465806001966,-50.08309475650822 z" style="color: rgb(0, 0, 0);" class="" transform="rotate(179.98780822753906 205.17834472656247,31.417022705078125) " id="svg_43"/><path fill="#ffffff" stroke="#ffffff" stroke-width="2" stroke-linejoin="round" stroke-dashoffset="" fill-rule="nonzero" marker-start="" marker-mid="" marker-end="" d="M392.4824735736305,62.96038707027401 C364.3412543318766,62.96038707027401 340.1864723571456,77.55412920897288 328.363125751528,98.62226184733441 C323.6409434833101,95.98594980893438 318.43238589922873,94.38966659367713 312.8736250833016,94.38966659367713 C296.06375173266383,94.38966659367713 282.0755428722212,107.91247469815193 277.75208413058124,126.2692341558664 C270.37248719019317,123.35238122146848 261.79205975140985,121.58636071525927 252.62666966896956,121.58636071525927 C225.1304797179755,121.58636071525927 202.82611893269635,136.63049926294536 202.82611893269635,155.17697553602193 C202.82611893269635,171.91831951200896 221.118654268308,185.68124642734745 244.88192426077458,188.2272466806086 C243.81688162477363,190.03428038214156 242.99075587558437,191.82374825920624 242.99075587558437,193.72062085772654 C242.99075587558437,211.47787636111934 291.64044462815895,225.96038141396662 351.5973915316224,225.96038141396662 C411.55432858324934,225.96038141396662 460.20408629867944,211.47786650928265 460.2040271876604,193.72062085772654 C460.2040271876604,192.5258492387747 459.46245975109736,191.4596145305582 459.03331375342674,190.29851648874254 C461.6594389928926,190.95159472991776 464.25967360605256,191.64935104959255 467.1382915630183,191.64935104959255 C483.1776823369839,191.64940030877545 496.22613436611755,180.75102292788984 496.22613436611755,167.3344274726545 C496.22613436611755,153.91782216558317 483.1776823369839,143.01951374755356 467.1382915630183,143.01951374755356 C465.17270240495367,143.01951374755356 463.5013383437771,143.69845305952458 461.64491738590067,144.01012575884312 C463.268174929478,138.64549538102733 464.34656680392806,133.17159828465736 464.34656680392806,127.3499018045473 C464.34656680392806,91.83542035327031 432.1991672148175,62.96040677394711 392.48249327730355,62.96040677394711 L392.4824735736305,62.96038707027401 z" style="color: rgb(0, 0, 0);" class="" transform="rotate(179.98780822753906 349.526123046875,144.46058654785156) " id="svg_1"/><path fill="#ffffff" stroke="#ffffff" stroke-width="2" stroke-linejoin="round" stroke-dashoffset="" fill-rule="nonzero" marker-start="" marker-mid="" marker-end="" d="M149.0042015528137,78.61256154308285 C120.8629823110598,78.61256154308285 96.70820033632879,93.20630368178172 84.8848537307112,114.27443632014325 C80.16267146249328,111.63812428174322 74.95411387841193,110.04184106648597 69.39535306248479,110.04184106648597 C52.58547971184703,110.04184106648597 38.5972708514044,123.56464917096076 34.27381210976441,141.92140862867524 C26.89421516937634,139.00455569427731 18.313787730593077,137.2385351880681 9.148397648152752,137.2385351880681 C-18.3477923028413,137.2385351880681 -40.652153088120464,152.2826737357542 -40.652153088120464,170.82915000883077 C-40.652153088120464,187.5704939848178 -22.359617752508797,201.33342090015628 1.403652239957779,203.8794211534174 C0.3386096039568391,205.6864548549504 -0.4875161452324459,207.47592273201508 -0.4875161452324459,209.37279533053538 C-0.4875161452324459,227.13005083392818 48.16217260734214,241.61255588677545 108.1191195108056,241.61255588677545 C168.07605656243254,241.61255588677545 216.72581427786264,227.1300409820915 216.7257551668436,209.37279533053538 C216.7257551668436,208.17802371158353 215.98418773028055,207.11178900336705 215.55504173260994,205.95069096155135 C218.1811669720758,206.6037692027266 220.78140158523576,207.3015255224014 223.6600195422015,207.3015255224014 C239.69941031616708,207.3015747815843 252.74786234530075,196.40319740069867 252.74786234530075,182.98660194546335 C252.74786234530075,169.569996638392 239.69941031616708,158.6716882203624 223.6600195422015,158.6716882203624 C221.69443038413687,158.6716882203624 220.0230663229603,159.35062753233342 218.16664536508387,159.66230023165195 C219.7899029086612,154.29766985383617 220.86829478311125,148.8237727574662 220.86829478311125,143.00207627735614 C220.86829478311125,107.48759482607915 188.72089519400072,78.61258124675595 149.00422125648674,78.61258124675595 L149.0042015528137,78.61256154308285 z" style="color: rgb(0, 0, 0);" class="" id="svg_8" transform="rotate(179.98780822753906 106.04780578613281,160.11282348632812) "/><path fill="#ffffff" stroke="#ffffff" stroke-width="2" stroke-linejoin="round" stroke-dashoffset="" fill-rule="nonzero" marker-start="" marker-mid="" marker-end="" d="M238.56942006105726,64.69951756725277 C210.42820081930336,64.69951756725277 186.27341884457235,79.29325970595164 174.45007223895476,100.36139234431317 C169.72788997073684,97.72508030591314 164.5193323866555,96.1287970906559 158.96057157072835,96.1287970906559 C142.1506982200906,96.1287970906559 128.16248935964796,109.65160519513068 123.83903061800797,128.00836465284516 C116.4594336776199,125.09151171844724 107.87900623883664,123.32549121223803 98.71361615639631,123.32549121223803 C71.21742620540226,123.32549121223803 48.913065420123104,138.36962975992412 48.913065420123104,156.9161060330007 C48.913065420123104,173.65745000898772 67.20560075573476,187.4203769243262 90.96887074820134,189.96637717758733 C89.90382811220039,191.77341087912032 89.07770236301113,193.562878756185 89.07770236301113,195.4597513547053 C89.07770236301113,213.2170068580981 137.7273911155857,227.69951191094538 197.68433801904916,227.69951191094538 C257.6412750706761,227.69951191094538 306.2910327861062,213.2169970062614 306.2909736750872,195.4597513547053 C306.2909736750872,194.26497973575346 305.5494062385241,193.19874502753697 305.1202602408535,192.03764698572127 C307.74638548031936,192.69072522689652 310.3466200934793,193.3884815465713 313.22523805044506,193.3884815465713 C329.26462882441064,193.38853080575421 342.3130808535443,182.4901534248686 342.3130808535443,169.07355796963327 C342.3130808535443,155.65695266256193 329.26462882441064,144.75864424453232 313.22523805044506,144.75864424453232 C311.2596488923804,144.75864424453232 309.58828483120385,145.43758355650334 307.7318638733274,145.74925625582188 C309.35512141690475,140.3846258780061 310.4335132913548,134.91072878163612 310.4335132913548,129.08903230152606 C310.4335132913548,93.57455085024907 278.2861137022443,64.69953727092587 238.5694397647303,64.69953727092587 L238.56942006105726,64.69951756725277 z" style="color: rgb(0, 0, 0);" class="" transform="rotate(179.98780822753906 195.61308288574222,146.19972229003903) " id="svg_3"/><path fill="#ffffff" stroke="#ffffff" stroke-width="2" stroke-linejoin="round" stroke-dashoffset="" fill-rule="nonzero" marker-start="" marker-mid="" marker-end="" d="M536.8303052997047,29.916907150840416 C508.6890860579508,29.916907150840416 484.5343040832198,44.51064928953929 472.7109574776022,65.57878192790082 C467.9887752093843,62.942469889500785 462.78021762530295,61.34618667424354 457.2214568093758,61.34618667424354 C440.41158345873805,61.34618667424354 426.4233745982954,74.86899477871833 422.09991585665546,93.2257542364328 C414.7203189162674,90.30890130203488 406.13989147748407,88.54288079582568 396.9745013950438,88.54288079582568 C369.4783114440497,88.54288079582568 347.17395065877054,103.58701934351177 347.17395065877054,122.13349561658833 C347.17395065877054,138.87483959257537 365.4664859943822,152.63776650791385 389.2297559868488,155.18376676117498 C388.1647133508478,156.99080046270797 387.33858760165856,158.78026833977265 387.33858760165856,160.67714093829295 C387.33858760165856,178.43439644168575 435.98827635423316,192.91690149453302 495.9452232576966,192.91690149453302 C555.9021603093236,192.91690149453302 604.5519180247536,178.43438658984905 604.5518589137346,160.67714093829295 C604.5518589137346,159.4823693193411 603.8102914771716,158.41613461112462 603.3811454795009,157.2550365693089 C606.0072707189668,157.90811481048416 608.6075053321267,158.60587113015896 611.4861232890926,158.60587113015896 C627.5255140630582,158.60592038934186 640.5739660921918,147.70754300845624 640.5739660921918,134.29094755322092 C640.5739660921918,120.87434224614958 627.5255140630582,109.97603382811997 611.4861232890926,109.97603382811997 C609.520534131028,109.97603382811997 607.8491700698513,110.65497314009099 605.992749111975,110.96664583940952 C607.6160066555522,105.60201546159374 608.6943985300022,100.12811836522377 608.6943985300022,94.3064218851137 C608.6943985300022,58.79194043383672 576.5469989408917,29.91692685451352 536.8303250033778,29.91692685451352 L536.8303052997047,29.916907150840416 z" style="color: rgb(0, 0, 0);" class="" transform="rotate(179.98780822753906 493.87396240234375,111.41702270507812) " id="svg_5"/><path fill="#ffffff" stroke="#ffffff" stroke-width="2" stroke-linejoin="round" stroke-dashoffset="" fill-rule="nonzero" marker-start="" marker-mid="" marker-end="" d="M398.56942578310316,-45.7352687524799 C370.42820654134925,-45.7352687524799 346.27342456661825,-31.141526613781025 334.45007796100066,-10.073393975419492 C329.72789569278274,-12.709706013819527 324.5193381087014,-14.305989229076772 318.96057729277425,-14.305989229076772 C302.1507039421365,-14.305989229076772 288.16249508169386,-0.7831811246019811 283.8390363400539,17.573578333112494 C276.4594393996658,14.65672539871457 267.8790119608825,12.890704892505369 258.7136218784422,12.890704892505369 C231.21743192744816,12.890704892505369 208.91307114216897,27.934843440191457 208.91307114216897,46.48131971326802 C208.91307114216897,63.22266368925506 227.20560647778063,76.98559060459354 250.9688764702472,79.53159085785467 C249.90383383424626,81.33862455938765 249.077708085057,83.12809243645233 249.077708085057,85.02496503497264 C249.077708085057,102.78222053836544 297.7273968376316,117.26472559121271 357.68434374109506,117.26472559121271 C417.641280792722,117.26472559121271 466.29103850815204,102.78221068652874 466.290979397133,85.02496503497264 C466.290979397133,83.83019341602079 465.54941196057007,82.7639587078043 465.12026596289934,81.6028606659886 C467.7463912023652,82.25593890716385 470.34662581552516,82.95369522683865 473.225243772491,82.95369522683865 C489.2646345464566,82.95374448602155 502.3130865755902,72.05536710513593 502.3130865755902,58.638771649900605 C502.3130865755902,45.22216634282927 489.2646345464566,34.323857924799654 473.225243772491,34.323857924799654 C471.2596546144264,34.323857924799654 469.58829055324975,35.002797236770675 467.7318695953734,35.31446993608921 C469.3551271389506,29.949839558273425 470.43351901340066,24.475942461903458 470.43351901340066,18.654245981793395 C470.43351901340066,-16.860235469483598 438.2861194242902,-45.73524904880679 398.5694454867762,-45.73524904880679 L398.56942578310316,-45.7352687524799 z" style="color: rgb(0, 0, 0);" class="" transform="rotate(179.98780822753906 355.61309814453125,35.76484680175781) " id="svg_38"/><path fill="#ffffff" stroke="#ffffff" stroke-width="2" stroke-linejoin="round" stroke-dashoffset="" fill-rule="nonzero" marker-start="" marker-mid="" marker-end="" d="M622.9172508334572,-70.95266072025333 C594.7760315917033,-70.95266072025333 570.6212496169722,-56.35891858155446 558.7979030113547,-35.29078594319293 C554.0757207431368,-37.927097981592965 548.8671631590554,-39.52338119685021 543.3084023431283,-39.52338119685021 C526.4985289924905,-39.52338119685021 512.5103201320478,-26.00057309237542 508.1868613904079,-7.643813634660944 C500.80726445001983,-10.560666569058867 492.2268370112365,-12.326687075268069 483.0614469287962,-12.326687075268069 C455.56525697780216,-12.326687075268069 433.260896192523,2.71745147241802 433.260896192523,21.263927745494584 C433.260896192523,38.00527172148162 451.55343152813464,51.7681986368201 475.3167015206012,54.31419889008123 C474.25165888460026,56.121232591614216 473.425533135411,57.9107004686789 473.425533135411,59.8075730671992 C473.425533135411,77.564828570592 522.0752218879857,92.04733362343927 582.0321687914491,92.04733362343927 C641.989105843076,92.04733362343927 690.638863558506,77.5648187187553 690.638804447487,59.8075730671992 C690.638804447487,58.61280144824735 689.8972370109241,57.54656674003087 689.4680910132533,56.38546869821516 C692.0942162527192,57.038546939390415 694.6944508658792,57.73630325906521 697.573068822845,57.73630325906521 C713.6124595968106,57.73635251824811 726.6609116259442,46.83797513736249 726.6609116259442,33.42137968212717 C726.6609116259442,20.00477437505583 713.6124595968106,9.106465957026217 697.573068822845,9.106465957026217 C695.6074796647804,9.106465957026217 693.9361156036038,9.785405268997238 692.0796946457274,10.097077968315773 C693.7029521893046,4.732447590499987 694.7813440637547,-0.7414495058699799 694.7813440637547,-6.563145985980043 C694.7813440637547,-42.077627437257036 662.6339444746442,-70.95264101658023 622.9172705371302,-70.95264101658023 L622.9172508334572,-70.95266072025333 z" style="color: rgb(0, 0, 0);" class="" transform="rotate(179.98780822753906 579.9609375000001,10.547454833984375) " id="svg_40"/><path fill="#ffffff" stroke="#ffffff" stroke-width="2" stroke-linejoin="round" stroke-dashoffset="" fill-rule="nonzero" marker-start="" marker-mid="" marker-end="" d="M767.9172508334572,-52.202660720253334 C739.7760315917033,-52.202660720253334 715.6212496169722,-37.60891858155446 703.7979030113547,-16.54078594319293 C699.0757207431368,-19.177097981592965 693.8671631590554,-20.77338119685021 688.3084023431283,-20.77338119685021 C671.4985289924905,-20.77338119685021 657.5103201320478,-7.2505730923754195 653.1868613904079,11.106186365339056 C645.8072644500198,8.189333430941133 637.2268370112365,6.423312924731931 628.0614469287962,6.423312924731931 C600.5652569778022,6.423312924731931 578.260896192523,21.46745147241802 578.260896192523,40.013927745494584 C578.260896192523,56.75527172148162 596.5534315281346,70.5181986368201 620.3167015206012,73.06419889008123 C619.2516588846003,74.87123259161422 618.425533135411,76.6607004686789 618.425533135411,78.5575730671992 C618.425533135411,96.314828570592 667.0752218879857,110.79733362343927 727.0321687914491,110.79733362343927 C786.989105843076,110.79733362343927 835.638863558506,96.3148187187553 835.638804447487,78.5575730671992 C835.638804447487,77.36280144824735 834.8972370109241,76.29656674003087 834.4680910132533,75.13546869821516 C837.0942162527192,75.78854693939041 839.6944508658792,76.48630325906521 842.573068822845,76.48630325906521 C858.6124595968106,76.48635251824811 871.6609116259442,65.58797513736249 871.6609116259442,52.17137968212717 C871.6609116259442,38.75477437505583 858.6124595968106,27.856465957026217 842.573068822845,27.856465957026217 C840.6074796647804,27.856465957026217 838.9361156036038,28.535405268997238 837.0796946457274,28.847077968315773 C838.7029521893046,23.482447590499987 839.7813440637547,18.00855049413002 839.7813440637547,12.186854014019957 C839.7813440637547,-23.327627437257036 807.6339444746442,-52.20264101658023 767.9172705371302,-52.20264101658023 L767.9172508334572,-52.202660720253334 z" style="color: rgb(0, 0, 0);" class="" transform="rotate(179.98780822753906 724.9609374999999,29.29745483398437) " id="svg_52"/><path fill="#ffffff" stroke="#ffffff" stroke-width="2" stroke-linejoin="round" stroke-dashoffset="" fill-rule="nonzero" marker-start="" marker-mid="" marker-end="" d="M75.96073838228529,-35.300486247444496 C47.81951914053138,-35.300486247444496 23.664737165800375,-20.706744108745625 11.841390560182845,0.36138852961590917 C7.119208291964924,-2.2749235087841275 1.9106507078835193,-3.8712067240413717 -3.6481101080436247,-3.8712067240413717 C-20.457983458681383,-3.8712067240413717 -34.446192319124066,9.65160138043342 -38.76965106076398,28.008360838147894 C-46.149248001152046,25.09150790374997 -54.72967543993536,23.32548739754077 -63.89506552237572,23.32548739754077 C-91.39125547336971,23.32548739754077 -113.6956162586489,38.36962594522686 -113.6956162586489,56.91610221830342 C-113.6956162586489,73.65744619429046 -95.40308092303724,87.42037310962894 -71.63981093057066,89.96637336289007 C-72.70485356657161,91.77340706442305 -73.53097931576087,93.56287494148773 -73.53097931576087,95.45974754000804 C-73.53097931576087,113.21700304340084 -24.881290563186212,127.69950809624811 35.07565634027719,127.69950809624811 C95.03259339190413,127.69950809624811 143.68235110733417,113.21699319156414 143.68229199631514,95.45974754000804 C143.68229199631514,94.26497592105619 142.9407245597522,93.1987412128397 142.51157856208147,92.037643171024 C145.13770380154733,92.69072141219925 147.7379384147073,93.38847773187405 150.61655637167314,93.38847773187405 C166.65594714563872,93.38852699105695 179.70439917477233,82.49014961017133 179.70439917477233,69.073554154936 C179.70439917477233,55.65694884786467 166.65594714563872,44.758640429835054 150.61655637167314,44.758640429835054 C148.6509672136085,44.758640429835054 146.97960315243188,45.437579741806076 145.1231821945555,45.74925244112461 C146.74643973813272,40.384622063308825 147.82483161258278,34.91072496693886 147.82483161258278,29.089028486828795 C147.82483161258278,-6.425452964448198 115.6774320234723,-35.30046654377139 75.96075808595833,-35.30046654377139 L75.96073838228529,-35.300486247444496 z" style="color: rgb(0, 0, 0);" class="" transform="rotate(179.98780822753906 33.00442504882813,46.19963073730468) " id="svg_44"/><path fill="#ffffff" stroke="#ffffff" stroke-width="2" stroke-linejoin="round" stroke-dashoffset="" fill-rule="nonzero" marker-start="" marker-mid="" marker-end="" d="M646.3955137347633,30.7864712072369 C618.2542944930094,30.7864712072369 594.0995125182784,45.38021334593577 582.2761659126609,66.4483459842973 C577.553983644443,63.81203394589727 572.3454260603615,62.21575073064003 566.7866652444344,62.21575073064003 C549.9767918937966,62.21575073064003 535.988583033354,75.73855883511482 531.665124291714,94.09531829282929 C524.285527351326,91.17846535843137 515.7050999125427,89.41244485222217 506.53970983010237,89.41244485222217 C479.0435198791083,89.41244485222217 456.73915909382913,104.45658339990825 456.73915909382913,123.00305967298482 C456.73915909382913,139.74440364897185 475.0316944294408,153.50733056431034 498.79496442190737,156.05333081757146 C497.7299217859064,157.86036451910445 496.90379603671715,159.64983239616913 496.90379603671715,161.54670499468943 C496.90379603671715,179.30396049808223 545.5534847892918,193.7864655509295 605.5104316927552,193.7864655509295 C665.4673687443822,193.7864655509295 714.1171264598122,179.30395064624554 714.1170673487932,161.54670499468943 C714.1170673487932,160.3519333757376 713.3754999122302,159.2856986675211 712.9463539145595,158.1246006257054 C715.5724791540254,158.77767886688065 718.1727137671853,159.47543518655544 721.0513317241512,159.47543518655544 C737.0907224981167,159.47548444573835 750.1391745272504,148.57710706485273 750.1391745272504,135.1605116096174 C750.1391745272504,121.74390630254607 737.0907224981167,110.84559788451645 721.0513317241512,110.84559788451645 C719.0857425660865,110.84559788451645 717.4143785049099,111.52453719648747 715.5579575470335,111.83620989580601 C717.1812150906107,106.47157951799022 718.2596069650608,100.99768242162025 718.2596069650608,95.17598594151019 C718.2596069650608,59.6615044902332 686.1122073759503,30.786490910909997 646.3955334384364,30.786490910909997 L646.3955137347633,30.7864712072369 z" style="color: rgb(0, 0, 0);" class="" transform="rotate(179.98780822753906 603.4392089843749,112.28659057617186) " id="svg_6"/><path fill="#ffffff" stroke="#ffffff" stroke-width="2" stroke-linejoin="round" stroke-dashoffset="" fill-rule="nonzero" marker-start="" marker-mid="" marker-end="" d="M748.0259554004127,60.732121784782066 C719.8847361586588,60.732121784782066 695.7299541839278,75.32586392348094 683.9066075783103,96.39399656184247 C679.1844253100924,93.75768452344244 673.975867726011,92.16140130818519 668.4171069100838,92.16140130818519 C651.6072335594461,92.16140130818519 637.6190246990034,105.68420941265998 633.2955659573635,124.04096887037446 C625.9159690169754,121.12411593597653 617.3355415781921,119.35809542976733 608.1701514957517,119.35809542976733 C580.6739615447577,119.35809542976733 558.3696007594785,134.40223397745342 558.3696007594785,152.94871025052998 C558.3696007594785,169.69005422651702 576.6621360950902,183.4529811418555 600.4254060875568,185.99898139511663 C599.3603634515558,187.80601509664962 598.5342377023666,189.5954829737143 598.5342377023666,191.4923555722346 C598.5342377023666,209.2496110756274 647.1839264549412,223.73211612847467 707.1408733584046,223.73211612847467 C767.0978104100316,223.73211612847467 815.7475681254616,209.2496012237907 815.7475090144426,191.4923555722346 C815.7475090144426,190.29758395328275 815.0059415778796,189.23134924506627 814.5767955802089,188.07025120325056 C817.2029208196748,188.72332944442581 819.8031554328347,189.4210857641006 822.6817733898006,189.4210857641006 C838.7211641637662,189.4211350232835 851.7696161928998,178.5227576423979 851.7696161928998,165.10616218716257 C851.7696161928998,151.68955688009123 838.7211641637662,140.79124846206162 822.6817733898006,140.79124846206162 C820.716184231736,140.79124846206162 819.0448201705593,141.47018777403264 817.188399212683,141.78186047335117 C818.8116567562602,136.4172300955354 819.8900486307102,130.94333299916542 819.8900486307102,125.12163651905536 C819.8900486307102,89.60715506777836 787.7426490415997,60.73214148845517 748.0259751040858,60.73214148845517 L748.0259554004127,60.732121784782066 z" style="color: rgb(0, 0, 0);" class="" transform="rotate(179.98780822753906 705.0695800781249,142.23239135742188) " id="svg_2"/><path fill="#5499c7" fill-opacity="1" stroke="#5499c7" stroke-opacity="1" stroke-width="2" stroke-dasharray="none" stroke-linejoin="round" stroke-linecap="butt" stroke-dashoffset="" fill-rule="nonzero" opacity="1" marker-start="" marker-mid="" marker-end="" d="M247.20689417939593,188.3170909089652 C247.20689417939593,167.57980711272856 272.83091862523526,150.78260723777686 304.46551670651843,150.78260723777686 C336.10011478780154,150.78260723777686 361.7241392336409,167.57980711272856 361.7241392336409,188.3170909089652 C361.7241392336409,209.05437470520187 336.10011478780154,225.85157458015357 304.46551670651843,225.85157458015357 C272.83091862523526,225.85157458015357 247.20689417939593,209.05437470520187 247.20689417939593,188.3170909089652 z" id="svg_4" class=""/><path fill="#5499c7" fill-opacity="1" stroke="#5499c7" stroke-opacity="1" stroke-width="2" stroke-dasharray="none" stroke-linejoin="round" stroke-linecap="butt" stroke-dashoffset="" fill-rule="nonzero" opacity="1" marker-start="" marker-mid="" marker-end="" id="svg_7" d="M153.12552112955814,228.78949605162748 " style="color: rgb(84, 153, 199);" class=""/><path fill="#5499c7" fill-opacity="1" stroke="#5499c7" stroke-opacity="1" stroke-width="2" stroke-dasharray="none" stroke-linejoin="round" stroke-linecap="butt" stroke-dashoffset="" fill-rule="nonzero" opacity="1" marker-start="" marker-mid="" marker-end="" d="M142,165.78260493278503 C142,151.97045023665243 186.97513812154696,140.78260493278503 242.5,140.78260493278503 C298.02486187845307,140.78260493278503 343,151.97045023665243 343,165.78260493278503 C343,179.59475962891764 298.02486187845307,190.78260493278503 242.5,190.78260493278503 C186.97513812154696,190.78260493278503 142,179.59475962891764 142,165.78260493278503 z" id="svg_9" class=""/><path fill="#5499c7" fill-opacity="1" stroke="#5499c7" stroke-opacity="1" stroke-width="2" stroke-dasharray="none" stroke-linejoin="round" stroke-linecap="butt" stroke-dashoffset="" fill-rule="nonzero" opacity="1" marker-start="" marker-mid="" marker-end="" d="M213,178.28260493278503 C213,168.0616104576469 221.72651933701658,159.78260493278503 232.5,159.78260493278503 C243.27348066298342,159.78260493278503 252,168.0616104576469 252,178.28260493278503 C252,188.50359940792316 243.27348066298342,196.78260493278503 232.5,196.78260493278503 C221.72651933701658,196.78260493278503 213,188.50359940792316 213,178.28260493278503 z" id="svg_12" class=""/><path fill="#5499c7" fill-opacity="1" stroke="#5499c7" stroke-opacity="1" stroke-width="2" stroke-dasharray="none" stroke-linejoin="round" stroke-linecap="butt" stroke-dashoffset="" fill-rule="nonzero" opacity="1" marker-start="" marker-mid="" marker-end="" d="M241,180.78260493278503 C241,168.07542261234306 252.6353591160221,157.78260493278503 267,157.78260493278503 C281.3646408839779,157.78260493278503 293,168.07542261234306 293,180.78260493278503 C293,193.489787253227 281.3646408839779,203.78260493278503 267,203.78260493278503 C252.6353591160221,203.78260493278503 241,193.489787253227 241,180.78260493278503 z" id="svg_10" class=""/><path fill="#5499c7" fill-opacity="1" stroke="#5499c7" stroke-opacity="1" stroke-width="2" stroke-dasharray="none" stroke-linejoin="round" stroke-linecap="butt" stroke-dashoffset="" fill-rule="nonzero" opacity="1" marker-start="" marker-mid="" marker-end="" d="M243.37570346338052,187.91515192111422 L251.2188408649452,202.03279924393064 " id="svg_13" class=""/><path fill="#5499c7" fill-opacity="1" stroke="#5499c7" stroke-opacity="1" stroke-width="2" stroke-dasharray="none" stroke-linejoin="round" stroke-linecap="butt" stroke-dashoffset="" fill-rule="nonzero" opacity="1" marker-start="" marker-mid="" marker-end="" d="M243,181.28260493278503 C243,167.1942071427298 253.7403314917127,155.78260493278503 267,155.78260493278503 C280.2596685082873,155.78260493278503 291,167.1942071427298 291,181.28260493278503 C291,195.37100272284027 280.2596685082873,206.78260493278503 267,206.78260493278503 C253.7403314917127,206.78260493278503 243,195.37100272284027 243,181.28260493278503 z" id="svg_15" class=""/><path fill="#5499c7" fill-opacity="1" stroke="#5499c7" stroke-opacity="1" stroke-width="2" stroke-dasharray="none" stroke-linejoin="round" stroke-linecap="butt" stroke-dashoffset="" fill-rule="nonzero" opacity="1" marker-start="" marker-mid="" marker-end="" d="M245,190.28260493278503 C245,183.92901377256405 249.47513812154696,178.78260493278503 255,178.78260493278503 C260.52486187845307,178.78260493278503 265,183.92901377256405 265,190.28260493278503 C265,196.63619609300605 260.52486187845307,201.78260493278503 255,201.78260493278503 C249.47513812154696,201.78260493278503 245,196.63619609300605 245,190.28260493278503 z" id="svg_17" class=""/><path fill="#5499c7" fill-opacity="1" stroke="#5499c7" stroke-opacity="1" stroke-width="2" stroke-dasharray="none" stroke-linejoin="round" stroke-linecap="butt" stroke-dashoffset="" fill-rule="nonzero" opacity="1" marker-start="" marker-mid="" marker-end="" d="M245,189.78260493278503 C245,181.4953121151055 251.26519337016575,174.78260493278503 259,174.78260493278503 C266.7348066298343,174.78260493278503 273,181.4953121151055 273,189.78260493278503 C273,198.06989775046458 266.7348066298343,204.78260493278503 259,204.78260493278503 C251.26519337016575,204.78260493278503 245,198.06989775046458 245,189.78260493278503 z" id="svg_14" class=""/><path fill="#5499c7" fill-opacity="1" stroke="#5499c7" stroke-opacity="1" stroke-width="2" stroke-dasharray="none" stroke-linejoin="round" stroke-linecap="butt" stroke-dashoffset="" fill-rule="nonzero" opacity="1" marker-start="" marker-mid="" marker-end="" d="M243,188.78260493278503 C243,181.60028449079607 250.16022099447514,175.78260493278503 259,175.78260493278503 C267.83977900552486,175.78260493278503 275,181.60028449079607 275,188.78260493278503 C275,195.964925374774 267.83977900552486,201.78260493278503 259,201.78260493278503 C250.16022099447514,201.78260493278503 243,195.964925374774 243,188.78260493278503 z" id="svg_19" class=""/><path fill="#5499c7" fill-opacity="1" stroke="#5499c7" stroke-opacity="1" stroke-width="2" stroke-dasharray="none" stroke-linejoin="round" stroke-linecap="butt" stroke-dashoffset="" fill-rule="nonzero" opacity="1" marker-start="" marker-mid="" marker-end="" d="M226,183.28260493278503 C226,176.92901377256405 231.81767955801104,171.78260493278503 239,171.78260493278503 C246.18232044198896,171.78260493278503 252,176.92901377256405 252,183.28260493278503 C252,189.63619609300605 246.18232044198896,194.78260493278503 239,194.78260493278503 C231.81767955801104,194.78260493278503 226,189.63619609300605 226,183.28260493278503 z" id="svg_22" class=""/><path fill="#5499c7" fill-opacity="1" stroke="#5499c7" stroke-opacity="1" stroke-width="2" stroke-dasharray="none" stroke-linejoin="round" stroke-linecap="butt" stroke-dashoffset="" fill-rule="nonzero" opacity="1" marker-start="" marker-mid="" marker-end="" d="M249,198.78260493278503 C249,194.91520161786792 255.4889502762431,191.78260493278503 263.5,191.78260493278503 C271.5110497237569,191.78260493278503 278,194.91520161786792 278,198.78260493278503 C278,202.65000824770215 271.5110497237569,205.78260493278503 263.5,205.78260493278503 C255.4889502762431,205.78260493278503 249,202.65000824770215 249,198.78260493278503 z" id="svg_24" class=""/><path fill="#5499c7" fill-opacity="1" stroke="#5499c7" stroke-opacity="1" stroke-width="2" stroke-dasharray="none" stroke-linejoin="round" stroke-linecap="butt" stroke-dashoffset="" fill-rule="nonzero" opacity="1" marker-start="" marker-mid="" marker-end="" d="M143,194.78260493278503 C143,180.41796404880714 157.32044198895028,168.78260493278503 175,168.78260493278503 C192.67955801104972,168.78260493278503 207,180.41796404880714 207,194.78260493278503 C207,209.14724581676296 192.67955801104972,220.78260493278503 175,220.78260493278503 C157.32044198895028,220.78260493278503 143,209.14724581676296 143,194.78260493278503 z" id="svg_26" class=""/><path fill="#5499c7" fill-opacity="1" stroke="#5499c7" stroke-opacity="1" stroke-width="2" stroke-dasharray="none" stroke-linejoin="round" stroke-linecap="butt" stroke-dashoffset="" fill-rule="nonzero" opacity="1" marker-start="" marker-mid="" marker-end="" d="M150,184.78260493278503 C150,167.65553310958063 164.76795580110496,153.78260493278503 183,153.78260493278503 C201.23204419889504,153.78260493278503 216,167.65553310958063 216,184.78260493278503 C216,201.90967675598944 201.23204419889504,215.78260493278503 183,215.78260493278503 C164.76795580110496,215.78260493278503 150,201.90967675598944 150,184.78260493278503 z" id="svg_11" class=""/><path fill="#5499c7" fill-opacity="1" stroke="#5499c7" stroke-opacity="1" stroke-width="2" stroke-dasharray="none" stroke-linejoin="round" stroke-linecap="butt" stroke-dashoffset="" fill-rule="nonzero" opacity="1" marker-start="" marker-mid="" marker-end="" d="M64,190.78260493278503 C64,174.7605054852712 91.74585635359117,161.78260493278503 126,161.78260493278503 C160.25414364640883,161.78260493278503 188,174.7605054852712 188,190.78260493278503 C188,206.80470438029886 160.25414364640883,219.78260493278503 126,219.78260493278503 C91.74585635359117,219.78260493278503 64,206.80470438029886 64,190.78260493278503 z" id="svg_16" class=""/><path fill="#5499c7" fill-opacity="1" stroke="#5499c7" stroke-opacity="1" stroke-width="2" stroke-dasharray="none" stroke-linejoin="round" stroke-linecap="butt" stroke-dashoffset="" fill-rule="nonzero" opacity="1" marker-start="" marker-mid="" marker-end="" d="M116,201.78260493278503 C116,187.41796404880714 134.1243093922652,175.78260493278503 156.5,175.78260493278503 C178.8756906077348,175.78260493278503 197,187.41796404880714 197,201.78260493278503 C197,216.14724581676296 178.8756906077348,227.78260493278503 156.5,227.78260493278503 C134.1243093922652,227.78260493278503 116,216.14724581676296 116,201.78260493278503 z" id="svg_20" class=""/><path fill="#5499c7" fill-opacity="1" stroke="#5499c7" stroke-opacity="1" stroke-width="2" stroke-dasharray="none" stroke-linejoin="round" stroke-linecap="butt" stroke-dashoffset="" fill-rule="nonzero" opacity="1" marker-start="" marker-mid="" marker-end="" d="M111,211.28260493278503 C111,204.92901377256405 120.84530386740332,199.78260493278503 133,199.78260493278503 C145.15469613259668,199.78260493278503 155,204.92901377256405 155,211.28260493278503 C155,217.63619609300605 145.15469613259668,222.78260493278503 133,222.78260493278503 C120.84530386740332,222.78260493278503 111,217.63619609300605 111,211.28260493278503 z" id="svg_18" class=""/><path fill="#5499c7" fill-opacity="1" stroke="#5499c7" stroke-opacity="1" stroke-width="2" stroke-dasharray="none" stroke-linejoin="round" stroke-linecap="butt" stroke-dashoffset="" fill-rule="nonzero" opacity="1" marker-start="" marker-mid="" marker-end="" d="M119,213.78260493278503 C119,208.257743054332 125.26519337016575,203.78260493278503 133,203.78260493278503 C140.73480662983425,203.78260493278503 147,208.257743054332 147,213.78260493278503 C147,219.3074668112381 140.73480662983425,223.78260493278503 133,223.78260493278503 C125.26519337016575,223.78260493278503 119,219.3074668112381 119,213.78260493278503 z" id="svg_25" class=""/><path fill="#5499c7" fill-opacity="1" stroke="#5499c7" stroke-opacity="1" stroke-width="2" stroke-dasharray="none" stroke-linejoin="round" stroke-linecap="butt" stroke-dashoffset="" fill-rule="nonzero" opacity="1" marker-start="" marker-mid="" marker-end="" d="M169,208.28260493278503 C169,200.82404139687344 174.146408839779,194.78260493278503 180.5,194.78260493278503 C186.853591160221,194.78260493278503 192,200.82404139687344 192,208.28260493278503 C192,215.74116846869663 186.853591160221,221.78260493278503 180.5,221.78260493278503 C174.146408839779,221.78260493278503 169,215.74116846869663 169,208.28260493278503 z" id="svg_21" class=""/><path fill="#5499c7" fill-opacity="1" stroke="#5499c7" stroke-opacity="1" stroke-width="2" stroke-dasharray="none" stroke-linejoin="round" stroke-linecap="butt" stroke-dashoffset="" fill-rule="nonzero" opacity="1" marker-start="" marker-mid="" marker-end="" d="M163,204.78260493278503 C163,195.39033973941486 170.16022099447514,187.78260493278503 179,187.78260493278503 C187.83977900552486,187.78260493278503 195,195.39033973941486 195,204.78260493278503 C195,214.1748701261552 187.83977900552486,221.78260493278503 179,221.78260493278503 C170.16022099447514,221.78260493278503 163,214.1748701261552 163,204.78260493278503 z" id="svg_27" class=""/><path fill="#5499c7" fill-opacity="1" stroke="#5499c7" stroke-opacity="1" stroke-width="2" stroke-dasharray="none" stroke-linejoin="round" stroke-linecap="butt" stroke-dashoffset="" fill-rule="nonzero" opacity="1" marker-start="" marker-mid="" marker-end="" d="M182,180.28260493278503 C182,167.2991795184204 190.27900552486187,156.78260493278503 200.5,156.78260493278503 C210.72099447513813,156.78260493278503 219,167.2991795184204 219,180.28260493278503 C219,193.2660303471497 210.72099447513813,203.78260493278503 200.5,203.78260493278503 C190.27900552486187,203.78260493278503 182,193.2660303471497 182,180.28260493278503 z" id="svg_29" class=""/><path fill="#5499c7" fill-opacity="1" stroke="#5499c7" stroke-opacity="1" stroke-width="2" stroke-dasharray="none" stroke-linejoin="round" stroke-linecap="butt" stroke-dashoffset="" fill-rule="nonzero" opacity="1" marker-start="" marker-mid="" marker-end="" d="M208,176.78260493278503 C208,164.62790880018835 218.292817679558,154.78260493278503 231,154.78260493278503 C243.707182320442,154.78260493278503 254,164.62790880018835 254,176.78260493278503 C254,188.93730106538175 243.707182320442,198.78260493278503 231,198.78260493278503 C218.292817679558,198.78260493278503 208,188.93730106538175 208,176.78260493278503 z" id="svg_32" class=""/><path fill="#5499c7" fill-opacity="1" stroke="#5499c7" stroke-opacity="1" stroke-width="2" stroke-dasharray="none" stroke-linejoin="round" stroke-linecap="butt" stroke-dashoffset="" fill-rule="nonzero" opacity="1" marker-start="" marker-mid="" marker-end="" d="M152,197.28260493278503 C152,184.8516657062657 164.08287292817678,174.78260493278503 179,174.78260493278503 C193.91712707182322,174.78260493278503 206,184.8516657062657 206,197.28260493278503 C206,209.71354415930438 193.91712707182322,219.78260493278503 179,219.78260493278503 C164.08287292817678,219.78260493278503 152,209.71354415930438 152,197.28260493278503 z" id="svg_23" class=""/><path fill="#5499c7" fill-opacity="1" stroke="#5499c7" stroke-opacity="1" stroke-width="2" stroke-dasharray="none" stroke-linejoin="round" stroke-linecap="butt" stroke-dashoffset="" fill-rule="nonzero" opacity="1" marker-start="" marker-mid="" marker-end="" d="M163,193.78260493278503 C163,178.86547786096185 171.72651933701658,166.78260493278503 182.5,166.78260493278503 C193.27348066298342,166.78260493278503 202,178.86547786096185 202,193.78260493278503 C202,208.69973200460822 193.27348066298342,220.78260493278503 182.5,220.78260493278503 C171.72651933701658,220.78260493278503 163,208.69973200460822 163,193.78260493278503 z" id="svg_31" class=""/><path fill="#5499c7" fill-opacity="1" stroke="#5499c7" stroke-opacity="1" stroke-width="2" stroke-dasharray="none" stroke-linejoin="round" stroke-linecap="butt" stroke-dashoffset="" fill-rule="nonzero" opacity="1" marker-start="" marker-mid="" marker-end="" d="M103,193.78260493278503 C103,175.55056073389 122.01933701657458,160.78260493278503 145.5,160.78260493278503 C168.98066298342542,160.78260493278503 188,175.55056073389 188,193.78260493278503 C188,212.01464913168007 168.98066298342542,226.78260493278503 145.5,226.78260493278503 C122.01933701657458,226.78260493278503 103,212.01464913168007 103,193.78260493278503 z" id="svg_35" class=""/><path fill="#5499c7" fill-opacity="1" stroke="#5499c7" stroke-opacity="1" stroke-width="2" stroke-dasharray="none" stroke-linejoin="round" stroke-linecap="butt" stroke-dashoffset="" fill-rule="nonzero" opacity="1" marker-start="" marker-mid="" marker-end="" d="M111,197.78260493278503 C111,181.20801929742592 127.55801104972376,167.78260493278503 148,167.78260493278503 C168.44198895027625,167.78260493278503 185,181.20801929742592 185,197.78260493278503 C185,214.35719056814415 168.44198895027625,227.78260493278503 148,227.78260493278503 C127.55801104972376,227.78260493278503 111,214.35719056814415 111,197.78260493278503 z" id="svg_37" class=""/><path fill="#5499c7" fill-opacity="1" stroke="#5499c7" stroke-opacity="1" stroke-width="2" stroke-dasharray="none" stroke-linejoin="round" stroke-linecap="butt" stroke-dashoffset="" fill-rule="nonzero" opacity="1" marker-start="" marker-mid="" marker-end="" d="M103,205.78260493278503 C103,196.39033973941486 119.11049723756906,188.78260493278503 139,188.78260493278503 C158.88950276243094,188.78260493278503 175,196.39033973941486 175,205.78260493278503 C175,215.1748701261552 158.88950276243094,222.78260493278503 139,222.78260493278503 C119.11049723756906,222.78260493278503 103,215.1748701261552 103,205.78260493278503 z" id="svg_28" class=""/><path fill="#5499c7" fill-opacity="1" stroke="#5499c7" stroke-opacity="1" stroke-width="2" stroke-dasharray="none" stroke-linejoin="round" stroke-linecap="butt" stroke-dashoffset="" fill-rule="nonzero" opacity="1" marker-start="" marker-mid="" marker-end="" d="M101,188.78260493278503 C101,164.47321266759167 126.95580110497238,144.78260493278503 159,144.78260493278503 C191.04419889502762,144.78260493278503 217,164.47321266759167 217,188.78260493278503 C217,213.0919971979784 191.04419889502762,232.78260493278503 159,232.78260493278503 C126.95580110497238,232.78260493278503 101,213.0919971979784 101,188.78260493278503 z" id="svg_30" class=""/><path fill="#5499c7" fill-opacity="1" stroke="#5499c7" stroke-opacity="1" stroke-width="2" stroke-dasharray="none" stroke-linejoin="round" stroke-linecap="butt" stroke-dashoffset="" fill-rule="nonzero" opacity="1" marker-start="" marker-mid="" marker-end="" d="M21,208.78260493278503 C21,193.31299167311653 43.59944751381215,180.78260493278503 71.5,180.78260493278503 C99.40055248618785,180.78260493278503 122,193.31299167311653 122,208.78260493278503 C122,224.25221819245354 99.40055248618785,236.78260493278503 71.5,236.78260493278503 C43.59944751381215,236.78260493278503 21,224.25221819245354 21,208.78260493278503 z" id="svg_33" class=""/><path fill="#5499c7" fill-opacity="1" stroke="#5499c7" stroke-opacity="1" stroke-width="2" stroke-dasharray="none" stroke-linejoin="round" stroke-linecap="butt" stroke-dashoffset="" fill-rule="nonzero" opacity="1" marker-start="" marker-mid="" marker-end="" d="M0,208.28260493278503 C0,189.22183145212205 27.074585635359114,173.78260493278503 60.5,173.78260493278503 C93.92541436464089,173.78260493278503 121,189.22183145212205 121,208.28260493278503 C121,227.34337841344802 93.92541436464089,242.78260493278503 60.5,242.78260493278503 C27.074585635359114,242.78260493278503 0,227.34337841344802 0,208.28260493278503 z" id="svg_36" class=""/><rect fill="#5499c7" stroke="#5499c7" stroke-width="2" stroke-linejoin="round" stroke-dashoffset="" fill-rule="nonzero" id="svg_41" x="116.92732238769531" y="100.35296630859375" width="69.06806945800781" height="57" style="color: rgb(84, 153, 199);" class="" rx="5" ry="5" transform="rotate(-6.526414394378662 151.46133422851597,128.85313415527364) "/><path fill="#5499c7" fill-opacity="1" stroke="#5499c7" stroke-opacity="1" stroke-width="2" stroke-dasharray="none" stroke-linejoin="round" stroke-linecap="butt" stroke-dashoffset="" fill-rule="nonzero" opacity="1" marker-start="" marker-mid="" marker-end="" d="M0.19999980926514332,191.1826045513153 C0.19999980926514332,176.26547747949212 33.98729262694469,164.1826045513153 75.69999980926514,164.1826045513153 C117.4127069915856,164.1826045513153 151.19999980926514,176.26547747949212 151.19999980926514,191.1826045513153 C151.19999980926514,206.0997316231385 117.4127069915856,218.1826045513153 75.69999980926514,218.1826045513153 C33.98729262694469,218.1826045513153 0.19999980926514332,206.0997316231385 0.19999980926514332,191.1826045513153 z" id="svg_39" class="" transform="rotate(-11.395559310913086 75.69999694824241,191.18295288085935) "/><path fill="#5499c7" fill-opacity="1" stroke="#5499c7" stroke-opacity="1" stroke-width="2" stroke-dasharray="none" stroke-linejoin="round" stroke-linecap="butt" stroke-dashoffset="" fill-rule="nonzero" opacity="1" marker-start="" marker-mid="" marker-end="" id="svg_34" d="M156.28376807638952,172.11116446582514 C145.51453691214573,108.64962367653123 -136.02393495308547,235.95732065384203 39.36068686459953,208.2650119457865 " style="color: rgb(84, 153, 199);" class=""/><rect fill="#34495e" stroke="#34495e" stroke-width="2" stroke-linejoin="round" stroke-dashoffset="" fill-rule="nonzero" id="svg_45" x="142.39886474609375" y="71.67097473144531" width="7" height="27.629980087280273" style="color: rgb(52, 73, 94);" class="" rx="0" ry="0" transform="rotate(-6.526206016540527 145.89886474609378,85.48596191406261) "/><rect fill="#34495e" stroke="#34495e" stroke-width="2" stroke-linejoin="round" stroke-dashoffset="" fill-rule="nonzero" x="155.1764678955078" y="52.31850814819336" width="7" height="45" style="color: rgb(52, 73, 94);" class="" rx="0" ry="0" id="svg_47" transform="rotate(-5.9355597496032715 158.67646789550784,74.81851196289068) "/><path fill="#ffffff" stroke="#ffffff" stroke-width="2" stroke-linejoin="round" stroke-dashoffset="" fill-rule="nonzero" marker-start="" marker-mid="" marker-end="" d="M857.6170551394874,66.64568014869656 C829.4758358977335,66.64568014869656 805.3210539230025,81.23942228739543 793.497707317385,102.30755492575696 C788.7755250491671,99.67124288735693 783.5669674650857,98.07495967209968 778.0082066491585,98.07495967209968 C761.1983332985208,98.07495967209968 747.2101244380781,111.59776777657447 742.8866656964382,129.95452723428895 C735.5070687560501,127.03767429989102 726.9266413172668,125.27165379368182 717.7612512348264,125.27165379368182 C690.2650612838324,125.27165379368182 667.9607004985533,140.3157923413679 667.9607004985533,158.86226861444447 C667.9607004985533,175.6036125904315 686.2532358341649,189.36653950577 710.0165058266315,191.91253975903112 C708.9514631906305,193.7195734605641 708.1253374414413,195.5090413376288 708.1253374414413,197.4059139361491 C708.1253374414413,215.1631694395419 756.7750261940159,229.64567449238916 816.7319730974793,229.64567449238916 C876.6889101491063,229.64567449238916 925.3386678645363,215.1631595877052 925.3386087535173,197.4059139361491 C925.3386087535173,196.21114231719724 924.5970413169543,195.14490760898076 924.1678953192836,193.98380956716505 C926.7940205587495,194.6368878083403 929.3942551719094,195.3346441280151 932.2728731288753,195.3346441280151 C948.3122639028409,195.334693387198 961.3607159319745,184.43631600631238 961.3607159319745,171.01972055107706 C961.3607159319745,157.60311524400572 948.3122639028409,146.7048068259761 932.2728731288753,146.7048068259761 C930.3072839708107,146.7048068259761 928.635919909634,147.38374613794713 926.7794989517577,147.69541883726566 C928.4027564953349,142.33078845944988 929.4811483697849,136.8568913630799 929.4811483697849,131.03519488296985 C929.4811483697849,95.52071343169285 897.3337487806745,66.64569985236966 857.6170748431605,66.64569985236966 L857.6170551394874,66.64568014869656 z" style="color: rgb(0, 0, 0);" class="" transform="rotate(-0.7535366415977478 814.660705566407,148.14569091796858) " id="svg_46"/><path fill="#5499c7" fill-opacity="1" stroke="#5499c7" stroke-opacity="1" stroke-width="2" stroke-dasharray="none" stroke-linejoin="round" stroke-linecap="butt" stroke-dashoffset="" fill-rule="nonzero" opacity="1" marker-start="" marker-mid="" marker-end="" d="M212,205 C212,191.1878453038674 242.65469613259668,180 280.5,180 C318.34530386740335,180 349,191.1878453038674 349,205 C349,218.8121546961326 318.34530386740335,230 280.5,230 C242.65469613259668,230 212,218.8121546961326 212,205 Z" id="svg_49" class=""/><path fill="#ffffff" fill-opacity="1" stroke="#ffffff" stroke-opacity="1" stroke-width="2" stroke-dasharray="none" stroke-linejoin="round" stroke-linecap="butt" stroke-dashoffset="" fill-rule="nonzero" opacity="1" marker-start="" marker-mid="" marker-end="" d="M442.3278688490391,162.17213115096092 C442.3278688490391,135.37655104046368 479.2477583518015,113.67213115096092 524.8278688490391,113.67213115096092 C570.4079793462766,113.67213115096092 607.3278688490391,135.37655104046368 607.3278688490391,162.17213115096092 C607.3278688490391,188.96771126145816 570.4079793462766,210.67213115096092 524.8278688490391,210.67213115096092 C479.2477583518015,210.67213115096092 442.3278688490391,188.96771126145816 442.3278688490391,162.17213115096092 z" id="svg_42" class=""/><path fill="#ffffff" fill-opacity="1" stroke="#ffffff" stroke-opacity="1" stroke-width="2" stroke-dasharray="none" stroke-linejoin="round" stroke-linecap="butt" stroke-dashoffset="" fill-rule="nonzero" opacity="1" marker-start="" marker-mid="" marker-end="" d="M398,169 C398,152.4254143646409 418.80939226519337,139 444.5,139 C470.19060773480663,139 491,152.4254143646409 491,169 C491,185.5745856353591 470.19060773480663,199 444.5,199 C418.80939226519337,199 398,185.5745856353591 398,169 Z" id="svg_48" class=""/><path fill="#34495e" fill-opacity="1" stroke="#34495e" stroke-opacity="1" stroke-width="2" stroke-dasharray="none" stroke-linejoin="round" stroke-linecap="butt" stroke-dashoffset="" fill-rule="nonzero" opacity="1" marker-start="" marker-mid="" marker-end="" id="svg_60" d="M493.06667073567706,208.33333333333334 " style="color: rgb(52, 73, 94);" class=""/><path fill="#b6b6b6" fill-opacity="1" stroke="#b6b6b6" stroke-opacity="1" stroke-width="2" stroke-dasharray="none" stroke-linejoin="round" stroke-linecap="butt" stroke-dashoffset="" fill-rule="nonzero" opacity="1" marker-start="" marker-mid="" marker-end="" id="svg_74" d="M492.8705772828894,113.82352621910078 " style="color: rgb(52, 73, 94);" class=""/><path fill="#b6b6b6" fill-opacity="1" stroke="#b6b6b6" stroke-opacity="1" stroke-width="2" stroke-dasharray="none" stroke-linejoin="round" stroke-linecap="butt" stroke-dashoffset="" fill-rule="nonzero" opacity="1" marker-start="" marker-mid="" marker-end="" d="M494.0470478381256,131.1764669088345L505.5176357516784,128.82352579836214" id="svg_58" class=""/><path fill="#b6b6b6" fill-opacity="1" stroke="#b6b6b6" stroke-opacity="1" stroke-width="2" stroke-dasharray="none" stroke-linejoin="round" stroke-linecap="butt" stroke-dashoffset="" fill-rule="nonzero" opacity="1" marker-start="" marker-mid="" marker-end="" id="svg_51" d="M522.78891358876,126.38889223705112 " style="color: rgb(52, 73, 94);" class=""/><path fill="#919191" fill-opacity="1" stroke="#919191" stroke-opacity="1" stroke-width="2" stroke-dasharray="none" stroke-linejoin="round" stroke-linecap="butt" stroke-dashoffset="" fill-rule="nonzero" opacity="1" marker-start="" marker-mid="" marker-end="" id="svg_55" d="M520.821637986178,126.95966854507549 C523.5994158375418,151.12633585194024 530.2660826808147,112.5152237179839 552.7660832768612,109.45966808148378 " style="color: rgb(52, 73, 94);" class=""/><path fill="#ffffff" fill-opacity="1" stroke="#ffffff" stroke-opacity="1" stroke-width="2" stroke-dasharray="none" stroke-linejoin="round" stroke-linecap="butt" stroke-dashoffset="" fill-rule="nonzero" opacity="1" marker-start="" marker-mid="" marker-end="" d="M547.8035236761369,115.43860035406414L558.1544012154831,105.43860001944158" id="svg_57" class=""/><path fill="#919191" fill-opacity="1" stroke="#919191" stroke-opacity="1" stroke-width="2" stroke-dasharray="none" stroke-linejoin="round" stroke-linecap="butt" stroke-dashoffset="" fill-rule="nonzero" opacity="1" marker-start="" marker-mid="" marker-end="" id="svg_65" d="M571.0798231780783,139.47144208555224 C560.2300894355377,135.59600971812586 547.6850847957251,130.10581386427174 596.1698324577035,128.4910503778441 " style="color: rgb(52, 73, 94);" class=""/><path fill="#b6b6b6" fill-opacity="1" stroke="#b6b6b6" stroke-opacity="1" stroke-width="2" stroke-dasharray="none" stroke-linejoin="round" stroke-linecap="butt" stroke-dashoffset="" fill-rule="nonzero" opacity="1" marker-start="" marker-mid="" marker-end="" id="svg_64" d="M 625.615700845451 149.8039243698854 L 590.9803921568628 163.1372549019608" style="color: rgb(52, 73, 94);" class=""/><path fill="#919191" fill-opacity="1" stroke="#919191" stroke-opacity="1" stroke-width="2" stroke-dasharray="none" stroke-linejoin="round" stroke-linecap="butt" stroke-dashoffset="" fill-rule="nonzero" opacity="1" marker-start="" marker-mid="" marker-end="" id="svg_66" d="M599.0768826447522,150.89791012554778 C591.1358444152025,208.11210510052553 618.9294782186267,143.52941531816427 618.8235856767255,143.52941208421902 " style="color: rgb(52, 73, 94);" class="" transform="rotate(5.859220504760742 608.2368774414064,159.03834533691384) "/><path fill="#b6b6b6" fill-opacity="1" stroke="#b6b6b6" stroke-opacity="1" stroke-width="2" stroke-dasharray="none" stroke-linejoin="round" stroke-linecap="butt" stroke-dashoffset="" fill-rule="nonzero" opacity="1" marker-start="" marker-mid="" marker-end="" d="M566.7278841163742,165.5737730803845L576.8918187015067,164.26229765004481" id="svg_68" class=""/><path fill="#b6b6b6" fill-opacity="1" stroke="#b6b6b6" stroke-opacity="1" stroke-width="2" stroke-dasharray="none" stroke-linejoin="round" stroke-linecap="butt" stroke-dashoffset="" fill-rule="nonzero" opacity="1" marker-start="" marker-mid="" marker-end="" d="M565.4164086860345,168.52459279864877L580.4983761349408,160.9836090741956" id="svg_70" class=""/><path fill="#b6b6b6" fill-opacity="1" stroke="#b6b6b6" stroke-opacity="1" stroke-width="2" stroke-dasharray="none" stroke-linejoin="round" stroke-linecap="butt" stroke-dashoffset="" fill-rule="nonzero" opacity="1" marker-start="" marker-mid="" marker-end="" id="svg_75" d="M549.8374857032674,167.49999750405553 " style="color: rgb(0, 0, 0);"/><path fill="#b6b6b6" fill-opacity="1" stroke="#b6b6b6" stroke-opacity="1" stroke-width="2" stroke-dasharray="none" stroke-linejoin="round" stroke-linecap="butt" stroke-dashoffset="" fill-rule="nonzero" opacity="1" marker-start="" marker-mid="" marker-end="" id="svg_67" d="M549.524985707924,172.8124974248931 " style="color: rgb(0, 0, 0);"/><path fill="#b6b6b6" fill-opacity="1" stroke="#b6b6b6" stroke-opacity="1" stroke-width="2" stroke-dasharray="none" stroke-linejoin="round" stroke-linecap="butt" stroke-dashoffset="" fill-rule="nonzero" opacity="1" marker-start="" marker-mid="" marker-end="" d="M470.3125,126.875 C470.3125,124.38881215469613 477.9202348066298,122.375 487.3125,122.375 C496.7047651933702,122.375 504.3125,124.38881215469613 504.3125,126.875 C504.3125,129.36118784530387 496.7047651933702,131.375 487.3125,131.375 C477.9202348066298,131.375 470.3125,129.36118784530387 470.3125,126.875 z" id="svg_71" class="" transform="rotate(-63.38905334472656 487.31249999999994,126.87499999999997) "/><path fill="#b6b6b6" fill-opacity="1" stroke="#b6b6b6" stroke-opacity="1" stroke-width="2" stroke-dasharray="none" stroke-linejoin="round" stroke-linecap="butt" stroke-dashoffset="" fill-rule="nonzero" opacity="1" marker-start="" marker-mid="" marker-end="" d="M486.7124866439031,131.8749980349094L506.08748635519316,125.93749812338504" id="svg_77"/><path fill="#b6b6b6" fill-opacity="1" stroke="#b6b6b6" stroke-opacity="1" stroke-width="2" stroke-dasharray="none" stroke-linejoin="round" stroke-linecap="butt" stroke-dashoffset="" fill-rule="nonzero" opacity="1" marker-start="" marker-mid="" marker-end="" d="M483.8999866858126,136.5624979650602L502.6499864064159,127.49999810010198" id="svg_53"/><path fill="#b6b6b6" fill-opacity="1" stroke="#b6b6b6" stroke-opacity="1" stroke-width="2" stroke-dasharray="none" stroke-linejoin="round" stroke-linecap="butt" stroke-dashoffset="" fill-rule="nonzero" opacity="1" marker-start="" marker-mid="" marker-end="" d="M489.2124866066502,132.49999802559617L495.462486513518,130.93749804887923" id="svg_61"/><path fill="#919191" fill-opacity="1" stroke="#919191" stroke-opacity="1" stroke-width="2" stroke-dasharray="none" stroke-linejoin="round" stroke-linecap="butt" stroke-dashoffset="" fill-rule="nonzero" opacity="1" marker-start="" marker-mid="" marker-end="" id="svg_50" d="M499.45115715483934,105.2647030279299 C486.80409868605034,99.67646789055803 478.56880479939707,96.44117386365853 522.0982153431358,94.08823275318616 " style="color: rgb(52, 73, 94);" class=""/><path fill="#b6b6b6" fill-opacity="1" stroke="#b6b6b6" stroke-opacity="1" stroke-width="2" stroke-dasharray="none" stroke-linejoin="round" stroke-linecap="butt" stroke-dashoffset="" fill-rule="nonzero" opacity="1" marker-start="" marker-mid="" marker-end="" d="M484.97150075397,108.89389043598895 C484.97150075397,100.6065976183094 502.4219725069717,93.89389043598895 523.9657647946283,93.89389043598895 C545.5095570822849,93.89389043598895 562.9600288352866,100.6065976183094 562.9600288352866,108.89389043598895 C562.9600288352866,117.18118325366851 545.5095570822849,123.89389043598895 523.9657647946283,123.89389043598895 C502.4219725069717,123.89389043598895 484.97150075397,117.18118325366851 484.97150075397,108.89389043598895 z" id="svg_72" class="" transform="rotate(-24.015825271606445 523.9657592773436,108.89388275146497) "/><path fill="#b6b6b6" fill-opacity="1" stroke="#b6b6b6" stroke-opacity="1" stroke-width="2" stroke-dasharray="none" stroke-linejoin="round" stroke-linecap="butt" stroke-dashoffset="" fill-rule="nonzero" opacity="1" marker-start="" marker-mid="" marker-end="" d="M556.8103331406662,142.4730995636198 C556.8103331406662,133.47834452998976 577.1006261259627,126.19259295274944 602.1503705522546,126.19259295274944 C627.2001149785465,126.19259295274944 647.4904079638429,133.47834452998976 647.4904079638429,142.4730995636198 C647.4904079638429,151.4678545972498 627.2001149785465,158.75360617449016 602.1503705522546,158.75360617449016 C577.1006261259627,158.75360617449016 556.8103331406662,151.4678545972498 556.8103331406662,142.4730995636198 z" id="svg_54" class="" transform="rotate(-20.725191116333008 602.150390625,142.473098754883) "/><path fill="#b6b6b6" fill-opacity="1" stroke="#b6b6b6" stroke-opacity="1" stroke-width="2" stroke-dasharray="none" stroke-linejoin="round" stroke-linecap="butt" stroke-dashoffset="" fill-rule="nonzero" opacity="1" marker-start="" marker-mid="" marker-end="" d="M542.5195850509403,154.57015579062096 C542.5195850509403,149.87402319393587 554.3727612218902,146.07015579062096 569.0063120502232,146.07015579062096 C583.6398628785562,146.07015579062096 595.493039049506,149.87402319393587 595.493039049506,154.57015579062096 C595.493039049506,159.26628838730605 583.6398628785562,163.07015579062096 569.0063120502232,163.07015579062096 C554.3727612218902,163.07015579062096 542.5195850509403,159.26628838730605 542.5195850509403,154.57015579062096 z" id="svg_63" class="" transform="rotate(-46.855709075927734 569.00634765625,154.57015991210938) "/><path fill="#919191" fill-opacity="1" stroke="#919191" stroke-opacity="1" stroke-width="2" stroke-dasharray="none" stroke-linejoin="round" stroke-linecap="butt" stroke-dashoffset="" fill-rule="nonzero" opacity="1" marker-start="" marker-mid="" marker-end="" d="M539.6875,178.0625 C539.6875,176.9575276243094 543.2676104972376,176.0625 547.6875,176.0625 C552.1073895027624,176.0625 555.6875,176.9575276243094 555.6875,178.0625 C555.6875,179.1674723756906 552.1073895027624,180.0625 547.6875,180.0625 C543.2676104972376,180.0625 539.6875,179.1674723756906 539.6875,178.0625 z" id="svg_69" class="" transform="rotate(-66.73539733886719 547.6875,178.0625) "/><path fill="#919191" fill-opacity="1" stroke="#919191" stroke-opacity="1" stroke-width="2" stroke-dasharray="none" stroke-linejoin="round" stroke-linecap="butt" stroke-dashoffset="" fill-rule="nonzero" opacity="1" marker-start="" marker-mid="" marker-end="" d="M469.6875,146.8125 C469.6875,145.7075276243094 473.26761049723757,144.8125 477.6875,144.8125 C482.10738950276243,144.8125 485.6875,145.7075276243094 485.6875,146.8125 C485.6875,147.9174723756906 482.10738950276243,148.8125 477.6875,148.8125 C473.26761049723757,148.8125 469.6875,147.9174723756906 469.6875,146.8125 z" class="" transform="rotate(-66.73539733886719 477.68749999999994,146.81249999999997) " id="svg_78"/></g></svg>