<svg xmlns="http://www.w3.org/2000/svg" xmlns:se="http://svg-edit.googlecode.com" xmlns:xlink="http://www.w3.org/1999/xlink" xmlns:dc="http://purl.org/dc/elements/1.1/" xmlns:cc="http://creativecommons.org/ns#" xmlns:rdf="http://www.w3.org/1999/02/22-rdf-syntax-ns#" xmlns:inkscape="http://www.inkscape.org/namespaces/inkscape" width="737" height="120" style="">
                                    <title>my vector image</title>
                                    <!-- Created with Vector Paint - http://www.vectorpaint.yaks.com/ https://chrome.google.com/webstore/detail/hnbpdiengicdefcjecjbnjnoifekhgdo -->
                                    <rect id="backgroundrect" width="100%" height="100%" x="0" y="0" fill="#ffffff" stroke="#ffffff" style="" class="selected" fill-opacity="1" stroke-opacity="1"/>
                                <g style="" class="currentLayer"><title>Layer 1</title><rect fill="#d19968" stroke="#d19968" stroke-width="2" stroke-linejoin="round" stroke-dashoffset="" fill-rule="nonzero" x="433.3478537797928" y="43.49275052547455" width="40" height="135" style="color: rgb(240, 178, 122);" class="" fill-opacity="1" stroke-opacity="1" id="svg_7"/><rect fill="#d19968" stroke="#d19968" stroke-width="2" stroke-linejoin="round" stroke-dashoffset="" fill-rule="nonzero" x="254.6811820268631" y="47.49275052547455" width="40" height="135" style="color: rgb(240, 178, 122);" class="" fill-opacity="1" stroke-opacity="1" id="svg_8"/><rect fill="#f0b27a" stroke="#f0b27a" stroke-width="2" stroke-linejoin="round" stroke-dashoffset="" fill-rule="nonzero" id="svg_6" x="243.34782326221466" y="56.82608640193939" width="40" height="135" style="color: rgb(240, 178, 122);" class=""/><rect fill="#f0b27a" stroke="#f0b27a" stroke-width="2" stroke-linejoin="round" stroke-dashoffset="" fill-rule="nonzero" x="447.34782326221466" y="56.82608640193939" width="40" height="135" style="color: rgb(240, 178, 122);" class="" id="svg_9"/><rect fill="#d19968" stroke="#d19968" stroke-width="2" stroke-linejoin="round" stroke-dashoffset="" fill-rule="nonzero" x="384.68116676807404" y="64.15942227840424" width="40" height="135" style="color: rgb(240, 178, 122);" class="" id="svg_12" fill-opacity="1" stroke-opacity="1"/><rect fill="#d19968" stroke="#d19968" stroke-width="2" stroke-linejoin="round" stroke-dashoffset="" fill-rule="nonzero" x="332.0145102739334" y="74.15942227840424" width="28" height="135" style="color: rgb(240, 178, 122);" class="" fill-opacity="1" stroke-opacity="1" id="svg_2"/><rect fill="#f0b27a" stroke="#f0b27a" stroke-width="2" stroke-linejoin="round" stroke-dashoffset="" fill-rule="nonzero" x="367.34782326221466" y="60.159422278404236" width="34.66666793823242" height="135" style="color: rgb(240, 178, 122);" class="" id="svg_11"/><rect fill="#f0b27a" stroke="#f0b27a" stroke-width="2" stroke-linejoin="round" stroke-dashoffset="" fill-rule="nonzero" x="300.0145102739334" y="56.159422278404236" width="24.000001907348633" height="135" style="color: rgb(240, 178, 122);" class="" id="svg_10"/><rect fill="#f0b27a" stroke="#f0b27a" stroke-width="2" stroke-linejoin="round" stroke-dashoffset="" fill-rule="nonzero" x="338.68116676807404" y="76.15942227840424" width="24.000001907348633" height="135" style="color: rgb(240, 178, 122);" class="" id="svg_13"/><path fill="#82e0aa" fill-opacity="1" stroke="#82e0aa" stroke-opacity="1" stroke-width="2" stroke-dasharray="none" stroke-linejoin="round" stroke-linecap="butt" stroke-dashoffset="" fill-rule="nonzero" opacity="1" marker-start="" marker-mid="" marker-end="" d="M220.65218269824982,46.00000178813934 C220.65218269824982,28.872929964934936 234.82669669175675,15.000001788139343 252.32609668374062,15.000001788139343 C269.8254966757245,15.000001788139343 284.0000106692314,28.872929964934936 284.0000106692314,46.00000178813934 C284.0000106692314,63.12707361134376 269.8254966757245,77.00000178813934 252.32609668374062,77.00000178813934 C234.82669669175675,77.00000178813934 220.65218269824982,63.12707361134376 220.65218269824982,46.00000178813934 z" id="svg_38" class=""/><path fill="#82e0aa" fill-opacity="1" stroke="#82e0aa" stroke-opacity="1" stroke-width="2" stroke-dasharray="none" stroke-linejoin="round" stroke-linecap="butt" stroke-dashoffset="" fill-rule="nonzero" opacity="1" marker-start="" marker-mid="" marker-end="" d="M272.82609474658966,49.478261828422546 C272.82609474658966,32.35119000521813 287.0006087400966,18.478261828422546 304.50000873208046,18.478261828422546 C321.9994087240643,18.478261828422546 336.17392271757126,32.35119000521813 336.17392271757126,49.478261828422546 C336.17392271757126,66.60533365162695 321.9994087240643,80.47826182842255 304.50000873208046,80.47826182842255 C287.0006087400966,80.47826182842255 272.82609474658966,66.60533365162695 272.82609474658966,49.478261828422546 z" class="" id="svg_39"/><path fill="#82e0aa" fill-opacity="1" stroke="#82e0aa" stroke-opacity="1" stroke-width="2" stroke-dasharray="none" stroke-linejoin="round" stroke-linecap="butt" stroke-dashoffset="" fill-rule="nonzero" opacity="1" marker-start="" marker-mid="" marker-end="" d="M248.4782668352127,40.78261363506317 C248.4782668352127,23.655541811858754 262.65278082871964,9.782613635063171 280.1521808207035,9.782613635063171 C297.65158081268737,9.782613635063171 311.8260948061943,23.655541811858754 311.8260948061943,40.78261363506317 C311.8260948061943,57.909685458267575 297.65158081268737,71.78261363506317 280.1521808207035,71.78261363506317 C262.65278082871964,71.78261363506317 248.4782668352127,57.909685458267575 248.4782668352127,40.78261363506317 z" class="" id="svg_40"/><path fill="#82e0aa" fill-opacity="1" stroke="#82e0aa" stroke-opacity="1" stroke-width="2" stroke-dasharray="none" stroke-linejoin="round" stroke-linecap="butt" stroke-dashoffset="" fill-rule="nonzero" opacity="1" marker-start="" marker-mid="" marker-end="" d="M307.6087027788162,48.60870063304901 C307.6087027788162,31.481628809844594 321.78321677232316,17.60870063304901 339.282616764307,17.60870063304901 C356.7820167562909,17.60870063304901 370.9565307497978,31.481628809844594 370.9565307497978,48.60870063304901 C370.9565307497978,65.73577245625341 356.7820167562909,79.60870063304901 339.282616764307,79.60870063304901 C321.78321677232316,79.60870063304901 307.6087027788162,65.73577245625341 307.6087027788162,48.60870063304901 z" class="" id="svg_41"/><path fill="#82e0aa" fill-opacity="1" stroke="#82e0aa" stroke-opacity="1" stroke-width="2" stroke-dasharray="none" stroke-linejoin="round" stroke-linecap="butt" stroke-dashoffset="" fill-rule="nonzero" opacity="1" marker-start="" marker-mid="" marker-end="" d="M347.6087027788162,45.13043582439423 C347.6087027788162,28.003364001189823 361.78321677232316,14.130435824394226 379.282616764307,14.130435824394226 C396.7820167562909,14.130435824394226 410.9565307497978,28.003364001189823 410.9565307497978,45.13043582439423 C410.9565307497978,62.257507647598615 396.7820167562909,76.13043582439423 379.282616764307,76.13043582439423 C361.78321677232316,76.13043582439423 347.6087027788162,62.257507647598615 347.6087027788162,45.13043582439423 z" class="" id="svg_42"/><path fill="#82e0aa" fill-opacity="1" stroke="#82e0aa" stroke-opacity="1" stroke-width="2" stroke-dasharray="none" stroke-linejoin="round" stroke-linecap="butt" stroke-dashoffset="" fill-rule="nonzero" opacity="1" marker-start="" marker-mid="" marker-end="" d="M371.0869561433792,55.565215945243835 C371.0869561433792,38.43814412203942 385.26147013688615,24.565215945243835 402.76087012887,24.565215945243835 C420.2602701208539,24.565215945243835 434.4347841143608,38.43814412203942 434.4347841143608,55.565215945243835 C434.4347841143608,72.69228776844824 420.2602701208539,86.56521594524384 402.76087012887,86.56521594524384 C385.26147013688615,86.56521594524384 371.0869561433792,72.69228776844824 371.0869561433792,55.565215945243835 z" class="" id="svg_43"/><path fill="#82e0aa" fill-opacity="1" stroke="#82e0aa" stroke-opacity="1" stroke-width="2" stroke-dasharray="none" stroke-linejoin="round" stroke-linecap="butt" stroke-dashoffset="" fill-rule="nonzero" opacity="1" marker-start="" marker-mid="" marker-end="" d="M409.3478261232376,44.26086884737015 C409.3478261232376,27.133797024165744 423.52234011674454,13.260868847370155 441.0217401087284,13.260868847370155 C458.5211401007123,13.260868847370155 472.6956540942192,27.133797024165744 472.6956540942192,44.26086884737015 C472.6956540942192,61.38794067057455 458.5211401007123,75.26086884737015 441.0217401087284,75.26086884737015 C423.52234011674454,75.26086884737015 409.3478261232376,61.38794067057455 409.3478261232376,44.26086884737015 z" class="" id="svg_1"/><path fill="#82e0aa" fill-opacity="1" stroke="#82e0aa" stroke-opacity="1" stroke-width="2" stroke-dasharray="none" stroke-linejoin="round" stroke-linecap="butt" stroke-dashoffset="" fill-rule="nonzero" opacity="1" marker-start="" marker-mid="" marker-end="" d="M446.7391301393509,48.60869371891022 C446.7391301393509,31.4816218957058 460.9136441328578,17.608693718910217 478.4130441248417,17.608693718910217 C495.91244411682555,17.608693718910217 510.0869581103325,31.4816218957058 510.0869581103325,48.60869371891022 C510.0869581103325,65.73576554211462 495.91244411682555,79.60869371891022 478.4130441248417,79.60869371891022 C460.9136441328578,79.60869371891022 446.7391301393509,65.73576554211462 446.7391301393509,48.60869371891022 z" class="" id="svg_5"/><path fill="#82e0aa" fill-opacity="1" stroke="#82e0aa" stroke-opacity="1" stroke-width="2" stroke-dasharray="none" stroke-linejoin="round" stroke-linecap="butt" stroke-dashoffset="" fill-rule="nonzero" opacity="1" marker-start="" marker-mid="" marker-end="" d="M316.30434238910675,52.086955428123474 C316.30434238910675,34.95988360491907 330.4788563826137,21.086955428123474 347.97825637459755,21.086955428123474 C365.4776563665814,21.086955428123474 379.65217036008835,34.95988360491907 379.65217036008835,52.086955428123474 C379.65217036008835,69.21402725132788 365.4776563665814,83.08695542812347 347.97825637459755,83.08695542812347 C330.4788563826137,83.08695542812347 316.30434238910675,69.21402725132788 316.30434238910675,52.086955428123474 z" class="" id="svg_3"/><path fill="#82e0aa" fill-opacity="1" stroke="#82e0aa" stroke-opacity="1" stroke-width="2" stroke-dasharray="none" stroke-linejoin="round" stroke-linecap="butt" stroke-dashoffset="" fill-rule="nonzero" opacity="1" marker-start="" marker-mid="" marker-end="" d="M285.8695584535599,52.95651662349701 C285.8695584535599,35.829444800292606 300.0440724470668,21.95651662349701 317.5434724390507,21.95651662349701 C335.04287243103454,21.95651662349701 349.2173864245415,35.829444800292606 349.2173864245415,52.95651662349701 C349.2173864245415,70.08358844670141 335.04287243103454,83.95651662349701 317.5434724390507,83.95651662349701 C300.0440724470668,83.95651662349701 285.8695584535599,70.08358844670141 285.8695584535599,52.95651662349701 z" class="" id="svg_4"/></g></svg>