<svg xmlns="http://www.w3.org/2000/svg" xmlns:se="http://svg-edit.googlecode.com" xmlns:xlink="http://www.w3.org/1999/xlink" xmlns:dc="http://purl.org/dc/elements/1.1/" xmlns:cc="http://creativecommons.org/ns#" xmlns:rdf="http://www.w3.org/1999/02/22-rdf-syntax-ns#" xmlns:inkscape="http://www.inkscape.org/namespaces/inkscape" width="737" height="200" style="">
                                    <title>my vector image</title>
                                    <!-- Created with Vector Paint - http://www.vectorpaint.yaks.com/ https://chrome.google.com/webstore/detail/hnbpdiengicdefcjecjbnjnoifekhgdo -->
                                    <rect id="backgroundrect" width="100%" height="100%" x="0" y="0" fill="#04112c" stroke="#04112c" style="" class="" fill-opacity="1" stroke-opacity="1" opacity="0"/>
                                <g style="" class="currentLayer"><title>Layer 1</title><rect fill="#f2c076" stroke="#f2c076" stroke-width="2" stroke-linejoin="round" stroke-dashoffset="" fill-rule="nonzero" id="svg_1" x="273.87877870068087" y="155.30303072929382" width="49.666664719581604" height="10" style="color: rgb(84, 168, 84);" class="selected" rx="3" ry="3"/><path fill="#edad55" stroke="#edad55" stroke-width="2" stroke-linejoin="round" stroke-dashoffset="" fill-rule="nonzero" marker-start="" marker-mid="" marker-end="" id="svg_37" d="M279.29018375096086,205.26322204034048 L286.7901841209313,165.2632200671655 L311.7901866964474,165.2632200671655 L319.2901843818538,205.26322204034048 L279.29018375096086,205.26322204034048 z" style="color: rgb(84, 168, 84);" class="selected" transform="rotate(179.43251037597656 299.29043579101557,185.26318359375) "/><rect fill="#484848" stroke="#d1c468" stroke-width="5" stroke-linejoin="round" stroke-dashoffset="" fill-rule="nonzero" id="svg_18" x="349.9155306816101" y="79.09591674804688" width="161.2825164794922" height="70.82088470458984" style="color: rgb(229, 152, 102);" class="selected" fill-opacity="1" stroke-opacity="1" rx="5" ry="5"/><path fill="#8ae98a" fill-opacity="1" stroke="#8ae98a" stroke-opacity="1" stroke-width="2" stroke-dasharray="none" stroke-linejoin="round" stroke-linecap="butt" stroke-dashoffset="" fill-rule="nonzero" opacity="1" marker-start="" marker-mid="" marker-end="" d="M490.6636319354057,126.4765632301569 C490.6636319354057,120.12297323015692 489.36086193540575,114.9765632301569 490.46583193540573,114.9765632301569 C491.5708019354057,114.9765632301569 492.46583193540573,120.12297323015692 492.46583193540573,126.4765632301569 C492.46583193540573,132.8301532301569 491.5708019354057,137.9765632301569 490.46583193540573,137.9765632301569 C489.36086193540575,137.9765632301569 490.6636319354057,132.8301532301569 490.6636319354057,126.4765632301569 z" id="svg_70" class="selected" transform="rotate(97.42180633544922 491.2439270019531,126.47651672363287) "/><path fill="#f4a94e" fill-opacity="1" stroke="#f4a94e" stroke-opacity="1" stroke-width="2" stroke-dasharray="none" stroke-linejoin="round" stroke-linecap="butt" stroke-dashoffset="" fill-rule="nonzero" opacity="1" marker-start="" marker-mid="" marker-end="" d="M406.7734275572615,117.41140946045586 C406.7734275572615,106.14431382089509 416.280039503141,97.01796635285088 428.0165974610167,97.01796635285088 C439.7531554188925,97.01796635285088 449.2597673647719,106.14431382089509 449.2597673647719,117.41140946045586 C449.2597673647719,128.6785051000166 439.7531554188925,137.80485256806082 428.0165974610167,137.80485256806082 C416.280039503141,137.80485256806082 406.7734275572615,128.6785051000166 406.7734275572615,117.41140946045586 z" id="svg_20" class="selected"/><path fill="#8ae98a" stroke="#8ae98a" stroke-width="2" stroke-linejoin="round" stroke-dashoffset="" fill-rule="nonzero" marker-start="" marker-mid="" marker-end="" id="svg_21" d="M443.9625061467067,107.3552747988812 C444.6608445972522,105.0687332906536 445.61667793533013,103.13226973582675 446.5233463299779,102.16716615584082 C447.49469558447004,101.13321150079852 447.063741184777,100.68471503899625 446.0617152983107,101.68674306953352 C445.6401504937238,102.10830501535895 445.5197038150909,101.80220478653408 445.5197038150909,100.30928560761248 C445.5197038150909,96.74729932106652 447.3661686225181,94.54324588471951 451.80886148060813,92.80217209976985 C455.56803855542563,91.32895834909927 458.3395121281577,89.67223440306202 459.4886247570164,88.21137692502452 L460.4250092404998,87.02095236468881 L460.4250092404998,89.0921735474893 C460.4250092404998,91.65326958972133 459.6304306561864,95.52246530372338 458.750904037571,97.24421887824491 C457.817883599159,99.07069881369074 454.619841678277,102.44211091049732 453.0505107204924,103.25364193779913 C451.6445292723902,103.98070734643349 448.641803508331,104.19475123580804 447.03698748533145,103.68230718593793 C446.2372416934803,103.42693850067045 445.9834274586105,103.6220531149599 445.56904099877636,104.81076241968117 C445.2934851843048,105.60122224644783 445.06802912757587,106.72577455897957 445.06802912757587,107.30975834708093 C445.06802912757587,107.97274180595736 444.8021237700076,108.37154445384843 444.3600773840052,108.37154445384843 C443.8350590810993,108.37154445384843 443.7323281342092,108.10894668085615 443.9625068613984,107.3552747988812 L443.9625061467067,107.3552747988812 z" style="color: rgb(244, 169, 78);" class="selected" transform="rotate(31.506973266601562 452.13720703125,97.69623565673832) "/><path fill="#ed8f23" fill-opacity="1" stroke="#ed8f23" stroke-opacity="1" stroke-width="2" stroke-dasharray="none" stroke-linejoin="round" stroke-linecap="butt" stroke-dashoffset="" fill-rule="nonzero" opacity="1" marker-start="" marker-mid="" marker-end="" d="M436.22386771440506,124.04177814722061 C436.22386771440506,123.76553505329795 436.44762462048243,123.54177814722061 436.72386771440506,123.54177814722061 C437.0001108083277,123.54177814722061 437.22386771440506,123.76553505329795 437.22386771440506,124.04177814722061 C437.22386771440506,124.31802124114327 437.0001108083277,124.54177814722061 436.72386771440506,124.54177814722061 C436.44762462048243,124.54177814722061 436.22386771440506,124.31802124114327 436.22386771440506,124.04177814722061 z" id="svg_22" class="selected"/><path fill="#ed8f23" fill-opacity="1" stroke="#ed8f23" stroke-opacity="1" stroke-width="2" stroke-dasharray="none" stroke-linejoin="round" stroke-linecap="butt" stroke-dashoffset="" fill-rule="nonzero" opacity="1" marker-start="" marker-mid="" marker-end="" d="M432.1123688817024,132.5173876285553 C432.1123688817024,132.24114453463264 432.3361257877798,132.0173876285553 432.6123688817024,132.0173876285553 C432.88861197562505,132.0173876285553 433.1123688817024,132.24114453463264 433.1123688817024,132.5173876285553 C433.1123688817024,132.79363072247796 432.88861197562505,133.0173876285553 432.6123688817024,133.0173876285553 C432.3361257877798,133.0173876285553 432.1123688817024,132.79363072247796 432.1123688817024,132.5173876285553 z" class="selected" id="svg_24"/><path fill="#ed8f23" fill-opacity="1" stroke="#ed8f23" stroke-opacity="1" stroke-width="2" stroke-dasharray="none" stroke-linejoin="round" stroke-linecap="butt" stroke-dashoffset="" fill-rule="nonzero" opacity="1" marker-start="" marker-mid="" marker-end="" d="M436.01479107141495,129.59055763483047 C436.01479107141495,129.31431454090782 436.2385479774923,129.09055763483047 436.51479107141495,129.09055763483047 C436.7910341653376,129.09055763483047 437.01479107141495,129.31431454090782 437.01479107141495,129.59055763483047 C437.01479107141495,129.86680072875313 436.7910341653376,130.09055763483047 436.51479107141495,130.09055763483047 C436.2385479774923,130.09055763483047 436.01479107141495,129.86680072875313 436.01479107141495,129.59055763483047 z" class="selected" id="svg_25"/><path fill="#ed8f23" fill-opacity="1" stroke="#ed8f23" stroke-opacity="1" stroke-width="2" stroke-dasharray="none" stroke-linejoin="round" stroke-linecap="butt" stroke-dashoffset="" fill-rule="nonzero" opacity="1" marker-start="" marker-mid="" marker-end="" d="M441.1367421746254,127.02958160638809 C441.1367421746254,126.75333851246543 441.36049908070277,126.52958160638809 441.63674217462545,126.52958160638809 C441.912985268548,126.52958160638809 442.1367421746254,126.75333851246543 442.1367421746254,127.02958160638809 C442.1367421746254,127.30582470031075 441.912985268548,127.52958160638809 441.63674217462545,127.52958160638809 C441.36049908070277,127.52958160638809 441.1367421746254,127.30582470031075 441.1367421746254,127.02958160638809 z" class="selected" id="svg_27"/><path fill="#ed8f23" fill-opacity="1" stroke="#ed8f23" stroke-opacity="1" stroke-width="2" stroke-dasharray="none" stroke-linejoin="round" stroke-linecap="butt" stroke-dashoffset="" fill-rule="nonzero" opacity="1" marker-start="" marker-mid="" marker-end="" d="M430.03918129205704,127.63933807611465 C430.03918129205704,127.363094982192 430.2629381981344,127.13933807611465 430.53918129205704,127.13933807611465 C430.81542438597967,127.13933807611465 431.03918129205704,127.363094982192 431.03918129205704,127.63933807611465 C431.03918129205704,127.91558117003731 430.81542438597967,128.13933807611465 430.53918129205704,128.13933807611465 C430.2629381981344,128.13933807611465 430.03918129205704,127.91558117003731 430.03918129205704,127.63933807611465 z" class="selected" id="svg_28"/><rect fill="#484848" stroke="#484848" stroke-width="5" stroke-linejoin="round" stroke-dashoffset="" fill-rule="nonzero" id="svg_3" x="703.8938632011414" y="150.53115844726562" width="2" height="34" style="color: rgb(72, 72, 72);" class="selected" transform="rotate(12.58089828491211 704.896484375,160.65106201171906) "/><rect fill="#edad55" stroke="#edad55" stroke-width="2" stroke-linejoin="round" stroke-dashoffset="" fill-rule="nonzero" x="443.1500277519226" y="201.58428955078125" width="65" height="12" style="color: rgb(247, 236, 140);" class="selected" rx="2" ry="2" fill-opacity="1" stroke-opacity="1" id="svg_32" transform="rotate(106.12986755371094 475.65020751953125,207.58419799804685) "/><rect fill="#edad55" stroke="#edad55" stroke-width="2" stroke-linejoin="round" stroke-dashoffset="" fill-rule="nonzero" x="480.40494108200073" y="201.58428955078125" width="65" height="12" style="color: rgb(247, 236, 140);" class="selected" rx="2" ry="2" fill-opacity="1" stroke-opacity="1" transform="rotate(-105.9082260131836 512.9049682617188,207.58419799804688) " id="svg_35"/><rect fill="#fad7a0" stroke="#fad7a0" stroke-width="2" stroke-linejoin="round" stroke-dashoffset="" fill-rule="nonzero" id="svg_4" x="609.2957185506821" y="71.72413635253906" width="19.363636016845703" height="47" style="color: rgb(245, 176, 65);" class="selected"/><rect fill="#85c1e9" stroke="#85c1e9" stroke-width="2" stroke-linejoin="round" stroke-dashoffset="" fill-rule="nonzero" id="svg_2" x="549.4242585897446" y="88.0557632446289" width="137.66665649414062" height="125.98066711425781" style="color: rgb(133, 193, 233);" class="selected" rx="5" ry="5"/><path fill="#e59866" stroke="#e59866" stroke-width="2" stroke-linejoin="round" stroke-dashoffset="" fill-rule="nonzero" marker-start="" marker-mid="" marker-end="" id="svg_8" d="M549.4358955169037,169.86852914224608 L586.3206329742179,135.33237447083133 L623.2053704315321,169.86852914224608 L549.4358955169037,169.86852914224608 z" style="color: rgb(250, 215, 160);" class="selected"/><path fill="#e59866" stroke="#e59866" stroke-width="2" stroke-linejoin="round" stroke-dashoffset="" fill-rule="nonzero" marker-start="" marker-mid="" marker-end="" id="svg_13" d="M609.0268643381081,169.93008356960695 L647.9637473473653,143.66890299705528 L686.9006303566214,169.93008356960695 L609.0268643381081,169.93008356960695 z" style="color: rgb(250, 215, 160);" class="selected"/><rect fill="#82e0aa" stroke="#82e0aa" stroke-width="2" stroke-linejoin="round" stroke-dashoffset="" fill-rule="nonzero" id="svg_16" x="549.4799226522446" y="171.9468536376953" width="137.54286193847656" height="46.79999923706055" style="color: rgb(130, 224, 170);" class="selected"/><path fill="#f7dc6f" fill-opacity="1" stroke="#f7dc6f" stroke-opacity="1" stroke-width="2" stroke-dasharray="none" stroke-linejoin="round" stroke-linecap="butt" stroke-dashoffset="" fill-rule="nonzero" opacity="1" marker-start="" marker-mid="" marker-end="" d="M647.7096478583239,115.35783509261859 C647.7096478583239,108.63693152740674 653.4738110336646,103.19299963958514 660.5900618674182,103.19299963958514 C667.706312701172,103.19299963958514 673.4704758765124,108.63693152740674 673.4704758765124,115.35783509261859 C673.4704758765124,122.07873865783043 667.706312701172,127.52267054565203 660.5900618674182,127.52267054565203 C653.4738110336646,127.52267054565203 647.7096478583239,122.07873865783043 647.7096478583239,115.35783509261859 z" id="svg_19" class="selected"/><path fill="#8ae98a" fill-opacity="1" stroke="#8ae98a" stroke-opacity="1" stroke-width="2" stroke-dasharray="none" stroke-linejoin="round" stroke-linecap="butt" stroke-dashoffset="" fill-rule="nonzero" opacity="1" marker-start="" marker-mid="" marker-end="" d="M521.0736656486988,-93.96028923988342 C521.0736656486988,-94.51277542772874 521.5211794608535,-94.96028923988342 522.0736656486988,-94.96028923988342 C522.6261518365441,-94.96028923988342 523.0736656486988,-94.51277542772874 523.0736656486988,-93.96028923988342 C523.0736656486988,-93.4078030520381 522.6261518365441,-92.96028923988342 522.0736656486988,-92.96028923988342 C521.5211794608535,-92.96028923988342 521.0736656486988,-93.4078030520381 521.0736656486988,-93.96028923988342 z" id="svg_26" class="selected"/><path fill="#f1948a" fill-opacity="1" stroke="#f1948a" stroke-opacity="1" stroke-width="2" stroke-dasharray="none" stroke-linejoin="round" stroke-linecap="butt" stroke-dashoffset="" fill-rule="nonzero" opacity="1" marker-start="" marker-mid="" marker-end="" d="M526.406996101141,-93.8351920247078 C526.406996101141,-94.38767821255311 526.8545099132957,-94.8351920247078 527.406996101141,-94.8351920247078 C527.9594822889862,-94.8351920247078 528.406996101141,-94.38767821255311 528.406996101141,-93.8351920247078 C528.406996101141,-93.28270583686248 527.9594822889862,-92.8351920247078 527.406996101141,-92.8351920247078 C526.8545099132957,-92.8351920247078 526.406996101141,-93.28270583686248 526.406996101141,-93.8351920247078 z" id="svg_15" class="selected"/><path fill="#f7dc6f" fill-opacity="1" stroke="#f7dc6f" stroke-opacity="1" stroke-width="2" stroke-dasharray="none" stroke-linejoin="round" stroke-linecap="butt" stroke-dashoffset="" fill-rule="nonzero" opacity="1" marker-start="" marker-mid="" marker-end="" d="M515.7885058224201,-93.85772547125816 C515.7885058224201,-94.41021165910348 516.2360196345749,-94.85772547125816 516.7885058224201,-94.85772547125816 C517.3409920102654,-94.85772547125816 517.7885058224201,-94.41021165910348 517.7885058224201,-93.85772547125816 C517.7885058224201,-93.30523928341285 517.3409920102654,-92.85772547125816 516.7885058224201,-92.85772547125816 C516.2360196345749,-92.85772547125816 515.7885058224201,-93.30523928341285 515.7885058224201,-93.85772547125816 z" id="svg_23" class="selected"/><rect fill="#f2c076" stroke="#f2c076" stroke-width="2" stroke-linejoin="round" stroke-dashoffset="" fill-rule="nonzero" id="svg_6" x="460.797091960907" y="168.25096130371094" width="65" height="12" style="color: rgb(247, 236, 140);" class="selected" rx="2" ry="2" fill-opacity="1" stroke-opacity="1"/><path fill="#e59866" fill-opacity="1" stroke="#e59866" stroke-opacity="1" stroke-width="3" stroke-dasharray="none" stroke-linejoin="round" stroke-linecap="butt" stroke-dashoffset="" fill-rule="nonzero" opacity="1" marker-start="" marker-mid="" marker-end="" d="M707.772521296413,130.99634438753128 C707.371981296413,121.50012438753129 714.4873812964129,124.59810438753128 717.249811296413,124.59810438753128 C720.012241296413,124.59810438753128 717.772521296413,127.12894438753128 717.772521296413,130.99634438753128 C717.772521296413,134.86374438753128 717.015351296413,138.72125438753127 712.263691296413,137.0864443875313 C707.5120312964129,135.4516443875313 708.173071296413,140.4925643875313 707.772521296413,130.99634438753128 z" id="svg_10" class="selected" transform="rotate(10.780088424682617 712.7753906250002,130.99639892578125) "/><rect fill="#8a8ae9" stroke="#8a8ae9" stroke-width="2" stroke-linejoin="round" stroke-dashoffset="" fill-rule="nonzero" id="svg_7" x="693.6779818534851" y="139.5430450439453" width="3" height="42" style="color: rgb(245, 176, 65);" class="selected" transform="rotate(6.446493625640869 695.1776123046875,160.5429382324221) " fill-opacity="1" stroke-opacity="1"/><path fill="#85c1e9" fill-opacity="1" stroke="#85c1e9" stroke-opacity="1" stroke-width="2" stroke-dasharray="none" stroke-linejoin="round" stroke-linecap="butt" stroke-dashoffset="" fill-rule="nonzero" opacity="1" marker-start="" marker-mid="" marker-end="" d="M709.5087909640408,126.2765648306942 C709.5087909640408,123.7903748306942 711.2829409640408,123.64469483069419 712.3879109640409,123.64469483069419 C713.4928809640408,123.64469483069419 720.2560409640407,124.26070483069421 720.2560409640407,126.7468948306942 C720.2560409640407,129.2330848306942 713.6027709640407,123.6337048306942 711.7285709640408,125.8315048306942 C709.8543709640408,128.0293148306942 709.5087909640408,128.76275483069418 709.5087909640408,126.2765648306942 z" id="svg_17" class="selected"/><path fill="#484848" fill-opacity="1" stroke="#484848" stroke-opacity="1" stroke-width="3" stroke-dasharray="none" stroke-linejoin="round" stroke-linecap="butt" stroke-dashoffset="" fill-rule="nonzero" opacity="1" marker-start="" marker-mid="" marker-end="" d="M705.4570609640407,145.5944848306942 C705.4570609640407,145.4230048306942 706.7646909640407,145.5235648306942 708.4470909640407,145.5235648306942 C710.1294909640408,145.5235648306942 711.5473309640407,145.4230048306942 711.5473309640407,145.5944848306942 C711.5473309640407,145.7659748306942 710.1845909640408,145.9048748306942 708.5022009640408,145.9048748306942 C706.8198009640407,145.9048748306942 705.4570609640407,145.7659748306942 705.4570609640407,145.5944848306942 z" class="selected" transform="rotate(13.6055269241333 708.5049438476562,145.5945739746095) " id="svg_5"/><path fill="#484848" fill-opacity="1" stroke="#484848" stroke-opacity="1" stroke-width="3" stroke-dasharray="none" stroke-linejoin="round" stroke-linecap="butt" stroke-dashoffset="" fill-rule="nonzero" opacity="1" marker-start="" marker-mid="" marker-end="" d="M704.8510016585717,148.2207516001622 C704.8510016585717,148.04926913227985 706.213742212008,147.91036833329514 707.8961379569913,147.91036833329514 C709.5785337019744,147.91036833329514 710.9412742554109,148.04926913227985 710.9412742554109,148.2207516001622 C710.9412742554109,148.39223406804456 709.5785337019744,148.53113486702927 707.8961379569913,148.53113486702927 C706.213742212008,148.53113486702927 704.8510016585717,148.39223406804456 704.8510016585717,148.2207516001622 z" id="svg_9" class="selected" transform="rotate(13.6055269241333 707.8989257812498,148.22085571289082) "/><rect fill="#6d6d6d" stroke="#6d6d6d" stroke-width="10" stroke-linejoin="round" stroke-dashoffset="" fill-rule="nonzero" id="svg_31" x="678.2358431816101" y="167.25540161132812" width="29.59935188293457" height="62" style="color: rgb(245, 176, 65);" class="selected" rx="0" ry="0" fill-opacity="1" stroke-opacity="1"/><path fill="#dadada" stroke="#dadada" stroke-width="3" stroke-linejoin="round" stroke-dashoffset="" fill-rule="nonzero" marker-start="" marker-mid="" marker-end="" id="svg_11" d="M706.7151848053552,143.15838498766607 L707.8278217472715,139.24957556196506 L711.536611752789,139.24957556196506 L712.649248296446,143.15838498766607 L706.7151848053552,143.15838498766607 z" style="color: rgb(72, 72, 72);" class="selected" transform="rotate(-165.65489196777344 709.6849975585938,141.20405578613278) "/><path fill="#f27676" fill-opacity="1" stroke="#f27676" stroke-opacity="1" stroke-width="5" stroke-dasharray="none" stroke-linejoin="round" stroke-linecap="butt" stroke-dashoffset="" fill-rule="nonzero" opacity="1" marker-start="" marker-mid="" marker-end="" d="M367.341799726463,119.20476743641824 C367.341799726463,102.24593089351686 375.97975879908034,112.34097919014722 385.8779139835346,112.34097919014722 C395.77606916798896,112.34097919014722 403.1731213235623,101.31524644010038 403.1731213235623,119.20476743641824 C403.1731213235623,137.0942884327361 395.155615709467,137.54699158731432 385.2574605250127,137.54699158731432 C375.3593053405583,137.54699158731432 367.341799726463,136.16360397931965 367.341799726463,119.20476743641824 z" id="svg_12" class="selected"/><path fill="#ed5555" fill-opacity="1" stroke="#ed5555" stroke-opacity="1" stroke-width="5" stroke-dasharray="none" stroke-linejoin="round" stroke-linecap="butt" stroke-dashoffset="" fill-rule="nonzero" opacity="1" marker-start="" marker-mid="" marker-end="" d="M397.1403394341469,127.62150999903679 C397.1403394341469,125.05998315057043 397.58785324630156,122.98514640331268 398.1403394341469,122.98514640331268 C398.6928256219922,122.98514640331268 399.1403394341469,125.05998315057043 399.1403394341469,127.62150999903679 C399.1403394341469,130.18303684750316 398.6928256219922,132.2578735947609 398.1403394341469,132.2578735947609 C397.58785324630156,132.2578735947609 397.1403394341469,130.18303684750316 397.1403394341469,127.62150999903679 z" id="svg_38" class="selected" transform="rotate(17.125816345214844 398.14086914062506,127.6214675903321) "/><rect fill="#8ae98a" stroke="#8ae98a" stroke-width="2" stroke-linejoin="round" stroke-dashoffset="" fill-rule="nonzero" id="svg_41" x="384.997287273407" y="95.20571899414062" width="2" height="15" style="color: rgb(237, 85, 85);" class="selected"/><path fill="#8ae98a" fill-opacity="1" stroke="#8ae98a" stroke-opacity="1" stroke-width="2" stroke-dasharray="none" stroke-linejoin="round" stroke-linecap="butt" stroke-dashoffset="" fill-rule="nonzero" opacity="1" marker-start="" marker-mid="" marker-end="" d="M372.1603024044609,95.39964301244736 C372.1603024044609,94.01842301244736 374.6295824044609,95.31722301244737 378.2207424044609,95.31722301244737 C381.8119024044609,95.31722301244737 384.7207424044609,96.43600301244736 384.7207424044609,97.81722301244736 C384.7207424044609,99.19844301244736 381.8119024044609,100.31722301244737 378.2207424044609,100.31722301244737 C374.6295824044609,100.31722301244737 372.1603024044609,96.78085301244735 372.1603024044609,95.39964301244736 z" id="svg_47" class="selected"/><path fill="#6767e7" fill-opacity="1" stroke="#6767e7" stroke-opacity="1" stroke-width="2" stroke-dasharray="none" stroke-linejoin="round" stroke-linecap="butt" stroke-dashoffset="" fill-rule="nonzero" opacity="1" marker-start="" marker-mid="" marker-end="" d="M452.1691305041313,129.88865281641483 C452.1691305041313,126.57373568934301 455.07797028313684,123.88865281641483 458.6691305041313,123.88865281641483 C462.2602907251258,123.88865281641483 465.1691305041313,126.57373568934301 465.1691305041313,129.88865281641483 C465.1691305041313,133.20356994348666 462.2602907251258,135.88865281641483 458.6691305041313,135.88865281641483 C455.07797028313684,135.88865281641483 452.1691305041313,133.20356994348666 452.1691305041313,129.88865281641483 z" id="svg_55" class="selected"/><path fill="#8a8ae9" fill-opacity="1" stroke="#8a8ae9" stroke-opacity="1" stroke-width="2" stroke-dasharray="none" stroke-linejoin="round" stroke-linecap="butt" stroke-dashoffset="" fill-rule="nonzero" opacity="1" marker-start="" marker-mid="" marker-end="" d="M453.34495466947556,118.05898214876652 C453.34495466947556,115.02030811561734 456.0300375424037,112.55898214876652 459.34495466947556,112.55898214876652 C462.6598717965474,112.55898214876652 465.34495466947556,115.02030811561734 465.34495466947556,118.05898214876652 C465.34495466947556,121.0976561819157 462.6598717965474,123.55898214876652 459.34495466947556,123.55898214876652 C456.0300375424037,123.55898214876652 453.34495466947556,121.0976561819157 453.34495466947556,118.05898214876652 z" id="svg_50" class="selected"/><path fill="#6767e7" fill-opacity="1" stroke="#6767e7" stroke-opacity="1" stroke-width="2" stroke-dasharray="none" stroke-linejoin="round" stroke-linecap="butt" stroke-dashoffset="" fill-rule="nonzero" opacity="1" marker-start="" marker-mid="" marker-end="" d="M458.7153373242628,110.16526909386755 C458.7153373242628,106.93639484451461 461.7330928726965,104.32100670253874 465.4587170065653,104.32100670253874 C469.18434114043407,104.32100670253874 472.20209668886775,106.93639484451461 472.20209668886775,110.16526909386755 C472.20209668886775,113.39414334322049 469.18434114043407,116.00953148519636 465.4587170065653,116.00953148519636 C461.7330928726965,116.00953148519636 458.7153373242628,113.39414334322049 458.7153373242628,110.16526909386755 z" id="svg_61" class="selected"/><path fill="#6767e7" fill-opacity="1" stroke="#6767e7" stroke-opacity="1" stroke-width="2" stroke-dasharray="none" stroke-linejoin="round" stroke-linecap="butt" stroke-dashoffset="" fill-rule="nonzero" opacity="1" marker-start="" marker-mid="" marker-end="" d="M476.15814289010945,110.78984197021511 C476.15814289010945,107.18962469172403 479.2687306187257,104.27344869614627 483.10896238244953,104.27344869614627 C486.94919414617334,104.27344869614627 490.0597818747896,107.18962469172403 490.0597818747896,110.78984197021511 C490.0597818747896,114.39005924870618 486.94919414617334,117.30623524428394 483.10896238244953,117.30623524428394 C479.2687306187257,117.30623524428394 476.15814289010945,114.39005924870618 476.15814289010945,110.78984197021511 z" id="svg_63" class="selected"/><path fill="#6767e7" fill-opacity="1" stroke="#6767e7" stroke-opacity="1" stroke-width="2" stroke-dasharray="none" stroke-linejoin="round" stroke-linecap="butt" stroke-dashoffset="" fill-rule="nonzero" opacity="1" marker-start="" marker-mid="" marker-end="" d="M477.24743809367817,126.78876106620172 C477.24743809367817,123.09797230714928 480.4362795814995,120.10843341231683 484.3731209244887,120.10843341231683 C488.309962267478,120.10843341231683 491.49880375529926,123.09797230714928 491.49880375529926,126.78876106620172 C491.49880375529926,130.47954982525414 488.309962267478,133.4690887200866 484.3731209244887,133.4690887200866 C480.4362795814995,133.4690887200866 477.24743809367817,130.47954982525414 477.24743809367817,126.78876106620172 z" class="selected" id="svg_68"/><path fill="#8a8ae9" fill-opacity="1" stroke="#8a8ae9" stroke-opacity="1" stroke-width="2" stroke-dasharray="none" stroke-linejoin="round" stroke-linecap="butt" stroke-dashoffset="" fill-rule="nonzero" opacity="1" marker-start="" marker-mid="" marker-end="" d="M465.3465205320256,131.6064503307715 C465.3465205320256,128.36851946848697 468.3189410636028,125.74579547003655 471.9885960408585,125.74579547003655 C475.65825101811424,125.74579547003655 478.63067154969144,128.36851946848697 478.63067154969144,131.6064503307715 C478.63067154969144,134.844381193056 475.65825101811424,137.46710519150645 471.9885960408585,137.46710519150645 C468.3189410636028,137.46710519150645 465.3465205320256,134.844381193056 465.3465205320256,131.6064503307715 z" class="selected" id="svg_66"/><path fill="#ababec" fill-opacity="1" stroke="#ababec" stroke-opacity="1" stroke-width="2" stroke-dasharray="none" stroke-linejoin="round" stroke-linecap="butt" stroke-dashoffset="" fill-rule="nonzero" opacity="1" marker-start="" marker-mid="" marker-end="" d="M481.0152883420747,118.94701335208934 C481.0152883420747,116.02861689027146 483.80898968234226,113.66471575619896 487.25800368267244,113.66471575619896 C490.70701768300273,113.66471575619896 493.50071902327016,116.02861689027146 493.50071902327016,118.94701335208934 C493.50071902327016,121.86540981390723 490.70701768300273,124.22931094797973 487.25800368267244,124.22931094797973 C483.80898968234226,124.22931094797973 481.0152883420747,121.86540981390723 481.0152883420747,118.94701335208934 z" class="selected" id="svg_67"/><path fill="#8a8ae9" fill-opacity="1" stroke="#8a8ae9" stroke-opacity="1" stroke-width="2" stroke-dasharray="none" stroke-linejoin="round" stroke-linecap="butt" stroke-dashoffset="" fill-rule="nonzero" opacity="1" marker-start="" marker-mid="" marker-end="" d="M466.9053950586606,116.09573206948777 C466.9053950586606,112.67665775211941 470.04410528200475,109.90720755505104 473.9190561750222,109.90720755505104 C477.79400706803966,109.90720755505104 480.9327172913838,112.67665775211941 480.9327172913838,116.09573206948777 C480.9327172913838,119.51480638685614 477.79400706803966,122.28425658392449 473.9190561750222,122.28425658392449 C470.04410528200475,122.28425658392449 466.9053950586606,119.51480638685614 466.9053950586606,116.09573206948777 z" id="svg_53" class="selected"/><path fill="#ababec" fill-opacity="1" stroke="#ababec" stroke-opacity="1" stroke-width="2" stroke-dasharray="none" stroke-linejoin="round" stroke-linecap="butt" stroke-dashoffset="" fill-rule="nonzero" opacity="1" marker-start="" marker-mid="" marker-end="" d="M461.6746280274442,122.85441530384423 C461.6746280274442,119.30201799212253 465.0752410903924,116.42457616962793 469.2735288224271,116.42457616962793 C473.47181655446184,116.42457616962793 476.87242961741003,119.30201799212253 476.87242961741003,122.85441530384423 C476.87242961741003,126.40681261556595 473.47181655446184,129.28425443806054 469.2735288224271,129.28425443806054 C465.0752410903924,129.28425443806054 461.6746280274442,126.40681261556595 461.6746280274442,122.85441530384423 z" id="svg_58" class="selected"/><rect fill="#6ebc54" stroke="#6ebc54" stroke-width="5" stroke-linejoin="round" stroke-dashoffset="" fill-rule="nonzero" id="svg_14" x="165.5262942314148" y="146.7927439212799" width="206.50575256347656" height="85.44444274902344" style="color: rgb(110, 188, 84);" class="selected"/><rect fill="#4e8c39" stroke="#4e8c39" stroke-width="5" stroke-linejoin="round" stroke-dashoffset="" fill-rule="nonzero" id="svg_29" x="353.96206998825073" y="172.87350869178772" width="40.415096282958984" height="60" style="color: rgb(78, 140, 57);" class="selected"/><rect fill="#4e8c39" stroke="#4e8c39" stroke-width="5" stroke-linejoin="round" stroke-dashoffset="" fill-rule="nonzero" x="144.52811002731323" y="175.13765358924866" width="40.415096282958984" height="58.11320877075195" style="color: rgb(78, 140, 57);" class="selected" id="svg_36"/><rect fill="#54a854" stroke="#54a854" stroke-width="5" stroke-linejoin="round" stroke-dashoffset="" fill-rule="nonzero" id="svg_43" x="230.39601469039917" y="146.89238381385803" width="77.8888931274414" height="69.22222900390625" style="color: rgb(89, 201, 52);" class="selected" fill-opacity="1" stroke-opacity="1" rx="0" ry="0"/><rect fill="#4e8c39" stroke="#4e8c39" stroke-width="5" stroke-linejoin="round" stroke-dashoffset="" fill-rule="nonzero" id="svg_30" x="165.56582975387573" y="191.8883249759674" width="227.05661010742188" height="39.73794174194336" style="color: rgb(78, 140, 57);" class="selected"/></g></svg>