<svg xmlns="http://www.w3.org/2000/svg" xmlns:se="http://svg-edit.googlecode.com" xmlns:xlink="http://www.w3.org/1999/xlink" xmlns:dc="http://purl.org/dc/elements/1.1/" xmlns:cc="http://creativecommons.org/ns#" xmlns:rdf="http://www.w3.org/1999/02/22-rdf-syntax-ns#" xmlns:inkscape="http://www.inkscape.org/namespaces/inkscape" width="776" height="290" style="">                                    <title>my vector image</title>                                    <!-- Created with Vector Paint - http://www.vectorpaint.yaks.com/ https://chrome.google.com/webstore/detail/hnbpdiengicdefcjecjbnjnoifekhgdo -->                                    <rect id="backgroundrect" width="100%" height="100%" x="0" y="0" fill="#FFFFFF" stroke="none" style="" class="" opacity="0"/>                                <g class="currentLayer" style=""><title>Layer 1</title><path fill="#6d6d6d" fill-opacity="1" stroke="#6d6d6d" stroke-opacity="1" stroke-width="1" stroke-dasharray="none" stroke-linejoin="round" stroke-linecap="butt" stroke-dashoffset="" fill-rule="nonzero" opacity="1" marker-start="" marker-mid="" marker-end="" d="M356.2371695223427,273.39736 C356.2371695223427,156.79118 447.6088895223427,62.34018 560.4134795223426,62.34018 C673.2180695223427,62.34018 611.6425995223427,140.71727 611.6425995223427,257.32345 C611.6425995223427,373.92963 673.2180695223427,484.45454 560.4134795223426,484.45454 C447.6088895223427,484.45454 356.2371695223427,390.00354 356.2371695223427,273.39736 z" id="svg_1" class="selected" transform="rotate(15.131710052490234 491.3010864257811,273.39730834960943) "/><path fill="#5dade2" fill-opacity="1" stroke="#5dade2" stroke-opacity="1" stroke-width="1" stroke-dasharray="none" stroke-linejoin="round" stroke-linecap="butt" stroke-dashoffset="" fill-rule="nonzero" opacity="1" marker-start="" marker-mid="" marker-end="" d="M453.6917000412941,145.68181890249252 C453.6917000412941,131.04093492459197 466.4458436877029,119.18181890249252 482.1917000412941,119.18181890249252 C497.9375563948853,119.18181890249252 510.6917000412941,131.04093492459197 510.6917000412941,145.68181890249252 C510.6917000412941,160.32270288039308 497.9375563948853,172.18181890249252 482.1917000412941,172.18181890249252 C466.4458436877029,172.18181890249252 453.6917000412941,160.32270288039308 453.6917000412941,145.68181890249252 z" id="svg_6" class="selected"/><path fill="#f4d03f" fill-opacity="1" stroke="#f4d03f" stroke-opacity="1" stroke-width="1" stroke-dasharray="none" stroke-linejoin="round" stroke-linecap="butt" stroke-dashoffset="" fill-rule="nonzero" opacity="1" marker-start="" marker-mid="" marker-end="" d="M404.05534076690674,196.68181824684143 C404.05534076690674,182.04093426894087 416.5857275072382,170.18181824684143 432.05534076690674,170.18181824684143 C447.5249540265753,170.18181824684143 460.05534076690674,182.04093426894087 460.05534076690674,196.68181824684143 C460.05534076690674,211.322702224742 447.5249540265753,223.18181824684143 432.05534076690674,223.18181824684143 C416.5857275072382,223.18181824684143 404.05534076690674,211.322702224742 404.05534076690674,196.68181824684143 z" id="svg_9" class="selected"/><path fill="#ec7063" fill-opacity="1" stroke="#ec7063" stroke-opacity="1" stroke-width="1" stroke-dasharray="none" stroke-linejoin="round" stroke-linecap="butt" stroke-dashoffset="" fill-rule="nonzero" opacity="1" marker-start="" marker-mid="" marker-end="" d="M370.55184268951416,260.54545521736145 C370.55184268951416,245.67855411471584 383.5203548821296,233.63636422157288 399.53086376190186,233.63636422157288 C415.5413726416741,233.63636422157288 428.50988483428955,245.67855411471584 428.50988483428955,260.54545521736145 C428.50988483428955,275.41235632000706 415.5413726416741,287.45454621315 399.53086376190186,287.45454621315 C383.5203548821296,287.45454621315 370.55184268951416,275.41235632000706 370.55184268951416,260.54545521736145 z" id="svg_12" class="selected"/><path fill="#58d68d" fill-opacity="1" stroke="#58d68d" stroke-opacity="1" stroke-width="1" stroke-dasharray="none" stroke-linejoin="round" stroke-linecap="butt" stroke-dashoffset="" fill-rule="nonzero" opacity="1" marker-start="" marker-mid="" marker-end="" d="M522.8020886831084,121.00000051167103 C522.8020886831084,106.28377731655816 535.9993874127256,94.36363652851674 552.292348807315,94.36363652851674 C568.5853102019042,94.36363652851674 581.7826089315215,106.28377731655816 581.7826089315215,121.00000051167103 C581.7826089315215,135.7162237067839 568.5853102019042,147.63636449482533 552.292348807315,147.63636449482533 C535.9993874127256,147.63636449482533 522.8020886831084,135.7162237067839 522.8020886831084,121.00000051167103 z" id="svg_16" class="selected"/><path fill="#030518" fill-opacity="1" stroke="#030518" stroke-opacity="1" stroke-width="1" stroke-dasharray="none" stroke-linejoin="round" stroke-linecap="butt" stroke-dashoffset="" fill-rule="nonzero" opacity="1" marker-start="" marker-mid="" marker-end="" d="M615.7643310597317,146.21349655825654 C615.7643310597317,133.57435351421515 622.5377173032883,123.33664764854163 630.899922542247,123.33664764854163 C639.2621277812058,123.33664764854163 646.0355140247625,133.57435351421515 646.0355140247625,146.21349655825654 C646.0355140247625,158.85263960229796 639.2621277812058,169.09034546797145 630.899922542247,169.09034546797145 C622.5377173032883,169.09034546797145 615.7643310597317,158.85263960229796 615.7643310597317,146.21349655825654 z" id="svg_3" class="selected" transform="rotate(18.396696090698242 630.8998413085938,146.21348571777344) "/><path fill="#6d6d6d" fill-opacity="1" stroke="#6d6d6d" stroke-opacity="1" stroke-width="1" stroke-dasharray="none" stroke-linejoin="round" stroke-linecap="butt" stroke-dashoffset="" fill-rule="nonzero" opacity="1" marker-start="" marker-mid="" marker-end="" id="svg_8" d="M648.5492402606554,189.83332833316612 " style="color: rgb(109, 109, 109);" class="selected"/><path fill="#6d6d6d" fill-opacity="1" stroke="#6d6d6d" stroke-opacity="1" stroke-width="1" stroke-dasharray="none" stroke-linejoin="round" stroke-linecap="butt" stroke-dashoffset="" fill-rule="nonzero" opacity="1" marker-start="" marker-mid="" marker-end="" d="M548.3647399395752,267.03068095367433 C548.3647399395752,225.0417309536743 608.0551699395752,178.8333409536743 627.1159499395752,178.8333409536743 C646.1767199395752,178.8333409536743 622.7534299395752,221.74450095367433 622.7534299395752,263.7334509536743 C622.7534299395752,305.7224009536743 646.1767199395752,330.83334095367434 627.1159499395752,330.83334095367434 C608.0551699395752,330.83334095367434 548.3647399395752,309.0196309536743 548.3647399395752,267.03068095367433 z" id="svg_4" class="selected" transform="rotate(10.649540901184082 591.47607421875,254.83332824707065) "/></g><defs><filter id="f034" inkscape:label="Organic" x="0" y="0" width="1" height="1" inkscape:menu="Textures" inkscape:menu-tooltip="Bulging, knotty, slick 3D surface" color-interpolation-filters="sRGB">
            <feTurbulence numOctaves="3" baseFrequency=".037" result="result0"/>
            <feSpecularLighting specularExponent="24.3" surfaceScale="2" specularConstant="1" result="result1">
                <feDistantLight elevation="45" azimuth="225"/>
            </feSpecularLighting>
            <feDiffuseLighting in="result0" surfaceScale="3" diffuseConstant="1.21">
                <feDistantLight azimuth="225" elevation="42"/>
            </feDiffuseLighting>
            <feBlend in2="SourceGraphic" mode="multiply" result="result91"/>
            <feComposite operator="arithmetic" in="result1" k2="1" k3="1" in2="result91"/>
            <feComposite in2="SourceAlpha" operator="in" result="result2"/>
        </filter><linearGradient id="svg_15" spreadMethod="pad"><stop stop-color="#ffffff" stop-opacity="1" offset="0"/><stop stop-color="#000000" stop-opacity="1" offset="1"/></linearGradient><linearGradient id="svg_17" spreadMethod="pad" x1="0.0" y1="0.0" x2="1" y2="0.0"><stop stop-color="#ffffff" stop-opacity="1" offset="0"/><stop stop-color="#000000" stop-opacity="1" offset="1"/></linearGradient><linearGradient id="svg_19" spreadMethod="reflect"><stop stop-color="#dadada" stop-opacity="1" offset="0"/><stop stop-color="#252525" stop-opacity="1" offset="1"/></linearGradient><linearGradient id="svg_2" spreadMethod="pad" x1="0.0" y1="0.0" x2="1" y2="0.0"><stop stop-color="#dadada" stop-opacity="1" offset="0"/><stop stop-color="#252525" stop-opacity="1" offset="1"/></linearGradient></defs></svg>