<svg xmlns="http://www.w3.org/2000/svg" xmlns:se="http://svg-edit.googlecode.com" xmlns:xlink="http://www.w3.org/1999/xlink" xmlns:dc="http://purl.org/dc/elements/1.1/" xmlns:cc="http://creativecommons.org/ns#" xmlns:rdf="http://www.w3.org/1999/02/22-rdf-syntax-ns#" xmlns:inkscape="http://www.inkscape.org/namespaces/inkscape" width="288" height="288" style="">
                                    <title>my vector image</title>
                                    <!-- Created with Vector Paint - http://www.vectorpaint.yaks.com/ https://chrome.google.com/webstore/detail/hnbpdiengicdefcjecjbnjnoifekhgdo -->
                                    <rect id="backgroundrect" width="100%" height="100%" x="0" y="0" fill="#FFFFFF" stroke="none" style="" class="" opacity="0"/>
                                <g style="" class="currentLayer"><title>Layer 1</title><path fill="#242424" fill-opacity="1" stroke="#242424" stroke-opacity="1" stroke-width="15" stroke-dasharray="none" stroke-linejoin="round" stroke-linecap="butt" stroke-dashoffset="" fill-rule="nonzero" opacity="1" marker-start="" marker-mid="" marker-end="" d="M18.765495240688324,143.32903449284947 C18.765495240688324,72.79647431696213 75.2944759940574,15.665100574493408 145.08334112167358,15.665100574493408 C214.87220624928977,15.665100574493408 271.40118700265884,72.79647431696213 271.40118700265884,143.32903449284947 C271.40118700265884,213.8615946687368 214.87220624928977,270.99296841120554 145.08334112167358,270.99296841120554 C75.2944759940574,270.99296841120554 18.765495240688324,213.8615946687368 18.765495240688324,143.32903449284947 z" id="svg_1" class=""/><path fill="#ffffff" fill-opacity="1" stroke="#ffffff" stroke-opacity="1" stroke-width="15" stroke-dasharray="none" stroke-linejoin="round" stroke-linecap="butt" stroke-dashoffset="" fill-rule="nonzero" opacity="1" marker-start="" marker-mid="" marker-end="" d="M75.81912640885055,135.48436469805574 C75.81912640885055,102.09498143997382 107.66556991712719,75.04958100092745 146.98216684092554,75.04958100092745 C186.29876376472384,75.04958100092745 218.14520727300052,102.09498143997382 218.14520727300052,135.48436469805574 C218.14520727300052,168.8737479561377 186.29876376472384,195.91914839518404 146.98216684092554,195.91914839518404 C107.66556991712719,195.91914839518404 75.81912640885055,168.8737479561377 75.81912640885055,135.48436469805574 z" id="svg_2" class=""/><path fill="#ffffff" stroke="#ffffff" stroke-width="15" stroke-linejoin="round" stroke-dashoffset="" fill-rule="nonzero" marker-start="" marker-mid="" marker-end="" id="svg_3" d="M88.35598715536553,103.73089923272889 C80.70598732437531,101.560320345044 75.22272092826039,94.66334847309199 76.4688470716144,88.77898260803144 C77.25461676453294,85.06844320749335 93.83237802114256,62.54288179168188 95.28014147332422,63.218522140900646 C95.75267212814494,63.43904113261988 99.95760518266727,68.6906946095011 104.62443694772139,74.88886549218213 C112.10021054870096,84.81768132835305 113.10958064551069,86.66909848404467 113.10958064551069,90.45257499550738 C113.10958064551069,98.1215255798254 104.98141462835802,104.40326588150535 95.22186698369363,104.27685099706656 C92.37389340301331,104.2399562143307 89.28424565941289,103.9942788140821 88.35598715536553,103.7309006076564 L88.35598715536553,103.73089923272889 zM96.02042268669355,99.87369915227836 C96.27364103983804,98.8808425923261 95.68213603331574,98.39663053597053 94.21604208221846,98.39663053597053 C90.87466362007937,98.39663053597053 86.23962936196752,95.20107955076344 85.20409182700733,92.18348945151422 C84.09945484802503,88.96453996393839 81.17056996809578,88.58171087674663 80.73795781208779,91.5997313280489 C79.90447091896911,97.41437741063268 94.61624492561504,105.37936483498791 96.02042086583884,99.87369915227836 L96.02042268669355,99.87369915227836 z" style="color: rgb(0, 0, 0);" class="" transform="rotate(-38.64204406738281 94.70079040527344,83.74118041992188) "/><path fill="#ffffff" stroke="#ffffff" stroke-width="15" stroke-linejoin="round" stroke-dashoffset="" fill-rule="nonzero" marker-start="" marker-mid="" marker-end="" d="M188.89249947063882,102.53524674783509 C181.2424996396486,100.3646678601502 175.75923324353369,93.46769598819819 177.00535938688768,87.58333012313764 C177.79112907980624,83.87279072259955 194.36889033641586,61.34722930678808 195.8166537885975,62.02286965600685 C196.2891844434182,62.24338864772608 200.49411749794055,67.4950421246073 205.16094926299468,73.69321300728834 C212.63672286397423,83.62202884345925 213.64609296078396,85.47344599915087 213.64609296078396,89.25692251061358 C213.64609296078396,96.9258730949316 205.51792694363132,103.20761339661155 195.75837929896693,103.08119851217276 C192.9104057182866,103.0443037294369 189.82075797468616,102.7986263291883 188.89249947063882,102.5352481227626 L188.89249947063882,102.53524674783509 zM196.55693500196685,98.67804666738456 C196.8101533551113,97.6851901074323 196.21864834858903,97.20097805107673 194.75255439749174,97.20097805107673 C191.41117593535267,97.20097805107673 186.7761416772408,94.00542706586964 185.74060414228063,90.98783696662042 C184.63596716329832,87.7688874790446 181.70708228336906,87.38605839185283 181.27447012736107,90.4040788431551 C180.4409832342424,96.21872492573888 195.15275724088832,104.18371235009411 196.55693318111213,98.67804666738456 L196.55693500196685,98.67804666738456 z" style="color: rgb(0, 0, 0);" class="" transform="rotate(32.76707458496094 195.23727416992185,82.5455322265625) " id="svg_7"/><path fill="#ffffff" fill-opacity="1" stroke="#ffffff" stroke-opacity="1" stroke-width="15" stroke-dasharray="none" stroke-linejoin="round" stroke-linecap="butt" stroke-dashoffset="" fill-rule="nonzero" opacity="1" marker-start="" marker-mid="" marker-end="" d="M114.9950692653656,239.00000619888306 C114.9950692653656,215.24310012153498 123.49783169630481,196.00000619888306 133.9950692653656,196.00000619888306 C144.4923068344264,196.00000619888306 152.9950692653656,215.24310012153498 152.9950692653656,239.00000619888306 C152.9950692653656,262.7569122762311 144.4923068344264,282.00000619888306 133.9950692653656,282.00000619888306 C123.49783169630481,282.00000619888306 114.9950692653656,262.7569122762311 114.9950692653656,239.00000619888306 z" class="" id="svg_4" transform="rotate(2.3031656742095947 133.99510192871074,239.00000000000045) "/><path fill="#ffffff" fill-opacity="1" stroke="#ffffff" stroke-opacity="1" stroke-width="15" stroke-dasharray="none" stroke-linejoin="round" stroke-linecap="butt" stroke-dashoffset="" fill-rule="nonzero" opacity="1" marker-start="" marker-mid="" marker-end="" d="M142.87684252858162,236.83251881599426 C142.87684252858162,213.07561273864619 151.37960495952083,193.83251881599426 161.87684252858162,193.83251881599426 C172.3740800976424,193.83251881599426 180.87684252858162,213.07561273864619 180.87684252858162,236.83251881599426 C180.87684252858162,260.5894248933423 172.3740800976424,279.83251881599426 161.87684252858162,279.83251881599426 C151.37960495952083,279.83251881599426 142.87684252858162,260.5894248933423 142.87684252858162,236.83251881599426 z" class="" id="svg_5" transform="rotate(-6.541128158569336 163.35458374023455,236.83251953125009) "/><path fill="#ffffff" fill-opacity="1" stroke="#ffffff" stroke-opacity="1" stroke-width="15" stroke-dasharray="none" stroke-linejoin="round" stroke-linecap="butt" stroke-dashoffset="" fill-rule="nonzero" opacity="1" marker-start="" marker-mid="" marker-end="" d="M131.34974911808968,242.54680395126343 C131.34974911808968,218.78989787391538 139.8525115490289,199.54680395126343 150.34974911808968,199.54680395126343 C160.84698668715046,199.54680395126343 169.34974911808968,218.78989787391538 169.34974911808968,242.54680395126343 C169.34974911808968,266.3037100286115 160.84698668715046,285.5468039512634 150.34974911808968,285.5468039512634 C139.8525115490289,285.5468039512634 131.34974911808968,266.3037100286115 131.34974911808968,242.54680395126343 z" class="" transform="rotate(-0.503737211227417 150.34976196288983,242.54681396484185) " id="svg_6"/><path fill="#ffffff" stroke="#ffffff" stroke-width="15" stroke-linejoin="round" stroke-dashoffset="" fill-rule="nonzero" marker-start="" marker-mid="" marker-end="" id="svg_10" d="M101.766875732481,248.61383394649366 L101.766875732481,248.61383394649366 C93.19150341846745,248.61383394649366 86.23979035623015,234.27427882652702 86.23979035623015,216.58555212770725 C86.23979035623015,198.89681900054418 93.19150341846745,184.55727030891617 101.766875732481,184.55727030891617 L101.766875732481,184.55727030891617 C96.87961167779622,192.11811939840314 94.00333304435506,203.98413340725747 94.00333304435506,216.58555212770725 C94.00333304435506,229.1869687053754 96.87961167779622,241.05297628588008 101.766875732481,248.61383394649366 z" style="color: rgb(0, 0, 0);" class="" transform="rotate(-66.33665466308594 94.0033340454101,216.5855560302734) "/><path fill="#ffffff" stroke="#ffffff" stroke-width="15" stroke-linejoin="round" stroke-dashoffset="" fill-rule="nonzero" marker-start="" marker-mid="" marker-end="" d="M62.580327010735864,206.30225603100592 L62.580327010735864,206.30225603100592 C59.09814133199225,206.30225603100592 56.27527198222661,199.8715420979404 56.27527198222661,191.938859369039 C56.27527198222661,184.00617375728405 59.09814133199225,177.57546270706987 62.580327010735864,177.57546270706987 L62.580327010735864,177.57546270706987 C60.59576467614766,180.96619953110627 59.42779949648103,186.28762972739173 59.42779949648103,191.938859369039 C59.42779949648103,197.59008804973476 60.59576467614766,202.9115153631639 62.580327010735864,206.30225603100592 z" style="color: rgb(0, 0, 0);" class="selected" transform="rotate(133.74044799804688 59.42780303955076,191.9388580322266) " id="svg_12"/></g></svg>