<svg xmlns="http://www.w3.org/2000/svg" xmlns:se="http://svg-edit.googlecode.com" xmlns:xlink="http://www.w3.org/1999/xlink" xmlns:dc="http://purl.org/dc/elements/1.1/" xmlns:cc="http://creativecommons.org/ns#" xmlns:rdf="http://www.w3.org/1999/02/22-rdf-syntax-ns#" xmlns:inkscape="http://www.inkscape.org/namespaces/inkscape" width="288" height="288" style="">
                                    <title>my vector image</title>
                                    <!-- Created with Vector Paint - http://www.vectorpaint.yaks.com/ https://chrome.google.com/webstore/detail/hnbpdiengicdefcjecjbnjnoifekhgdo -->
                                    <rect id="backgroundrect" width="100%" height="100%" x="0" y="0" fill="#FFFFFF" stroke="none" style="" class="" opacity="0"/>
                                <g style="" class="currentLayer"><title>Layer 1</title><path fill="#8e44ad" fill-opacity="1" stroke="#8e44ad" stroke-opacity="1" stroke-width="15" stroke-dasharray="none" stroke-linejoin="round" stroke-linecap="butt" stroke-dashoffset="" fill-rule="nonzero" opacity="1" marker-start="" marker-mid="" marker-end="" d="M19.75071692466736,143.32903449284947 C19.75071692466736,72.79647431696213 76.27969767803643,15.665100574493408 146.06856280565262,15.665100574493408 C215.8574279332688,15.665100574493408 272.3864086866379,72.79647431696213 272.3864086866379,143.32903449284947 C272.3864086866379,213.8615946687368 215.8574279332688,270.99296841120554 146.06856280565262,270.99296841120554 C76.27969767803643,270.99296841120554 19.75071692466736,213.8615946687368 19.75071692466736,143.32903449284947 z" id="svg_1" class=""/><rect fill="#f7dc6f" stroke="#f7dc6f" stroke-width="15" stroke-linejoin="round" stroke-dashoffset="" fill-rule="nonzero" id="svg_2" x="154.59718322753906" y="158.3700180053711" width="83.01638793945312" height="25.98360824584961" style="color: rgb(247, 220, 111);" class="" rx="15" ry="15"/><rect fill="#f1948a" stroke="#f1948a" stroke-width="15" stroke-linejoin="round" stroke-dashoffset="" fill-rule="nonzero" x="77.05619812011719" y="184.92737579345703" width="83.01638793945312" height="25.98360824584961" style="color: rgb(247, 220, 111);" class="" rx="15" ry="15" id="svg_4" fill-opacity="1" stroke-opacity="1" transform="rotate(90.6948013305664 118.56439208984375,197.9192047119141) "/><rect fill="#82e0aa" stroke="#82e0aa" stroke-width="15" stroke-linejoin="round" stroke-dashoffset="" fill-rule="nonzero" x="125.7447280883789" y="79.5175552368164" width="83.01638793945312" height="25.98360824584961" style="color: rgb(247, 220, 111);" class="" rx="15" ry="15" id="svg_5" fill-opacity="1" stroke-opacity="1" transform="rotate(89.98005676269531 167.25292968750003,92.5093536376953) "/><rect fill="#85c1e9" stroke="#85c1e9" stroke-width="15" stroke-linejoin="round" stroke-dashoffset="" fill-rule="nonzero" x="49.02341842651367" y="108.53396606445312" width="83.01638793945312" height="25.98360824584961" style="color: rgb(247, 220, 111);" class="" rx="15" ry="15" id="svg_6" fill-opacity="1" stroke-opacity="1"/><path fill="#f7dc6f" stroke="#f7dc6f" stroke-width="15" stroke-linejoin="round" stroke-dashoffset="" fill-rule="nonzero" marker-start="" marker-mid="" marker-end="" id="svg_3" d="M165.3125201704586,233.10819289081655 C159.69221521695678,231.3598208250969 155.66376685508902,225.8044028546255 156.57927131141355,221.0646253872818 C157.15656090553563,218.07583586506848 169.3359172149335,199.931799466536 170.39956065043287,200.47601866987821 C170.7467196620199,200.6536437482709 173.83600157020408,204.88377990683654 177.26463140886992,209.87632309027686 C182.75693576561585,217.87385054809943 183.49850019441882,219.365142136425 183.49850019441882,222.4126815193406 C183.49850019441882,228.58991794740837 177.5268959148903,233.6497751725342 170.35674752495163,233.5479496853804 C168.2643971489236,233.51823143470017 165.99449350165813,233.3203415970117 165.3125201704586,233.10819399830137 L165.3125201704586,233.10819289081655 zM170.94343075009317,230.00127016581735 C171.12946531165588,229.20153757626093 170.6948981754908,228.81151128510845 169.61778768167798,228.81151128510845 C167.1629424088456,228.81151128510845 163.75767357537458,226.23753799677775 162.9968844425872,223.80690980572246 C162.18532930245817,221.21408933880957 160.03353498055208,220.9057256641289 159.7157033077338,223.33670049796808 C159.10335682177438,228.02031961935177 169.91180886766858,234.43600973573285 170.9434294123491,230.00127016581735 L170.94343075009317,230.00127016581735 z" style="color: rgb(241, 148, 138);" class="" transform="rotate(-56.055965423583984 169.9739227294921,217.00674438476557) "/><path fill="#82e0aa" stroke="#82e0aa" stroke-width="15" stroke-linejoin="round" stroke-dashoffset="" fill-rule="nonzero" marker-start="" marker-mid="" marker-end="" d="M208.59121241594198,137.862299412423 C202.9709074624402,136.11392734670335 198.94245910057242,130.55850937623194 199.85796355689695,125.81873190888825 C200.43525315101903,122.82994238667493 212.6146094604169,104.68590598814245 213.67825289591627,105.23012519148466 C214.02541190750333,105.40775026987734 217.11469381568747,109.63788642844298 220.54332365435334,114.6304296118833 C226.03562801109922,122.62795706970587 226.77719243990225,124.11924865803144 226.77719243990225,127.16678804094704 C226.77719243990225,133.3440244690148 220.8055881603737,138.40388169414064 213.63543977043503,138.30205620698683 C211.543089394407,138.27233795630661 209.2731857471415,138.07444811861814 208.59121241594198,137.86230051990782 L208.59121241594198,137.862299412423 zM214.22212299557657,134.7553766874238 C214.40815755713925,133.95564409786738 213.97359042097423,133.5656178067149 212.8964799271614,133.5656178067149 C210.441634654329,133.5656178067149 207.036365820858,130.9916445183842 206.2755766880706,128.5610163273289 C205.46402154794157,125.96819586041602 203.31222722603547,125.65983218573535 202.9943955532172,128.09080701957453 C202.38204906725775,132.7744261409582 213.19050111315198,139.1901162573393 214.22212165783253,134.7553766874238 L214.22212299557657,134.7553766874238 z" style="color: rgb(241, 148, 138);" class="" transform="rotate(-134.75820922851562 213.2526092529297,121.7608413696289) " id="svg_8" fill-opacity="1" stroke-opacity="1"/><path fill="#85c1e9" stroke="#85c1e9" stroke-width="15" stroke-linejoin="round" stroke-dashoffset="" fill-rule="nonzero" marker-start="" marker-mid="" marker-end="" d="M113.83711924577597,90.64918848865591 C108.2168142922742,88.90081642293626 104.1883659304064,83.34539845246485 105.10387038673093,78.60562098512116 C105.68115998085301,75.61683146290784 117.86051629025087,57.47279506437536 118.92415972575026,58.01701426771757 C119.27131873733731,58.19463934611025 122.36060064552146,62.42477550467589 125.78923048418733,67.41731868811621 C131.2815348409332,75.41484614593878 132.02309926973624,76.90613773426435 132.02309926973624,79.95367711717995 C132.02309926973624,86.13091354524772 126.05149499020769,91.19077077037355 118.88134660026901,91.08894528321974 C116.78899622424098,91.05922703253952 114.51909257697548,90.86133719485105 113.83711924577597,90.64918959614073 L113.83711924577597,90.64918848865591 zM119.46802982541055,87.5422657636567 C119.65406438697323,86.74253317410029 119.21949725080822,86.35250688294781 118.14238675699539,86.35250688294781 C115.68754148416298,86.35250688294781 112.282272650692,83.7785335946171 111.52148351790458,81.34790540356181 C110.70992837777555,78.75508493664893 108.55813405586946,78.44672126196826 108.24030238305119,80.87769609580744 C107.62795589709174,85.56131521719112 118.43640794298597,91.97700533357221 119.46802848766652,87.5422657636567 L119.46802982541055,87.5422657636567 z" style="color: rgb(241, 148, 138);" class="" fill-opacity="1" stroke-opacity="1" id="svg_7" transform="rotate(131.60491943359375 118.49850463867189,74.5477294921875) "/><path fill="#f1948a" stroke="#f1948a" stroke-width="15" stroke-linejoin="round" stroke-dashoffset="" fill-rule="nonzero" marker-start="" marker-mid="" marker-end="" d="M66.6240126135433,186.87870547168814 C61.00370766004153,185.13033340596849 56.97525929817374,179.57491543549708 57.890763754498266,174.8351379681534 C58.468053348620344,171.84634844594007 70.6474096580182,153.7023120474076 71.71105309351759,154.2465312507498 C72.05821210510464,154.42415632914248 75.14749401328879,158.65429248770812 78.57612385195466,163.64683567114844 C84.06842820870054,171.644363128971 84.80999263750357,173.13565471729657 84.80999263750357,176.18319410021218 C84.80999263750357,182.36043052827995 78.83838835797502,187.42028775340577 71.66823996803635,187.31846226625197 C69.57588959200831,187.28874401557175 67.30598594474282,187.09085417788327 66.6240126135433,186.87870657917296 L66.6240126135433,186.87870547168814 zM72.25492319317789,183.77178274668893 C72.44095775474057,182.97205015713251 72.00639061857555,182.58202386598003 70.92928012476273,182.58202386598003 C68.47443485193031,182.58202386598003 65.06916601845933,180.00805057764933 64.30837688567192,177.57742238659404 C63.49682174554289,174.98460191968115 61.34502742363679,174.6762382450005 61.02719575081852,177.10721307883966 C60.41484926485907,181.79083220022335 71.2233013107533,188.20652231660443 72.25492185543385,183.77178274668893 L72.25492319317789,183.77178274668893 z" style="color: rgb(241, 148, 138);" class="" transform="rotate(49.55546188354492 71.285400390625,170.77725219726562) " fill-opacity="1" stroke-opacity="1" id="svg_9"/></g></svg>