<svg xmlns="http://www.w3.org/2000/svg" xmlns:se="http://svg-edit.googlecode.com" xmlns:xlink="http://www.w3.org/1999/xlink" xmlns:dc="http://purl.org/dc/elements/1.1/" xmlns:cc="http://creativecommons.org/ns#" xmlns:rdf="http://www.w3.org/1999/02/22-rdf-syntax-ns#" xmlns:inkscape="http://www.inkscape.org/namespaces/inkscape" width="268" height="267" style="">
                                    <title>my vector image</title>
                                    <!-- Created with Vector Paint - http://www.vectorpaint.yaks.com/ https://chrome.google.com/webstore/detail/hnbpdiengicdefcjecjbnjnoifekhgdo -->
                                    <rect id="backgroundrect" width="100%" height="100%" x="0" y="0" fill="#FFFFFF" stroke="none" style="" class="" opacity="0"/>
                                <g style="" class="currentLayer"><title>Layer 1</title><path fill="#242424" fill-opacity="1" stroke="#242424" stroke-opacity="1" stroke-width="15" stroke-dasharray="none" stroke-linejoin="round" stroke-linecap="butt" stroke-dashoffset="" fill-rule="nonzero" opacity="1" marker-start="" marker-mid="" marker-end="" d="M7.499999940395355,135.16393439519322 C7.499999940395355,64.63137421930588 64.02898069376442,7.500000476837158 133.81784582138062,7.500000476837158 C203.6067109489968,7.500000476837158 260.1356917023659,64.63137421930588 260.1356917023659,135.16393439519322 C260.1356917023659,205.69649457108056 203.6067109489968,262.8278683135493 133.81784582138062,262.8278683135493 C64.02898069376442,262.8278683135493 7.499999940395355,205.69649457108056 7.499999940395355,135.16393439519322 z" id="svg_1" class=""/><path fill="#ffffff" fill-opacity="1" stroke="#ffffff" stroke-opacity="1" stroke-width="15" stroke-dasharray="none" stroke-linejoin="round" stroke-linecap="butt" stroke-dashoffset="" fill-rule="nonzero" opacity="1" marker-start="" marker-mid="" marker-end="" d="M64.55363110855758,127.31926460039949 C64.55363110855758,93.92988134231757 96.40007461683422,66.8844809032712 135.71667154063257,66.8844809032712 C175.03326846443088,66.8844809032712 206.87971197270755,93.92988134231757 206.87971197270755,127.31926460039949 C206.87971197270755,160.70864785848144 175.03326846443088,187.7540482975278 135.71667154063257,187.7540482975278 C96.40007461683422,187.7540482975278 64.55363110855758,160.70864785848144 64.55363110855758,127.31926460039949 z" id="svg_2" class=""/><path fill="#ffffff" stroke="#ffffff" stroke-width="15" stroke-linejoin="round" stroke-dashoffset="" fill-rule="nonzero" marker-start="" marker-mid="" marker-end="" id="svg_3" d="M77.09049185507256,95.56579913507264 C69.44049202408235,93.39522024738775 63.95722562796742,86.49824837543574 65.20335177132144,80.61388251037519 C65.98912146423997,76.9033431098371 82.56688272084959,54.37778169402563 84.01464617303125,55.053422043244396 C84.48717682785197,55.27394103496363 88.6921098823743,60.525594511844844 93.35894164742842,66.72376539452588 C100.83471524840799,76.6525812306968 101.84408534521772,78.50399838638842 101.84408534521772,82.28747489785113 C101.84408534521772,89.95642548216915 93.71591932806506,96.2381657838491 83.95637168340066,96.11175089941031 C81.10839810272034,96.07485611667445 78.01875035911992,95.82917871642584 77.09049185507256,95.56580051000014 L77.09049185507256,95.56579913507264 zM84.75492738640058,91.70859905462211 C85.00814573954507,90.71574249466985 84.41664073302277,90.23153043831428 82.9505467819255,90.23153043831428 C79.6091683197864,90.23153043831428 74.97413406167455,87.03597945310719 73.93859652671436,84.01838935385797 C72.83395954773206,80.79943986628214 69.90507466780281,80.41661077909038 69.47246251179482,83.43463123039265 C68.63897561867614,89.24927731297643 83.35074962532207,97.21426473733166 84.75492556554588,91.70859905462211 L84.75492738640058,91.70859905462211 z" style="color: rgb(0, 0, 0);" class="" transform="rotate(-38.64204406738281 83.43529510498044,75.57608032226561) "/><path fill="#ffffff" stroke="#ffffff" stroke-width="15" stroke-linejoin="round" stroke-dashoffset="" fill-rule="nonzero" marker-start="" marker-mid="" marker-end="" d="M177.62700417034586,94.37014665017884 C169.97700433935563,92.19956776249396 164.49373794324072,85.30259589054194 165.7398640865947,79.41823002548139 C166.52563377951327,75.7076906249433 183.1033950361229,53.18212920913183 184.55115848830454,53.8577695583506 C185.02368914312524,54.07828855006983 189.22862219764758,59.329942026951045 193.8954539627017,65.52811290963209 C201.37122756368126,75.456928745803 202.380597660491,77.30834590149462 202.380597660491,81.09182241295733 C202.380597660491,88.76077299727535 194.25243164333835,95.0425132989553 184.49288399867396,94.91609841451651 C181.64491041799363,94.87920363178065 178.5552626743932,94.63352623153204 177.62700417034586,94.37014802510635 L177.62700417034586,94.37014665017884 zM185.29143970167388,90.51294656972831 C185.54465805481834,89.52009000977606 184.95315304829606,89.03587795342048 183.48705909719877,89.03587795342048 C180.1456806350597,89.03587795342048 175.51064637694782,85.84032696821339 174.47510884198766,82.82273686896417 C173.37047186300535,79.60378738138834 170.4415869830761,79.22095829419658 170.0089748270681,82.23897874549886 C169.17548793394943,88.05362482808263 183.88726194059535,96.01861225243786 185.29143788081916,90.51294656972831 L185.29143970167388,90.51294656972831 z" style="color: rgb(0, 0, 0);" class="" transform="rotate(32.76707458496094 183.9717864990234,74.38043212890626) " id="svg_7"/><path fill="#ffffff" fill-opacity="1" stroke="#ffffff" stroke-opacity="1" stroke-width="15" stroke-dasharray="none" stroke-linejoin="round" stroke-linecap="butt" stroke-dashoffset="" fill-rule="nonzero" opacity="1" marker-start="" marker-mid="" marker-end="" d="M103.72957396507263,230.8349061012268 C103.72957396507263,207.07800002387873 112.23233639601185,187.8349061012268 122.72957396507263,187.8349061012268 C133.22681153413342,187.8349061012268 141.72957396507263,207.07800002387873 141.72957396507263,230.8349061012268 C141.72957396507263,254.59181217857486 133.22681153413342,273.8349061012268 122.72957396507263,273.8349061012268 C112.23233639601185,273.8349061012268 103.72957396507263,254.59181217857486 103.72957396507263,230.8349061012268 z" class="" id="svg_4" transform="rotate(2.3031656742095947 122.72960662841662,230.8348999023437) "/><path fill="#ffffff" fill-opacity="1" stroke="#ffffff" stroke-opacity="1" stroke-width="15" stroke-dasharray="none" stroke-linejoin="round" stroke-linecap="butt" stroke-dashoffset="" fill-rule="nonzero" opacity="1" marker-start="" marker-mid="" marker-end="" d="M131.61134722828865,228.667418718338 C131.61134722828865,204.91051264098994 140.11410965922786,185.667418718338 150.61134722828865,185.667418718338 C161.10858479734944,185.667418718338 169.61134722828865,204.91051264098994 169.61134722828865,228.667418718338 C169.61134722828865,252.42432479568606 161.10858479734944,271.667418718338 150.61134722828865,271.667418718338 C140.11410965922786,271.667418718338 131.61134722828865,252.42432479568606 131.61134722828865,228.667418718338 z" class="" id="svg_5" transform="rotate(-6.541128158569336 152.08909606933594,228.66741943359392) "/><path fill="#ffffff" fill-opacity="1" stroke="#ffffff" stroke-opacity="1" stroke-width="15" stroke-dasharray="none" stroke-linejoin="round" stroke-linecap="butt" stroke-dashoffset="" fill-rule="nonzero" opacity="1" marker-start="" marker-mid="" marker-end="" d="M120.08425381779671,234.38170385360718 C120.08425381779671,210.62479777625913 128.58701624873592,191.38170385360718 139.0842538177967,191.38170385360718 C149.5814913868575,191.38170385360718 158.0842538177967,210.62479777625913 158.0842538177967,234.38170385360718 C158.0842538177967,258.1386099309552 149.5814913868575,277.3817038536072 139.0842538177967,277.3817038536072 C128.58701624873592,277.3817038536072 120.08425381779671,258.1386099309552 120.08425381779671,234.38170385360718 z" class="" id="svg_6"/><path fill="#ffffff" stroke="#ffffff" stroke-width="15" stroke-linejoin="round" stroke-dashoffset="" fill-rule="nonzero" marker-start="" marker-mid="" marker-end="" id="svg_10" d="M90.50138043218803,240.4487338488374 L90.50138043218803,240.4487338488374 C81.92600811817448,240.4487338488374 74.97429505593718,226.10917872887077 74.97429505593718,208.420452030051 C74.97429505593718,190.73171890288793 81.92600811817448,176.39217021125992 90.50138043218803,176.39217021125992 L90.50138043218803,176.39217021125992 C85.61411637750325,183.9530193007469 82.73783774406209,195.81903330960122 82.73783774406209,208.420452030051 C82.73783774406209,221.02186860771914 85.61411637750325,232.88787618822383 90.50138043218803,240.4487338488374 z" style="color: rgb(0, 0, 0);" class="" transform="rotate(-66.33665466308594 82.73783874511714,208.42045593261716) "/><path fill="#ffffff" stroke="#ffffff" stroke-width="15" stroke-linejoin="round" stroke-dashoffset="" fill-rule="nonzero" marker-start="" marker-mid="" marker-end="" d="M51.314831710442895,198.13715593334967 L51.314831710442895,198.13715593334967 C47.832646031699284,198.13715593334967 45.009776681933644,191.70644200028414 45.009776681933644,183.77375927138274 C45.009776681933644,175.8410736596278 47.832646031699284,169.41036260941362 51.314831710442895,169.41036260941362 L51.314831710442895,169.41036260941362 C49.33026937585469,172.80109943345002 48.16230419618806,178.12252962973548 48.16230419618806,183.77375927138274 C48.16230419618806,189.4249879520785 49.33026937585469,194.74641526550764 51.314831710442895,198.13715593334967 z" style="color: rgb(0, 0, 0);" class="" transform="rotate(133.74044799804688 48.16230773925779,183.77375793457034) " id="svg_12"/></g></svg>