<svg xmlns="http://www.w3.org/2000/svg" xmlns:se="http://svg-edit.googlecode.com" xmlns:xlink="http://www.w3.org/1999/xlink" xmlns:dc="http://purl.org/dc/elements/1.1/" xmlns:cc="http://creativecommons.org/ns#" xmlns:rdf="http://www.w3.org/1999/02/22-rdf-syntax-ns#" xmlns:inkscape="http://www.inkscape.org/namespaces/inkscape" width="268" height="270" style="">
                                    <title>my vector image</title>
                                    <!-- Created with Vector Paint - http://www.vectorpaint.yaks.com/ https://chrome.google.com/webstore/detail/hnbpdiengicdefcjecjbnjnoifekhgdo -->
                                    <rect id="backgroundrect" width="100%" height="100%" x="0" y="0" fill="#FFFFFF" stroke="none" style="" class="" opacity="0"/>
                                <g style="" class="currentLayer"><title>Layer 1</title><path fill="#8e44ad" fill-opacity="1" stroke="#8e44ad" stroke-opacity="1" stroke-width="15" stroke-dasharray="none" stroke-linejoin="round" stroke-linecap="butt" stroke-dashoffset="" fill-rule="nonzero" opacity="1" marker-start="" marker-mid="" marker-end="" d="M7.499999761581421,135.16393439519322 C7.499999761581421,64.63137421930588 64.02898051495049,7.500000476837158 133.81784564256668,7.500000476837158 C203.60671077018287,7.500000476837158 260.13569152355194,64.63137421930588 260.13569152355194,135.16393439519322 C260.13569152355194,205.69649457108056 203.60671077018287,262.8278683135493 133.81784564256668,262.8278683135493 C64.02898051495049,262.8278683135493 7.499999761581421,205.69649457108056 7.499999761581421,135.16393439519322 z" id="svg_1" class=""/><rect fill="#f7dc6f" stroke="#f7dc6f" stroke-width="15" stroke-linejoin="round" stroke-dashoffset="" fill-rule="nonzero" id="svg_2" x="142.34646606445312" y="150.20492553710938" width="83.01638793945312" height="25.98360824584961" style="color: rgb(247, 220, 111);" class="" rx="15" ry="15"/><rect fill="#f1948a" stroke="#f1948a" stroke-width="15" stroke-linejoin="round" stroke-dashoffset="" fill-rule="nonzero" x="64.80548095703125" y="176.76226806640625" width="83.01638793945312" height="25.98360824584961" style="color: rgb(247, 220, 111);" class="" rx="15" ry="15" id="svg_4" fill-opacity="1" stroke-opacity="1" transform="rotate(90.6948013305664 106.31367492675781,189.75410461425784) "/><rect fill="#82e0aa" stroke="#82e0aa" stroke-width="15" stroke-linejoin="round" stroke-dashoffset="" fill-rule="nonzero" x="113.49401092529297" y="71.35245513916016" width="83.01638793945312" height="25.98360824584961" style="color: rgb(247, 220, 111);" class="" rx="15" ry="15" id="svg_5" fill-opacity="1" stroke-opacity="1" transform="rotate(89.98005676269531 155.0022125244141,84.34425354003906) "/><rect fill="#85c1e9" stroke="#85c1e9" stroke-width="15" stroke-linejoin="round" stroke-dashoffset="" fill-rule="nonzero" x="36.772701263427734" y="100.36886596679688" width="83.01638793945312" height="25.98360824584961" style="color: rgb(247, 220, 111);" class="" rx="15" ry="15" id="svg_6" fill-opacity="1" stroke-opacity="1"/><path fill="#f7dc6f" stroke="#f7dc6f" stroke-width="15" stroke-linejoin="round" stroke-dashoffset="" fill-rule="nonzero" marker-start="" marker-mid="" marker-end="" id="svg_3" d="M153.06180300737267,224.9430927931603 C147.44149805387084,223.19472072744065 143.41304969200309,217.63930275696924 144.3285541483276,212.89952528962556 C144.9058437424497,209.91073576741223 157.08520005184755,191.76669936887976 158.14884348734694,192.31091857222196 C158.49600249893396,192.48854365061464 161.58528440711814,196.7186798091803 165.01391424578398,201.7112229926206 C170.5062186025299,209.70875045044318 171.2477830313329,211.20004203876874 171.2477830313329,214.24758142168434 C171.2477830313329,220.42481784975212 165.27617875180437,225.48467507487794 158.1060303618657,225.38284958772414 C156.01367998583765,225.35313133704392 153.7437763385722,225.15524149935544 153.06180300737267,224.94309390064512 L153.06180300737267,224.9430927931603 zM158.69271358700723,221.8361700681611 C158.87874814856994,221.03643747860468 158.44418101240487,220.6464111874522 157.36707051859204,220.6464111874522 C154.91222524575966,220.6464111874522 151.50695641228864,218.0724378991215 150.74616727950126,215.6418097080662 C149.93461213937223,213.04898924115332 147.78281781746614,212.74062556647266 147.46498614464787,215.17160040031183 C146.85263965868845,219.85521952169552 157.66109170458265,226.2709096380766 158.69271224926317,221.8361700681611 L158.69271358700723,221.8361700681611 z" style="color: rgb(241, 148, 138);" class="" transform="rotate(-56.055965423583984 157.72320556640622,208.84164428710935) "/><path fill="#82e0aa" stroke="#82e0aa" stroke-width="15" stroke-linejoin="round" stroke-dashoffset="" fill-rule="nonzero" marker-start="" marker-mid="" marker-end="" d="M196.34049525285604,129.69719931476675 C190.72019029935427,127.9488272490471 186.69174193748648,122.39340927857569 187.607246393811,117.653631811232 C188.1845359879331,114.66484228901868 200.36389229733095,96.5208058904862 201.42753573283034,97.06502509382841 C201.7746947444174,97.24265017222109 204.86397665260154,101.47278633078673 208.2926064912674,106.46532951422705 C213.78491084801328,114.46285697204962 214.5264752768163,115.95414856037519 214.5264752768163,119.00168794329079 C214.5264752768163,125.17892437135856 208.55487099728776,130.2387815964844 201.3847226073491,130.13695610933058 C199.29237223132105,130.10723785865036 197.02246858405556,129.9093480209619 196.34049525285604,129.69720042225157 L196.34049525285604,129.69719931476675 zM201.97140583249063,126.59027658976754 C202.1574403940533,125.79054400021113 201.7228732578883,125.40051770905865 200.64576276407547,125.40051770905865 C198.19091749124306,125.40051770905865 194.78564865777207,122.82654442072794 194.02485952498466,120.39591622967265 C193.21330438485563,117.80309576275977 191.06151006294954,117.4947320880791 190.74367839013127,119.92570692191828 C190.13133190417182,124.60932604330196 200.93978395006604,131.02501615968305 201.9714044947466,126.59027658976754 L201.97140583249063,126.59027658976754 z" style="color: rgb(241, 148, 138);" class="" transform="rotate(-134.75820922851562 201.00189208984375,113.59574127197266) " id="svg_8" fill-opacity="1" stroke-opacity="1"/><path fill="#85c1e9" stroke="#85c1e9" stroke-width="15" stroke-linejoin="round" stroke-dashoffset="" fill-rule="nonzero" marker-start="" marker-mid="" marker-end="" d="M101.58640208269003,82.48408839099966 C95.96609712918826,80.73571632528001 91.93764876732047,75.1802983548086 92.853153223645,70.44052088746491 C93.43044281776707,67.45173136525159 105.60979912716493,49.30769496671911 106.67344256266432,49.85191417006132 C107.02060157425137,50.029539248454 110.10988348243552,54.25967540701964 113.53851332110139,59.25221859045996 C119.03081767784727,67.24974604828253 119.7723821066503,68.7410376366081 119.7723821066503,71.7885770195237 C119.7723821066503,77.96581344759147 113.80077782712175,83.0256706727173 106.63062943718307,82.9238451855635 C104.53827906115504,82.89412693488327 102.26837541388954,82.6962370971948 101.58640208269003,82.48408949848448 L101.58640208269003,82.48408839099966 zM107.21731266232462,79.37716566600045 C107.4033472238873,78.57743307644404 106.96878008772228,78.18740678529156 105.89166959390946,78.18740678529156 C103.43682432107704,78.18740678529156 100.03155548760606,75.61343349696085 99.27076635481865,73.18280530590556 C98.45921121468962,70.58998483899268 96.30741689278352,70.28162116431201 95.98958521996525,72.71259599815119 C95.3772387340058,77.39621511953487 106.18569077990003,83.81190523591596 107.21731132458058,79.37716566600045 L107.21731266232462,79.37716566600045 z" style="color: rgb(241, 148, 138);" class="" fill-opacity="1" stroke-opacity="1" id="svg_7" transform="rotate(131.60491943359375 106.24778747558594,66.38262939453126) "/><path fill="#f1948a" stroke="#f1948a" stroke-width="15" stroke-linejoin="round" stroke-dashoffset="" fill-rule="nonzero" marker-start="" marker-mid="" marker-end="" d="M54.37329545045736,178.71360537403189 C48.75299049695559,176.96523330831224 44.7245421350878,171.40981533784083 45.64004659141233,166.67003787049714 C46.21733618553441,163.68124834828382 58.39669249493227,145.53721194975134 59.460335930431654,146.08143115309355 C59.80749494201871,146.25905623148623 62.896776850202855,150.48919239005187 66.32540668886872,155.4817355734922 C71.8177110456146,163.47926303131476 72.55927547441763,164.97055461964032 72.55927547441763,168.01809400255593 C72.55927547441763,174.1953304306237 66.58767119488908,179.25518765574952 59.41752280495041,179.15336216859572 C57.32517242892237,179.1236439179155 55.05526878165688,178.92575408022702 54.37329545045736,178.7136064815167 L54.37329545045736,178.71360537403189 zM60.00420603009195,175.60668264903268 C60.19024059165463,174.80695005947626 59.755673455489614,174.41692376832378 58.67856296167679,174.41692376832378 C56.223717688844374,174.41692376832378 52.81844885537339,171.84295047999308 52.05765972258598,169.4123222889378 C51.24610458245695,166.8195018220249 49.094310260550856,166.51113814734424 48.77647858773258,168.9421129811834 C48.164132101773134,173.6257321025671 58.97258414766736,180.04142221894818 60.00420469234791,175.60668264903268 L60.00420603009195,175.60668264903268 z" style="color: rgb(241, 148, 138);" class="" transform="rotate(49.55546188354492 59.034683227539055,162.61215209960938) " fill-opacity="1" stroke-opacity="1" id="svg_9"/></g></svg>