<svg xmlns="http://www.w3.org/2000/svg" xmlns:se="http://svg-edit.googlecode.com" xmlns:xlink="http://www.w3.org/1999/xlink" xmlns:dc="http://purl.org/dc/elements/1.1/" xmlns:cc="http://creativecommons.org/ns#" xmlns:rdf="http://www.w3.org/1999/02/22-rdf-syntax-ns#" xmlns:inkscape="http://www.inkscape.org/namespaces/inkscape" width="737" height="180" style="">
                                    <title>my vector image</title>
                                    <!-- Created with Vector Paint - http://www.vectorpaint.yaks.com/ https://chrome.google.com/webstore/detail/hnbpdiengicdefcjecjbnjnoifekhgdo -->
                                    <rect id="backgroundrect" width="100%" height="100%" x="0" y="0" fill="#04112c" stroke="#04112c" style="" class="" fill-opacity="1" stroke-opacity="1"/>
                                <g style="" class="currentLayer"><title>Layer 1</title><rect fill="#ffffff" stroke="#919191" stroke-width="2" stroke-linejoin="round" stroke-dashoffset="" fill-rule="nonzero" x="1036.66650390625" y="215.2837677001953" width="30.94816780090332" height="6.938180446624756" style="color: rgb(0, 0, 0);" class="" stroke-opacity="1" rx="2" ry="2" id="svg_12" fill-opacity="1"/><rect fill="#ffffff" stroke="#919191" stroke-width="2" stroke-linejoin="round" stroke-dashoffset="" fill-rule="nonzero" x="1044.91552734375" y="211.25038146972656" width="26.742441177368164" height="6.938180446624756" style="color: rgb(0, 0, 0);" class="" stroke-opacity="1" rx="2" ry="2" id="svg_13" fill-opacity="1"/><path fill="#ffffff" fill-opacity="1" stroke="#919191" stroke-opacity="1" stroke-width="2" stroke-dasharray="none" stroke-linejoin="round" stroke-linecap="butt" stroke-dashoffset="" fill-rule="nonzero" opacity="1" marker-start="" marker-mid="" marker-end="" d="M1050.657959584476,228.88965472540025 L1061.0027868304896,221.99310322805763 " id="svg_14" class=""/><path fill="#ffffff" fill-opacity="1" stroke="#919191" stroke-opacity="1" stroke-width="5" stroke-dasharray="none" stroke-linejoin="round" stroke-linecap="butt" stroke-dashoffset="" fill-rule="nonzero" opacity="1" marker-start="" marker-mid="" marker-end="" d="M1052.106241861979,232.76321856180826 L1065.4395751953125,223.76321856180826 " id="svg_15" class=""/><path fill="#ffffff" fill-opacity="1" stroke="#919191" stroke-opacity="1" stroke-width="5" stroke-dasharray="none" stroke-linejoin="round" stroke-linecap="butt" stroke-dashoffset="" fill-rule="nonzero" opacity="1" marker-start="" marker-mid="" marker-end="" d="M1056.4395751953125,226.76321856180826 L1056.4395751953125,216.42988522847492 " id="svg_18" class=""/><path fill="#ffffff" fill-opacity="1" stroke="#919191" stroke-opacity="1" stroke-width="5" stroke-dasharray="none" stroke-linejoin="round" stroke-linecap="butt" stroke-dashoffset="" fill-rule="nonzero" opacity="1" marker-start="" marker-mid="" marker-end="" d="M1055.7729085286458,228.42988522847492 L1056.7729085286458,224.42988522847492 " id="svg_20" class=""/><path fill="#ffffff" fill-opacity="1" stroke="#ffffff" stroke-opacity="1" stroke-width="2" stroke-dasharray="none" stroke-linejoin="round" stroke-linecap="butt" stroke-dashoffset="" fill-rule="nonzero" opacity="1" marker-start="" marker-mid="" marker-end="" d="M53,15 C53,14.447513812154696 53.447513812154696,14 54,14 C54.552486187845304,14 55,14.447513812154696 55,15 C55,15.552486187845304 54.552486187845304,16 54,16 C53.447513812154696,16 53,15.552486187845304 53,15 Z" id="svg_19" class=""/><path fill="#ffffff" fill-opacity="1" stroke="#ffffff" stroke-opacity="1" stroke-width="2" stroke-dasharray="none" stroke-linejoin="round" stroke-linecap="butt" stroke-dashoffset="" fill-rule="nonzero" opacity="1" marker-start="" marker-mid="" marker-end="" d="M573,26.851852416992188 C573,26.299366229146884 573.4475138121547,25.851852416992188 574,25.851852416992188 C574.5524861878453,25.851852416992188 575,26.299366229146884 575,26.851852416992188 C575,27.40433860483749 574.5524861878453,27.851852416992188 574,27.851852416992188 C573.4475138121547,27.851852416992188 573,27.40433860483749 573,26.851852416992188 z" class="" id="svg_4"/><path fill="#ffffff" fill-opacity="1" stroke="#ffffff" stroke-opacity="1" stroke-width="2" stroke-dasharray="none" stroke-linejoin="round" stroke-linecap="butt" stroke-dashoffset="" fill-rule="nonzero" opacity="1" marker-start="" marker-mid="" marker-end="" d="M140,29.5 C140,29.223756906077348 140.22375690607734,29 140.5,29 C140.77624309392266,29 141,29.223756906077348 141,29.5 C141,29.776243093922652 140.77624309392266,30 140.5,30 C140.22375690607734,30 140,29.776243093922652 140,29.5 Z" id="svg_33" class=""/><path fill="#ffffff" fill-opacity="1" stroke="#ffffff" stroke-opacity="1" stroke-width="2" stroke-dasharray="none" stroke-linejoin="round" stroke-linecap="butt" stroke-dashoffset="" fill-rule="nonzero" opacity="1" marker-start="" marker-mid="" marker-end="" d="M262.9288932085037,130.39399337768555 C262.9288932085037,130.1177502837629 263.1526501145811,129.89399337768555 263.4288932085037,129.89399337768555 C263.70513630242635,129.89399337768555 263.9288932085037,130.1177502837629 263.9288932085037,130.39399337768555 C263.9288932085037,130.6702364716082 263.70513630242635,130.89399337768555 263.4288932085037,130.89399337768555 C263.1526501145811,130.89399337768555 262.9288932085037,130.6702364716082 262.9288932085037,130.39399337768555 z" class="" id="svg_5" transform="rotate(86.23381805419922 263.43011474609375,130.39399719238284) "/><path fill="#ffffff" fill-opacity="1" stroke="#ffffff" stroke-opacity="1" stroke-width="2" stroke-dasharray="none" stroke-linejoin="round" stroke-linecap="butt" stroke-dashoffset="" fill-rule="nonzero" opacity="1" marker-start="" marker-mid="" marker-end="" d="M609.1357718706131,19.359508514404297 C609.1357718706131,19.083265420481638 609.3595287766905,18.859508514404297 609.6357718706131,18.859508514404297 C609.9120149645357,18.859508514404297 610.1357718706131,19.083265420481638 610.1357718706131,19.359508514404297 C610.1357718706131,19.635751608326956 609.9120149645357,19.859508514404297 609.6357718706131,19.859508514404297 C609.3595287766905,19.859508514404297 609.1357718706131,19.635751608326956 609.1357718706131,19.359508514404297 z" class="" transform="rotate(86.23381805419922 609.636962890625,19.359512329101562) " id="svg_11"/><path fill="#ffffff" fill-opacity="1" stroke="#ffffff" stroke-opacity="1" stroke-width="2" stroke-dasharray="none" stroke-linejoin="round" stroke-linecap="butt" stroke-dashoffset="" fill-rule="nonzero" opacity="1" marker-start="" marker-mid="" marker-end="" d="M669.1357718706131,79.3595085144043 C669.1357718706131,79.08326542048164 669.3595287766905,78.8595085144043 669.6357718706131,78.8595085144043 C669.9120149645357,78.8595085144043 670.1357718706131,79.08326542048164 670.1357718706131,79.3595085144043 C670.1357718706131,79.63575160832696 669.9120149645357,79.8595085144043 669.6357718706131,79.8595085144043 C669.3595287766905,79.8595085144043 669.1357718706131,79.63575160832696 669.1357718706131,79.3595085144043 z" class="" id="svg_21"/><path fill="#ffffff" fill-opacity="1" stroke="#ffffff" stroke-opacity="1" stroke-width="2" stroke-dasharray="none" stroke-linejoin="round" stroke-linecap="butt" stroke-dashoffset="" fill-rule="nonzero" opacity="1" marker-start="" marker-mid="" marker-end="" d="M629.82543861866,76.60089111328125 C629.82543861866,76.32464801935859 630.0491955247373,76.10089111328125 630.32543861866,76.10089111328125 C630.6016817125826,76.10089111328125 630.82543861866,76.32464801935859 630.82543861866,76.60089111328125 C630.82543861866,76.87713420720391 630.6016817125826,77.10089111328125 630.32543861866,77.10089111328125 C630.0491955247373,77.10089111328125 629.82543861866,76.87713420720391 629.82543861866,76.60089111328125 z" class="" id="svg_22"/><path fill="#ffffff" fill-opacity="1" stroke="#ffffff" stroke-opacity="1" stroke-width="2" stroke-dasharray="none" stroke-linejoin="round" stroke-linecap="butt" stroke-dashoffset="" fill-rule="nonzero" opacity="1" marker-start="" marker-mid="" marker-end="" d="M593,46.85185241699219 C593,46.299366229146884 593.4475138121547,45.85185241699219 594,45.85185241699219 C594.5524861878453,45.85185241699219 595,46.299366229146884 595,46.85185241699219 C595,47.40433860483749 594.5524861878453,47.85185241699219 594,47.85185241699219 C593.4475138121547,47.85185241699219 593,47.40433860483749 593,46.85185241699219 z" class="" id="svg_23"/><path fill="#ffffff" fill-opacity="1" stroke="#ffffff" stroke-opacity="1" stroke-width="2" stroke-dasharray="none" stroke-linejoin="round" stroke-linecap="butt" stroke-dashoffset="" fill-rule="nonzero" opacity="1" marker-start="" marker-mid="" marker-end="" d="M16.032347798347473,119.35951232910156 C16.032347798347473,119.0832692351789 16.256104704424843,118.85951232910156 16.532347798347473,118.85951232910156 C16.808590892270104,118.85951232910156 17.032347798347473,119.0832692351789 17.032347798347473,119.35951232910156 C17.032347798347473,119.63575542302422 16.808590892270104,119.85951232910156 16.532347798347473,119.85951232910156 C16.256104704424843,119.85951232910156 16.032347798347473,119.63575542302422 16.032347798347473,119.35951232910156 z" class="" transform="rotate(86.23381805419922 16.533569335937496,119.3595199584961) " id="svg_10"/><path fill="#ffffff" fill-opacity="1" stroke="#ffffff" stroke-opacity="1" stroke-width="2" stroke-dasharray="none" stroke-linejoin="round" stroke-linecap="butt" stroke-dashoffset="" fill-rule="nonzero" opacity="1" marker-start="" marker-mid="" marker-end="" d="M651.8943894505501,104.87675285339355 C651.8943894505501,104.6005097594709 652.1181463566274,104.37675285339355 652.3943894505501,104.37675285339355 C652.6706325444727,104.37675285339355 652.8943894505501,104.6005097594709 652.8943894505501,104.87675285339355 C652.8943894505501,105.15299594731621 652.6706325444727,105.37675285339355 652.3943894505501,105.37675285339355 C652.1181463566274,105.37675285339355 651.8943894505501,105.15299594731621 651.8943894505501,104.87675285339355 z" class="" transform="rotate(86.23381805419922 652.3956298828124,104.87675476074226) " id="svg_9"/><path fill="#ffffff" fill-opacity="1" stroke="#ffffff" stroke-opacity="1" stroke-width="2" stroke-dasharray="none" stroke-linejoin="round" stroke-linecap="butt" stroke-dashoffset="" fill-rule="nonzero" opacity="1" marker-start="" marker-mid="" marker-end="" d="M274.6530314683914,134.53192520141602 C274.6530314683914,134.25568210749336 274.8767883744688,134.03192520141602 275.1530314683914,134.03192520141602 C275.42927456231405,134.03192520141602 275.6530314683914,134.25568210749336 275.6530314683914,134.53192520141602 C275.6530314683914,134.80816829533867 275.42927456231405,135.03192520141602 275.1530314683914,135.03192520141602 C274.8767883744688,135.03192520141602 274.6530314683914,134.80816829533867 274.6530314683914,134.53192520141602 z" class="" transform="rotate(86.23381805419922 275.1542663574219,134.53193664550778) " id="svg_8"/><path fill="#ffffff" fill-opacity="1" stroke="#ffffff" stroke-opacity="1" stroke-width="2" stroke-dasharray="none" stroke-linejoin="round" stroke-linecap="butt" stroke-dashoffset="" fill-rule="nonzero" opacity="1" marker-start="" marker-mid="" marker-end="" d="M589.82543861866,36.60089111328125 C589.82543861866,36.32464801935859 590.0491955247373,36.10089111328125 590.32543861866,36.10089111328125 C590.6016817125826,36.10089111328125 590.82543861866,36.32464801935859 590.82543861866,36.60089111328125 C590.82543861866,36.87713420720391 590.6016817125826,37.10089111328125 590.32543861866,37.10089111328125 C590.0491955247373,37.10089111328125 589.82543861866,36.87713420720391 589.82543861866,36.60089111328125 z" class="" transform="rotate(86.23381805419922 590.3266601562499,36.60089111328128) " id="svg_6"/><path fill="#ffffff" fill-opacity="1" stroke="#ffffff" stroke-opacity="1" stroke-width="2" stroke-dasharray="none" stroke-linejoin="round" stroke-linecap="butt" stroke-dashoffset="" fill-rule="nonzero" opacity="1" marker-start="" marker-mid="" marker-end="" d="M706.3771735429764,78.66985511779785 C706.3771735429764,78.39361202387519 706.6009304490537,78.16985511779785 706.8771735429764,78.16985511779785 C707.153416636899,78.16985511779785 707.3771735429764,78.39361202387519 707.3771735429764,78.66985511779785 C707.3771735429764,78.94609821172051 707.153416636899,79.16985511779785 706.8771735429764,79.16985511779785 C706.6009304490537,79.16985511779785 706.3771735429764,78.94609821172051 706.3771735429764,78.66985511779785 z" class="" transform="rotate(86.23381805419922 706.8783569335938,78.66985321044926) " id="svg_7"/><path fill="#ffffff" fill-opacity="1" stroke="#ffffff" stroke-opacity="1" stroke-width="2" stroke-dasharray="none" stroke-linejoin="round" stroke-linecap="butt" stroke-dashoffset="" fill-rule="nonzero" opacity="1" marker-start="" marker-mid="" marker-end="" d="M624.9978476762772,137.2905445098877 C624.9978476762772,137.01430141596504 625.2216045823545,136.7905445098877 625.4978476762772,136.7905445098877 C625.7740907701998,136.7905445098877 625.9978476762772,137.01430141596504 625.9978476762772,137.2905445098877 C625.9978476762772,137.56678760381035 625.7740907701998,137.7905445098877 625.4978476762772,137.7905445098877 C625.2216045823545,137.7905445098877 624.9978476762772,137.56678760381035 624.9978476762772,137.2905445098877 z" class="" transform="rotate(86.23381805419922 625.4990234375,137.2905426025391) " id="svg_1"/><path fill="#ffffff" fill-opacity="1" stroke="#ffffff" stroke-opacity="1" stroke-width="2" stroke-dasharray="none" stroke-linejoin="round" stroke-linecap="butt" stroke-dashoffset="" fill-rule="nonzero" opacity="1" marker-start="" marker-mid="" marker-end="" d="M345.68751442432404,18.669862747192383 C345.68751442432404,18.393619653269724 345.9112713304014,18.169862747192383 346.18751442432404,18.169862747192383 C346.46375751824667,18.169862747192383 346.68751442432404,18.393619653269724 346.68751442432404,18.669862747192383 C346.68751442432404,18.946105841115042 346.46375751824667,19.169862747192383 346.18751442432404,19.169862747192383 C345.9112713304014,19.169862747192383 345.68751442432404,18.946105841115042 345.68751442432404,18.669862747192383 z" class="" transform="rotate(86.23381805419922 346.1886901855469,18.669860839843743) " id="svg_27"/><path fill="#ffffff" fill-opacity="1" stroke="#ffffff" stroke-opacity="1" stroke-width="2" stroke-dasharray="none" stroke-linejoin="round" stroke-linecap="butt" stroke-dashoffset="" fill-rule="nonzero" opacity="1" marker-start="" marker-mid="" marker-end="" d="M471.20473796129227,9.704343795776367 C471.20473796129227,9.428100701853708 471.42849486736964,9.204343795776367 471.70473796129227,9.204343795776367 C471.9809810552149,9.204343795776367 472.20473796129227,9.428100701853708 472.20473796129227,9.704343795776367 C472.20473796129227,9.980586889699026 471.9809810552149,10.204343795776367 471.70473796129227,10.204343795776367 C471.42849486736964,10.204343795776367 471.20473796129227,9.980586889699026 471.20473796129227,9.704343795776367 z" class="" transform="rotate(86.23381805419922 471.70599365234375,9.704345703124975) " id="svg_28"/><path fill="#ffffff" fill-opacity="1" stroke="#ffffff" stroke-opacity="1" stroke-width="2" stroke-dasharray="none" stroke-linejoin="round" stroke-linecap="butt" stroke-dashoffset="" fill-rule="nonzero" opacity="1" marker-start="" marker-mid="" marker-end="" d="M44.99784767627716,162.11813163757324 C44.99784767627716,161.84188854365058 45.22160458235453,161.61813163757324 45.49784767627716,161.61813163757324 C45.77409077019979,161.61813163757324 45.99784767627716,161.84188854365058 45.99784767627716,162.11813163757324 C45.99784767627716,162.3943747314959 45.77409077019979,162.61813163757324 45.49784767627716,162.61813163757324 C45.22160458235453,162.61813163757324 44.99784767627716,162.3943747314959 44.99784767627716,162.11813163757324 z" class="" transform="rotate(86.23381805419922 45.49902343750001,162.11813354492188) " id="svg_25"/><path fill="#ffffff" fill-opacity="1" stroke="#ffffff" stroke-opacity="1" stroke-width="2" stroke-dasharray="none" stroke-linejoin="round" stroke-linecap="butt" stroke-dashoffset="" fill-rule="nonzero" opacity="1" marker-start="" marker-mid="" marker-end="" d="M51.89438945055008,109.7043399810791 C51.89438945055008,109.42809688715644 52.11814635662745,109.2043399810791 52.39438945055008,109.2043399810791 C52.67063254447271,109.2043399810791 52.89438945055008,109.42809688715644 52.89438945055008,109.7043399810791 C52.89438945055008,109.98058307500176 52.67063254447271,110.2043399810791 52.39438945055008,110.2043399810791 C52.11814635662745,110.2043399810791 51.89438945055008,109.98058307500176 51.89438945055008,109.7043399810791 z" class="" transform="rotate(86.23381805419922 52.39562988281249,109.70434570312499) " id="svg_26"/><path fill="#ffffff" fill-opacity="1" stroke="#ffffff" stroke-opacity="1" stroke-width="2" stroke-dasharray="none" stroke-linejoin="round" stroke-linecap="butt" stroke-dashoffset="" fill-rule="nonzero" opacity="1" marker-start="" marker-mid="" marker-end="" d="M696.0323287248611,3.4974495172500615 C696.0323287248611,3.221206423327402 696.2560856309385,2.997449517250061 696.5323287248611,2.997449517250061 C696.8085718187838,2.997449517250061 697.0323287248611,3.221206423327402 697.0323287248611,3.4974495172500615 C697.0323287248611,3.77369261117272 696.8085718187838,3.997449517250061 696.5323287248611,3.997449517250061 C696.2560856309385,3.997449517250061 696.0323287248611,3.77369261117272 696.0323287248611,3.4974495172500615 z" class="" id="svg_17"/><path fill="#ffffff" fill-opacity="1" stroke="#ffffff" stroke-opacity="1" stroke-width="2" stroke-dasharray="none" stroke-linejoin="round" stroke-linecap="butt" stroke-dashoffset="" fill-rule="nonzero" opacity="1" marker-start="" marker-mid="" marker-end="" d="M729.8254309892654,172.46295738220215 C729.8254309892654,172.1867142882795 730.0491878953428,171.96295738220215 730.3254309892654,171.96295738220215 C730.6016740831881,171.96295738220215 730.8254309892654,172.1867142882795 730.8254309892654,172.46295738220215 C730.8254309892654,172.7392004761248 730.6016740831881,172.96295738220215 730.3254309892654,172.96295738220215 C730.0491878953428,172.96295738220215 729.8254309892654,172.7392004761248 729.8254309892654,172.46295738220215 z" class="" transform="rotate(86.23381805419922 730.3265991210938,172.46295166015628) " id="svg_16"/><path fill="#ffffff" fill-opacity="1" stroke="#ffffff" stroke-opacity="1" stroke-width="2" stroke-dasharray="none" stroke-linejoin="round" stroke-linecap="butt" stroke-dashoffset="" fill-rule="nonzero" opacity="1" marker-start="" marker-mid="" marker-end="" d="M101.78861999511719,82.34552764892578 C101.78861999511719,82.06928455500312 102.01237690119453,81.84552764892578 102.28861999511719,81.84552764892578 C102.56486308903985,81.84552764892578 102.78861999511719,82.06928455500312 102.78861999511719,82.34552764892578 C102.78861999511719,82.62177074284844 102.56486308903985,82.84552764892578 102.28861999511719,82.84552764892578 C102.01237690119453,82.84552764892578 101.78861999511719,82.62177074284844 101.78861999511719,82.34552764892578 z" class="" id="svg_2"/><path fill="#ffffff" fill-opacity="1" stroke="#ffffff" stroke-opacity="1" stroke-width="2" stroke-dasharray="none" stroke-linejoin="round" stroke-linecap="butt" stroke-dashoffset="" fill-rule="nonzero" opacity="1" marker-start="" marker-mid="" marker-end="" d="M121.78861999511719,102.34552764892578 C121.78861999511719,102.06928455500312 122.01237690119453,101.84552764892578 122.28861999511719,101.84552764892578 C122.56486308903985,101.84552764892578 122.78861999511719,102.06928455500312 122.78861999511719,102.34552764892578 C122.78861999511719,102.62177074284844 122.56486308903985,102.84552764892578 122.28861999511719,102.84552764892578 C122.01237690119453,102.84552764892578 121.78861999511719,102.62177074284844 121.78861999511719,102.34552764892578 z" class="" id="svg_3"/><path fill="#ffffff" fill-opacity="1" stroke="#ffffff" stroke-opacity="1" stroke-width="2" stroke-dasharray="none" stroke-linejoin="round" stroke-linecap="butt" stroke-dashoffset="" fill-rule="nonzero" opacity="1" marker-start="" marker-mid="" marker-end="" d="M187.03448295593262,48.13793087005615 C187.03448295593262,47.032958494365545 187.929510580242,46.13793087005615 189.03448295593262,46.13793087005615 C190.13945533162322,46.13793087005615 191.03448295593262,47.032958494365545 191.03448295593262,48.13793087005615 C191.03448295593262,49.24290324574676 190.13945533162322,50.13793087005615 189.03448295593262,50.13793087005615 C187.929510580242,50.13793087005615 187.03448295593262,49.24290324574676 187.03448295593262,48.13793087005615 z" id="svg_35" class=""/></g></svg>